<svg width="150" height="150" viewBox="0 0 150 150" fill="none" xmlns="http://www.w3.org/2000/svg">
<path fill-rule="evenodd" clip-rule="evenodd" d="M76 7H83H97H99H113.5L103.935 77.3149C108.849 72.7355 114.112 69.5248 118.003 69.4997C111.38 76.9562 98.8425 123.011 95.4595 139.623L95 143H61L70.7002 83.0355L70.5 83.5C71.0874 80.1961 71.6544 76.9497 72.1985 73.7728L75.8309 51.318C82.8313 4.76331 81.5279 -13.3095 60 55H35C37.221 49.513 40.2953 44.299 43.8306 39.4116C39.4438 40.1363 34.971 39.8788 33 38.3049C37.3761 37.5922 53.1562 26.384 61.297 20.0192C65.5845 15.9835 69.7364 12.405 73.2837 9.34767L73.2844 9.34711C74.2362 8.52681 75.1444 7.74403 76 7ZM66 75.9998H59C52 75.9998 49 80 48.9998 86L49 96H48L47.9998 86C47.9998 79 45 75.9998 37.9998 75.9998H30V74.9998H37.9998C45 74.9998 47.9998 72 47.9998 65.0002L48 57H49L48.9998 65C48.9998 72 52 74.9998 59 74.9998H66V75.9998Z" fill="black"/>
</svg>
