<svg width="150" height="150" viewBox="0 0 150 150" fill="none" xmlns="http://www.w3.org/2000/svg">
<path fill-rule="evenodd" clip-rule="evenodd" d="M110 7H74C74 7 28.0009 18.4996 12.5009 47.5L48 76H53.5001H64V75.9998H65.9998C73 75.9998 75.9998 79 75.9998 86L76 94.5H77L76.9998 86C77 80 80 75.9998 87 75.9998H96V74.9998H87C80 74.9998 76.9998 72 76.9998 65L77 56H76L75.9998 65.0002C75.9998 72 73 74.9998 65.9998 74.9998H63.9094C56.2598 74.961 53.5226 70.0004 52.2788 61.17C51.9013 47.117 62.3675 36.9381 67.9971 36C63.1121 33.2512 56.8562 32.9652 52.0434 34.6176C62.4427 -50.5831 184.002 143.212 10.5009 93C7.49914 115 14.5 143 40 143C65.5 143 135 142.5 135 142.5C140.5 130.5 146 107.5 123 87H120.5C125 112 98.5 137 39 139.5C40.8583 133.534 43.9073 128.334 47.8109 123.721C57.9254 113.281 71.1391 112.794 77.7129 112.551C78.176 112.534 78.6063 112.518 79.0001 112.5C76.9053 110.376 72.8539 108.154 68.1449 107.414C76.987 102.199 86.7836 97.8258 96.2319 93.6084C120.335 82.8494 142.171 73.1025 140.108 52.9649C140.807 43.5533 135.105 31.351 130.636 21.7889L130.636 21.7888L130.636 21.7887C127.74 15.59 125.361 10.5008 125.582 8.0005C123.384 9.65301 121.826 14.0188 121.182 18.8265C117.93 15.1043 114.214 11.1683 110 7Z" fill="black"/>
</svg>
