<svg width="150" height="150" viewBox="0 0 150 150" fill="none" xmlns="http://www.w3.org/2000/svg">
<path fill-rule="evenodd" clip-rule="evenodd" d="M140.471 49.4969C149.491 70.2897 132.774 75.5007 104.502 75.5007V76.5007C141.107 78.5168 154.002 95.5003 130.002 125.5C101.502 161.125 23.5017 134.001 13.0017 122.5L29.5017 85.0003C37.0366 91.4208 44.0041 97.1346 50.4378 102.199C50.6729 96.449 51.9177 91.3228 53.0014 88.9995L53.1057 89.2452C55.4936 94.8726 61.8325 109.811 76.7682 121.363C122.121 151.056 125.405 131.711 114.088 109.844C112.302 113.017 110.155 115.765 108.001 117.499C108.863 103.291 101.196 91.2914 94.8988 85.053C90.6429 81.3475 86.2079 78.4954 81.9206 77.0497C79.2298 76.3066 77.0093 76.6464 74.7124 78.4109C72.8547 80.1698 72.0016 82.8006 72.0015 86L72.0017 99H71.0017L71.0015 86C71.0015 79 68.0017 75.9998 61.0015 75.9998H48.5017V74.9998H61.0015C68.0017 74.9998 71.0015 72 71.0015 65.0002L71.0017 52H72.0017L72.0015 65C72.0015 66.6293 72.1641 68.0419 72.5017 69.2504V69C73.6672 73.6619 77.8512 75.0034 83.6465 74.6663C104.238 72.7255 108.134 62.5916 103.908 51.0089C98.985 43.0343 92.5306 37.42 81.0025 35.4992C84.3342 33.2781 87.4319 31.7902 90.3202 31.0085C68.1112 8.11403 32.0113 -4.4476 58.5017 53.5001H16.5017C14.7225 45.2714 15.4659 38.3038 18.3137 32.4656C13.2675 31.0504 8.82535 28.8555 7 26.9994C14.3637 26.018 20.5221 23.1091 27.1311 19.9873C33.242 17.1008 39.7382 14.0324 47.9284 12.1376C63.8812 7.62132 84.6048 6.18219 107.502 7.00013C112.426 12.0579 116.784 16.7574 120.607 21.1225C122.64 16.1271 125.7 11.7295 128.001 9.99934C127.428 16.4996 133.499 33.4993 140.5 49.5L140.471 49.4969Z" fill="black"/>
</svg>
