<svg width="150" height="150" viewBox="0 0 150 150" fill="none" xmlns="http://www.w3.org/2000/svg">
<path fill-rule="evenodd" clip-rule="evenodd" d="M117.777 7.94481C123.936 7.93501 129.528 7.9261 134 7.50024C133.118 9.10334 130.323 11.5528 126.614 14.0824C132.31 16.2818 137.806 19.1006 142.998 22.5001L118.637 47.0002C108.486 41.5864 97.5467 37.2666 87.0467 34.3571C88.5025 37.728 89.3036 41.0704 89.4258 43.6722C82.5366 37.3568 73.8864 29.7762 54.9706 30.3477C36.643 31.8982 28.013 42.8432 44.137 67.0607C127.044 30.2251 150.008 64.0076 136.971 95.9995L137 96.0001C133.925 104.276 128.509 112.646 124.057 119.526C120.542 124.958 117.627 129.461 116.94 132.257C115.915 130.749 115.182 127.406 114.859 123.31C114.294 123.714 113.72 124.111 113.139 124.5C69.5515 153.699 -9.36695 153.109 10.0068 83.9987L10.0001 84L10.1096 83.6346C10.3112 82.9256 10.5231 82.2094 10.7454 81.4859C15.3387 65.7868 17.4743 54.3235 15.1015 45.2989C17.7064 46.8315 20.7674 49.6374 23.318 53.165C42.0464 21.8058 70.0873 8.09881 97.5852 8.4318C104.515 7.96593 111.446 7.95489 117.777 7.94481ZM95.3513 105.283C80.0968 120.74 60.0116 134.344 40.9983 137C21.4367 139.733 23.1802 125.959 34.7618 108.883C35.0099 113.664 35.7924 117.662 36.9423 119.353C38.3332 113.693 43.6719 97.4374 54.4185 85.9042C69.2758 71.454 87.4687 58.6586 102.499 55.0007C124.518 49.6418 124.581 64.3556 113.309 82.7768C112.994 78.5973 112.255 75.1771 111.214 73.6468C109.894 79.0167 105.022 93.9207 95.3513 105.283ZM95 96.5001H86C79 96.5001 76 100.5 75.9998 106.5L76 117.5H75L74.9998 106.5C74.9998 99.5003 72 96.5001 64.9998 96.5001H56V95.5001H64.9998C72 95.5001 74.9998 92.5003 74.9998 85.5005L75 74.0001H76L75.9998 85.5003C75.9998 92.5003 79 95.5001 86 95.5001H95V96.5001Z" fill="black"/>
</svg>
