<svg width="150" height="150" viewBox="0 0 150 150" fill="none" xmlns="http://www.w3.org/2000/svg">
<path fill-rule="evenodd" clip-rule="evenodd" d="M114.125 61.3502C127.8 60.6143 135.594 60.1949 125.551 46.5846C115.636 34.8508 100.845 30.1292 86.9987 31.5751C91.6686 27.3071 97.9068 24.7807 103.99 23.8668C89.9642 14.1893 79.2178 23.0513 68.4787 31.9075C61.9178 37.318 55.3595 42.7263 48.0578 43.9035L47.9981 44.0005C39.8464 45.0193 34.6581 42.8944 29.4903 40.7778C24.5159 38.7405 19.5606 36.711 11.9998 37.5004C15.2331 34.5455 19.2364 32.3071 23.4267 30.8148C18.6843 25.1464 13.5729 17.383 8 7L143 20.9998V53.5C141.763 55.4581 138.742 57.565 134.874 60.2628C132.296 62.0603 129.342 64.1201 126.29 66.5731C116.569 75.7353 109.501 87.7813 109.501 100.5C108.049 98.5341 106.879 96.3624 105.974 94.083C101.746 106.062 100.63 121.837 106 143H52.5016C51.8858 133.697 51.9486 125.47 52.5779 118.192C50.1812 120.541 47.6479 123.389 44.9997 127C44.9997 98.1945 63.7445 80.2417 70.856 74.6124C84.0744 62.9673 101.576 62.0255 114.125 61.3502ZM58 73.5H49C42 73.5 39 77.5002 38.9998 83.5002L39 94.5H38L37.9998 83.5002C37.9998 76.5002 35 73.5 27.9998 73.5H19V72.5H27.9998C35 72.5 37.9998 69.5002 37.9998 62.5005L38 51H39L38.9998 62.5002C38.9998 69.5002 42 72.5 49 72.5H58V73.5Z" fill="black"/>
</svg>
