<svg width="150" height="150" viewBox="0 0 150 150" fill="none" xmlns="http://www.w3.org/2000/svg">
<path fill-rule="evenodd" clip-rule="evenodd" d="M112.188 11.1718C86.7388 7.10087 70.2072 8.19915 47.984 11.7171L48.28 11.8157C33.3921 14.0249 23.7555 21.2916 18.1332 35.9942C16.5076 32.1946 13.9658 27.8992 9.83203 23.3253C10.3715 33.8906 9.46279 44.2794 8.59815 54.1646L8.59814 54.1646C7.68749 64.576 6.8257 74.4286 7.75608 83.3407C8.14949 103.251 20.7799 107.608 48.2308 93.3285C15.4884 120.665 30.1828 130.911 50.9528 135.706C50.2307 135.929 49.5016 136.145 48.755 136.365L48.7543 136.366C45.6324 137.289 42.2061 138.302 37.7205 140.292C63.17 144.363 79.7016 143.265 101.925 139.747L101.63 139.649C116.517 137.439 126.154 130.173 131.776 115.471C133.402 119.27 135.943 123.565 140.077 128.139C139.537 117.573 140.446 107.185 141.311 97.2998V97.2996V97.2994V97.2992V97.2991C142.221 86.8903 143.083 77.0399 142.153 68.1295C141.762 48.2145 129.132 43.8547 101.679 58.1358C134.421 30.7988 119.726 20.5534 98.9558 15.7578C99.6781 15.5351 100.407 15.3194 101.154 15.0986L101.154 15.0985L101.155 15.0985C104.276 14.1753 107.703 13.1621 112.188 11.1718ZM92.2093 25.3207C91.5241 -1.86232 37.731 28.4951 13.7318 61.5192C4.877 73.7038 17.2477 77.4534 33.4299 77.6329C30.6822 74.5969 28.8585 71.1535 28.3586 67.9953L28.7398 68.2302C35.6497 72.4903 45.2708 78.4219 67.3386 74.3751C68.8165 74.095 70.1819 73.8132 71.4084 73.5371C81.2913 71.3125 87.0309 65.1191 89.9095 54.2978C86.4592 55.4112 82.9955 55.7916 80.2317 55.533C86.7815 50.5327 91.4486 41.5211 92.2807 30.4516C92.2779 28.7924 92.2537 27.0824 92.2093 25.3207ZM57.7001 126.143C58.3853 153.326 112.178 122.969 136.178 89.9448C145.032 77.7601 132.662 74.0106 116.479 73.8311C119.227 76.8671 121.05 80.3105 121.55 83.4685L121.169 83.2336C114.265 78.9769 104.653 73.0513 82.6225 77.0792C81.1247 77.3625 79.7418 77.6477 78.501 77.927C68.6182 80.1515 62.8786 86.3448 60 97.1658C63.4501 96.0526 66.9135 95.6722 69.6772 95.9309C63.1288 100.93 58.4622 109.939 57.6287 121.005C57.6314 122.667 57.6557 124.379 57.7001 126.143ZM57.0015 62.0391V68.0001H58.0015V62.0391C58.0015 52.0391 61.5015 51.0391 72.0015 51.0391H75.0015V50.0391H71.5015C59.0015 50.0391 58.0015 46.0391 58.0015 40.0391V31.0001H57.0015V40.0391C57.0015 48.0391 53.0015 50.0391 44.0015 50.0391H40.0015V51.0391H44.0015C53.0015 51.0391 57.0015 52.0391 57.0015 62.0391ZM94.0015 83.8887V89.8497C94.0015 99.8497 98.0015 100.85 107.002 100.85H111.002V101.85H107.002C98.0015 101.85 94.0015 103.85 94.0015 111.85V120.889H93.0016V111.85C93.0016 105.85 92.0016 101.85 79.5016 101.85H76.0015V100.85H79.0016C89.5016 100.85 93.0016 99.8497 93.0016 89.8497V83.8887H94.0015Z" fill="black"/>
</svg>
