<svg width="150" height="150" viewBox="0 0 150 150" fill="none" xmlns="http://www.w3.org/2000/svg">
<path fill-rule="evenodd" clip-rule="evenodd" d="M22.7374 142.991H59.3504C85.8509 144.69 108.158 135.575 123.262 115.843C125.652 121.541 129.987 125.868 138.298 129.392C131.204 118.728 134.21 106.585 137.685 92.5434L137.685 92.5432C139.945 83.4137 142.404 73.4818 142.414 62.6324C143.471 30.616 120.398 7 78.9387 7H46.7974H30.06C41.6264 13.245 43.3659 16.8081 42.9309 23.2143L34.4131 58.2916C32.9096 55.4575 29.8046 52.7367 23.2732 50.9474C29.7633 62.8363 27.6049 77.1064 24.4856 97.7292C24.297 98.9764 24.1048 100.247 23.9109 101.541L18.0339 125.743L18.03 125.731C15.4148 136.715 13.703 140.974 7 140.899V142.991H13.8456H22.7374ZM99.3352 93.1864C99.2215 93.3722 99.1076 93.5577 98.9935 93.7427C87.4105 109.127 70.4575 121.745 60.0331 120.923C63.2803 123.802 67.5997 125.584 71.9447 126.574C57.8435 138.927 44.1083 144.141 35.4521 138.846C35.012 138.577 34.5901 138.284 34.1864 137.967C27.0953 131.622 34.3843 116.792 37.3802 115.793C33.346 115.172 29.7232 117.229 27.2697 119.601C27.0969 109.171 30.2296 95.8227 36.3595 81.6271C45.4912 61.7754 57.0419 51.2631 67.196 49.3827C63.4418 47.5056 59.755 47.041 56.4256 47.362C75.7847 21.843 98.524 7.95253 110.893 15.5187C115.5 18.3369 118.112 23.7914 118.858 31.0184C118.293 45.7692 110.34 60.4014 101.834 66.9568C105.666 66.919 109.523 66.2011 113.025 65.1043C109.737 74.1354 105.145 83.6888 99.3352 93.1864ZM96.5 76.5H87.5C77.5 76.5 76.5 80.5 76.5 89.5V105.5H75.5V89.5C75.5 80.5 73.5 76.5 65.5 76.5H54V75.5H65.5C71.5 75.5 75.5 74.5 75.5 62V44H76.5V61.5C76.5 72 77.5 75.5 87.5 75.5H96.5V76.5Z" fill="black"/>
</svg>
