<svg width="150" height="150" viewBox="0 0 150 150" fill="none" xmlns="http://www.w3.org/2000/svg">
<path fill-rule="evenodd" clip-rule="evenodd" d="M51.4318 12.4239C74.1296 19.1445 105.325 28.3812 137 15.4998C135.501 22.5 121.501 31.9999 113.001 31.9999C132.501 36.4999 141.067 60.1904 142.213 68.9999C130.72 68.9999 120.826 67.0917 112.273 64.0064C114.94 67.7909 117.471 72.3154 116.998 75.4997C103.999 67.4999 93.998 59.5 76.4983 38.9996L76.5835 39.0529C72.8269 34.8815 69.6822 30.8493 66.992 27.3999L66.992 27.3998C59.0493 17.2157 55.0683 12.1113 50.9997 23.4999C49.0655 28.9142 47.5298 35.5772 46.8799 42.2665C48.9843 41.437 51.6421 41.0002 54.9981 41.0002C49.9186 45.3539 46.4191 49.1811 46.9823 55.9205C47.2142 57.6385 47.5424 59.2913 47.9777 60.8521C48.3562 62.1026 48.842 63.4386 49.4441 64.8724C51.9674 70.2793 56.31 73.8718 63.1309 73.9966C71.6872 73.9019 75.5 71.8106 75.5 64V55H76.5V64C76.5 70 77.5 74 90 74H94.5V75H90.5C80 75 76.5 76 76.5 86V93H75.5V86C75.5 76.4377 71.8425 75.1048 63.6531 75.0064C22.9789 75.2149 34.6606 80.5131 54.8096 89.6517C62.9781 93.3565 72.5383 97.6925 80.5658 102.576C91.0798 107.871 105.151 118.215 105.151 126.5C105.151 132.708 98.8779 136.745 89.6493 139C90.7259 137.493 91.3581 135.848 91.6263 134.103C88.4798 136.995 84.0195 139.963 77.9992 143H14L26.7874 114.501C60.3073 167.938 44.9326 117.098 27.9888 66.4392C26.5813 71.8951 24.5716 76.8773 21.9333 79.2939C21.6588 71.2775 20.4611 62.9827 19.2546 54.6267C17.5958 43.1388 15.9204 31.5351 16.6042 20.3798C16.3787 2.04489 30.1811 6.13168 51.4318 12.4239Z" fill="black"/>
</svg>
