<svg width="150" height="150" viewBox="0 0 150 150" fill="none" xmlns="http://www.w3.org/2000/svg">
<path fill-rule="evenodd" clip-rule="evenodd" d="M142.999 31.5002C63.5 -29.5 -7.56734 35.6064 9.99986 93.4998C13.4025 104.713 18.2624 113.594 24.0918 120.548C18.762 120.634 13.8021 121.379 10.9548 123.247C18.1814 125.347 23.5447 128.028 28.8983 130.704C35.9342 134.221 42.9532 137.73 54.1628 139.9C84.7215 148.753 119.471 136.066 126.916 128L127.001 79.9999H91.5009H85.4269C72.9961 79.9844 72 75.9883 72 70L72 48.5H71V70C71 78 67 80 58 80L51 80V81L58 81C67 81 71 82 71 92L71 111H72V92C72 82.61 75.086 81.1555 84.1558 81.013C91.8596 81.2881 96.0037 85.9062 96.5694 93.4805C96.9558 109.44 85.2049 116.633 75.5 121C79.6969 123.098 84.7349 123.129 88.4691 121.897C87.8485 123.082 87.1924 124.284 86.5009 125.5C72.8405 149.523 61.9183 144.02 49.3797 111.458C42.0506 86.6558 42.5647 64.6008 44.9995 49.9998C40.5019 54.9466 37.0964 59.4596 34.7649 63.6238C25.4751 22.7937 35.5804 15.1479 54.7092 23.1904C71.6508 31.9475 84.3186 50.168 87 60C88.0724 54.638 88.5413 49.284 88.3546 44.4407C98.8176 52.342 109.938 61.431 121.001 70.5001C124.001 57.5001 124.001 41.5001 121.001 31.5002C125.501 33.0001 133.5 34.0001 142.999 31.5002Z" fill="black"/>
</svg>
