<svg width="150" height="150" viewBox="0 0 150 150" fill="none" xmlns="http://www.w3.org/2000/svg">
<path fill-rule="evenodd" clip-rule="evenodd" d="M44.0016 143H18.0016C19.3925 134.64 20.0849 126.502 20.5895 118.932C18.2287 119.889 15.4101 120.468 12.0039 120.5C19.4908 110.998 20.6765 104.812 21.9587 98.1231C22.043 97.6837 22.1276 97.2422 22.2145 96.7974C23.7679 83.5501 27.1382 75 38.0035 75V73.9697C32.2746 73.9697 30.35 69.8844 30.5458 63.3764C30.2824 58.8957 30.5372 51.996 30.8169 44.4227C31.2835 31.7877 31.8193 17.278 30.1338 9.00022C34.5954 13.5692 38.0472 17.7782 40.5075 21.7006C41.8667 16.6905 43.1015 11.7211 44.0016 7H76.0016L71.5035 29.1515C70.4241 33.8992 68.9746 38.1446 67.2955 41.941C71.983 41.4014 78.1389 42.8218 86.5031 47.9996C70.4656 45.8324 66.4524 49.6774 57.5247 58.2313C56.1538 59.5447 54.667 60.9692 53.0031 62.5L53.0076 62.4106C50.3191 65.0444 47.8368 67.0809 45.9178 68.6553C43.4076 70.7146 41.8611 71.9834 42.0773 72.764C42.3848 73.8746 46.2595 73.9975 56.0016 74.0037V74H64.0016L67.0016 74C72.0016 74 76.0016 72 76.0016 64V55H77.0016V64C77.0016 70 78.5016 74 87.0016 74H87.0168C97.8207 73.9892 99.2348 62.5327 100.643 46.3279C100.57 34.8682 97.3911 24.3796 92.0007 15.5003C96.8231 17.2865 100.541 19.693 103.358 22.3969C104.223 17.3463 105.38 12.1728 107.002 7H133.002C131.665 15.0332 130.97 22.8107 130.464 30.0479C132.814 29.1029 135.617 28.5322 138.999 28.5004C131.512 38.0025 130.327 44.188 129.044 50.8769L129.043 50.8855C128.979 51.2194 128.914 51.5546 128.849 51.8915C127.318 65.3447 124.017 73.9697 112.923 73.9697V75C118.721 75 120.631 79.2966 120.393 86.0918C120.764 90.9884 120.482 98.3226 120.178 106.241C119.714 118.33 119.198 131.781 120.872 140C116.511 135.535 113.116 131.413 110.667 127.568C109.242 132.848 107.941 138.074 107.002 143H75.0016L79.4234 119.818C80.4991 115.087 81.943 110.855 83.6162 107.069C78.9401 107.58 72.8099 106.145 64.5 101C80.5375 103.168 84.5507 99.3226 93.4785 90.7687C94.8493 89.4553 96.3361 88.0308 98 86.5L97.9995 86.5107C100.683 83.8946 103.158 81.8717 105.073 80.3079C107.578 78.2613 109.12 77.0008 108.906 76.2255C108.601 75.1212 104.732 75.0012 95.0016 74.996V75H87.2015H87.0016C81.0016 75 77.0016 76 77.0016 86V93H76.0016V86C76.0016 76 72.0016 75 67.0016 75L64.0016 75C53.1992 75 51.773 86.7681 50.366 103.228C50.5368 114.471 53.6993 124.764 59.0025 133.5C54.2565 131.742 50.5803 129.383 47.7798 126.732C46.9014 132.08 45.7095 137.553 44.0016 143Z" fill="black"/>
</svg>
