<svg width="150" height="150" viewBox="0 0 150 150" fill="none" xmlns="http://www.w3.org/2000/svg">
<path fill-rule="evenodd" clip-rule="evenodd" d="M137 7C137 7 136.171 11.6669 134.316 22.0227C130.817 27.2945 123.626 32.0744 117.889 35.8874C117.238 36.3201 116.605 36.7403 115.999 37.1474C119.968 37.1585 126.41 36.1353 132.129 34.2179C130.327 44.2523 127.982 57.2815 125.026 73.6634C130.899 70.3759 138.433 67.6275 142.499 68.7665C137.897 71.0576 132.039 82.9424 125.773 95.6539L125.773 95.654C120.698 105.949 115.357 116.786 110.199 123.508C82.7446 161.815 19.7858 132.759 13 127.495L21.0013 77.9657H40.5004H51.4157C62.1045 77.5647 63 73.6778 63 68V59H64V68C64 76 68 77.9999 77 78L80.5039 78V79L77 79C68 79 64 80 64 90V97H63V90C63 80.0159 59.5112 79.0032 49.0501 79C49.0334 79 49.0167 79 49 79L48 79C38.2117 79 37.3971 85.8749 39.9198 95.5706C43.7738 105.322 54.4524 112.432 60.3047 112.88C56.8048 114.87 51.1336 115.268 46.6889 114.785C47.1271 115.916 47.5654 117.051 47.9987 118.187C58.2613 145.078 68.4641 158.524 80.998 95.9491C82.0437 90.7286 82.9778 86.077 83.8119 81.9339C83.7456 81.9574 83.679 81.9795 83.6122 82C87.7403 59.4762 85.3838 35.3914 80 27C83.7402 28.1029 88.1279 32.9654 91.3616 37.9803C90.107 20.6055 76.8643 13.2875 67.5724 8.15288C66.8557 7.7568 66.1624 7.37371 65.5 7H137Z" fill="black"/>
</svg>
