<svg width="150" height="150" viewBox="0 0 150 150" fill="none" xmlns="http://www.w3.org/2000/svg">
<path fill-rule="evenodd" clip-rule="evenodd" d="M46.607 33.6541C38.6061 21.9194 25.2712 8.60018 13.0032 7C10.8703 23.5352 13.2007 41.1216 18.8705 53.9231C19.8052 56.0335 21.5028 59.3552 23.653 63.4217C18.2618 61.6627 11.2525 60.9428 7 63C21.9345 73.5331 34.8687 86.9922 44.7597 103.272C54.724 123.277 57.7925 134.089 30.0718 99.795L14.5015 143H36.904C51.9114 143 59.7676 122.708 55.1411 78.4592C54.9945 77.0569 55.1049 75.6546 56.9294 75.3292C64.9784 75.6895 67.4116 77.6916 67.4116 86.9935V99.795H68.4784L68.4784 86.9935C68.4784 77.1651 72.1004 75.4862 80.1786 75.2828H80.214C90.0369 75.2828 97.3458 81.9577 102.219 91.0399C106.911 101.624 106.404 114.603 98.8814 123.264C103.45 122.88 106.937 121.015 109.531 118.563C110.772 142.643 98.1189 158.077 72.6923 104.062V143H120.698C128.606 131.227 133.434 121.336 135.789 113.062C137.944 114.552 140.382 115.906 142.999 117C142.939 116.073 142.886 115.159 142.834 114.257L142.834 114.256C142.21 103.465 141.687 94.418 131.127 85.205C123.119 77.1468 108.547 74.2566 92.8078 74.1764C94.7855 72.7419 96.6437 69.9631 98.3996 66.3337C100.708 62.6199 102.33 59.3525 103.83 56.3328C107.485 48.9715 110.41 43.0821 120.753 35.7868C115.692 34.6626 111.499 35.451 108.208 37.0019C108.359 36.4621 108.509 35.9242 108.658 35.3891C115.551 10.6594 120.858 -8.37685 126.674 38.4543L141.14 7H83C67.7342 14.6329 75.2245 33.0492 81.5796 48.6744C87.034 62.0852 91.6522 73.4399 80.3291 74.1563C72.1454 73.8465 68.4784 71.4355 68.4784 63.5242V48.5891H67.4116V63.5242C67.4116 69.9249 66.3449 74.1921 53.01 74.1921L52.4766 74.1921L42.8733 74.1921V73.1253C60.4718 73.1253 55.6126 63.528 52.0156 56.4235C49.6165 51.685 47.7788 48.0554 53.5412 49.1225C73.141 52.7521 53.9341 18.7347 47 7C43.2662 12.3339 42.8733 25.1197 46.607 33.6541Z" fill="black"/>
</svg>
