<svg width="150" height="150" viewBox="0 0 150 150" fill="none" xmlns="http://www.w3.org/2000/svg">
<path fill-rule="evenodd" clip-rule="evenodd" d="M68 18.1562C56.2434 45.566 47.2071 67.5729 41.3567 84.9803C43.8061 84.3779 46.6765 84 50 84C43.166 89.9825 38.35 97.2582 35.5518 105.23C29.885 131.003 36.4959 141.385 58.5952 141.916C62.4123 141.506 65.099 139.662 67.7291 137.857C70.5723 135.906 73.3493 134 77.4167 134C81.8825 134 85.391 136.298 88.6476 138.43C91.468 140.277 94.0994 142 97 142L98.5 142H114.48C119.284 141.941 121.307 141.728 121.477 141.049C121.631 140.437 120.28 139.448 118.103 137.855C117.503 137.416 116.84 136.93 116.129 136.394C110.4 132.442 105.455 129.604 100.103 126.532L100.102 126.532C96.5133 124.472 92.7409 122.307 88.4259 119.63C92.4066 117.892 96.1787 117.096 99.3416 116.878C96.262 110.607 94.0949 102.776 94 93L129 112.5L139 143H126H97H94H60.4286H57H25H15L15.505 7L68 18.1562ZM78 87V97H77V87C77 77 74 76 63.5 76L57 76V75L63.5 75C76 75 77 71 77 65V53H78V65C78 73 82 75 91 75L98 75V76L91 76C82 76 78 77 78 87Z" fill="black"/>
</svg>
