<svg width="150" height="150" viewBox="0 0 150 150" fill="none" xmlns="http://www.w3.org/2000/svg">
<path fill-rule="evenodd" clip-rule="evenodd" d="M142.999 143C142.999 143 140.999 36.0015 131.999 13.0001C95.3835 -0.730718 79.5428 9.42979 74.1044 43.77C71.7789 33.8381 68.6496 23.6625 64.4972 13.4993L57.9972 13.4993C57.4505 13.9273 56.8902 14.3631 56.3178 14.8083C38.0607 29.0078 7.43296 52.8285 9.9992 143H30.9992C30.9992 143 30.4673 132.995 30.1207 119.035C31.0415 101.642 35.9878 83.6306 40.3192 78.0002C35.811 79.1272 32.4633 80.6932 29.9776 82.4627C30.6501 52.1249 33.828 24.1901 43.9964 36.5C51.7949 45.9408 56.9818 57.7404 59.5326 71.5876L58.9517 69.4709C61.4517 92.4709 53.451 111.471 48.4508 117.971C53.8419 116.623 57.5734 114.648 60.1559 112.447C58.9879 122.091 56.9838 132.294 54.1393 143L75.9957 143C75.9957 143 75.9966 142.996 75.9984 142.988L75.9992 143C83.8439 131.439 82.8242 101.009 81.8787 72.7934C80.7666 39.6071 79.7572 9.48594 93.3953 16.7397C100.32 20.681 102.643 32.7228 103.499 40.0001C105.417 36.9638 106.568 33.6165 107.165 30.387C122.824 50.1681 129.652 67.4576 131.088 82.0448C132.293 113.804 113.978 121.666 107.498 123.5C109.939 125.171 112.487 126.207 114.94 126.765C107.57 133.837 99.5307 137.5 94.9964 137.5L94.9963 143H142.999ZM106.999 87.5001V106.5H107.999V87.5001C107.999 77.5001 111.499 76.5001 121.999 76.5001H125.999V75.5001H121.499C108.999 75.5001 107.999 71.5001 107.999 65.5001L107.999 44.0001H106.999V65.5001C106.999 73.5001 102.999 75.5001 93.9992 75.5001L86.9992 75.5001V76.5001L93.9992 76.5001C102.999 76.5001 106.999 77.5001 106.999 87.5001Z" fill="black"/>
</svg>
