<svg width="150" height="150" viewBox="0 0 150 150" fill="none" xmlns="http://www.w3.org/2000/svg">
<path fill-rule="evenodd" clip-rule="evenodd" d="M24.0003 10.5C33.4881 10.2363 50.1317 25.8019 68.6749 43.1442C85.0068 58.4183 102.812 75.0706 118.5 83.5C133.822 91.7327 136.279 76.4314 128.215 57.7843C117.37 35.1886 94.7932 29 86.4986 29C90.2396 25.2592 94.5938 23.1441 98.9627 22.1523C87.9835 14.7235 74.5512 10.0431 59.0015 11V7H137.001C146.423 42.7349 141.702 67.7051 136.553 94.9389C133.777 109.621 130.877 124.961 130.002 143H124.001C114.832 143 105.105 130.57 95.4343 113.784C93.8935 117.403 92.2973 121.32 91.0001 125.5C86.6753 118.632 84.6805 110.598 82.1838 100.544C80.0521 91.96 77.5546 81.9024 72.9286 69.8388C57.4394 38.4699 43.4862 12.8366 34.0015 31.5C18.5015 62 24.0003 138 87.0015 138V143H15.0015C11.3566 129.763 13.0846 118.44 15.2155 106.376C13.0307 107.594 10.3324 108.667 7 109.5C11.6786 103.418 18.9841 86.3926 17.8566 65.3863C16.6292 55.5433 13.7166 44.4468 8.0015 31.5L24.0003 10.5ZM63.0015 76.5H72.0015V75.5H63.0015C53.0015 75.5 52.0015 72 52.0015 61.5V44H51.0015V62C51.0015 74.5 47.0015 75.5 41.0015 75.5H33.0015V76.5H41.0015C49.0015 76.5 51.0015 80.5 51.0015 89.5V106.5H52.0015V89.5C52.0015 80.5 53.0015 76.5 63.0015 76.5Z" fill="black"/>
</svg>
