<svg width="150" height="150" viewBox="0 0 150 150" fill="none" xmlns="http://www.w3.org/2000/svg">
<path fill-rule="evenodd" clip-rule="evenodd" d="M6 50.7576C10.5176 48.0241 14.8579 45.454 19.0263 43.0406C18.7151 46.2361 19.029 49.735 20.6548 53.0687C22.2712 46.9677 25.4373 40.5574 31.5017 36.5041C41.6617 31.2567 41.9347 55.5091 41.9233 64.3001C41.3432 74.1545 37.5171 75.0001 32 75.0001H21V76.0001H32C40 76.0001 42 80.0001 42 89.0001V90.4848L41.9636 90.5571C41.9636 91.7261 41.9642 92.9017 41.9649 94.0804C41.9828 127.129 42.0021 162.616 27.9918 121.4L14 133.229C14 133.229 22.8096 143 49.2386 143C88.3074 143 80.3412 132.955 66.5381 119.819C72.4335 118.906 80.6054 117.048 82.148 115.751C81.3958 115.63 80.5596 115.513 79.6523 115.386L79.6521 115.386C71.4053 114.233 57.2869 112.258 47.0248 99.3041C44.5904 95.6895 43.0361 92.0927 43.0006 88.6214C43.0301 79.8878 44.1414 76.0001 54 76.0001H63V76H76.5C89.9688 76 109.088 79.4884 122.039 89.3311C120.66 82.7822 116.57 77.3309 112.282 73.533C149.272 61.2195 168.601 7 77 7H12.6102C15.2069 10.6061 20.0215 13.6667 25.214 15.2121C18.1045 22.5024 12.7506 32.7273 6 50.7576ZM56.3703 75.0001V74.9697C64.9342 74.9697 75.3676 69.0143 84.7289 60.733C95.2397 48.394 97.2082 35.1083 92.6507 31C97.1908 31.9208 101.051 34.8294 103.398 38.6404C115.55 18.5186 113.115 0.676548 69.7898 17.5699L70 17.5C46.3403 26.2921 43.3542 50.2554 43.0003 61.3273C43.0219 71.5729 44.1046 75.0001 54 75.0001H56.3703Z" fill="black"/>
</svg>
