<svg width="150" height="150" viewBox="0 0 150 150" fill="none" xmlns="http://www.w3.org/2000/svg">
<path fill-rule="evenodd" clip-rule="evenodd" d="M131.352 88.815C130.576 90.6394 129.727 92.4788 128.801 94.3311C123.24 104.17 117.245 104.414 105.658 104.888C104.803 104.923 103.918 104.959 103 105V106.5C104.924 106.66 106.655 106.793 108.25 106.912C111.424 106.842 115.557 107.177 119.864 107.874C120.107 107.901 120.351 107.929 120.597 107.958C120.588 107.97 120.58 107.981 120.572 107.992C132.468 110.019 145.357 114.767 142.902 121.326C140.042 130.252 121.429 140.501 114.002 141.992C115.953 139.224 117.724 136.757 119.334 134.591C110.96 137.273 100.027 140.086 85.9988 143C108.978 131.265 156.343 91.7995 103.255 124.658C102.177 125.375 101.087 126.053 99.9868 126.694C99.8246 126.795 99.6615 126.897 99.4977 127C99.4985 126.991 99.4994 126.983 99.5002 126.974C87.8548 133.623 75.0604 136.169 62.9558 135.991L63 136C56.376 136.427 48.291 135.394 40.0718 134.343C29.0581 132.935 17.8034 131.496 9.5 133.5C10.951 128.663 17.1442 124.855 22.9169 122.711C9.36324 109.414 2.03907 84.0609 10.8232 58.7725C16.439 37.3617 19.722 31.7132 31.5 16.5C31.5 20.0903 31.4893 23.8805 31.4024 27.5697C51.6415 8.23126 74.7313 4.89528 93.3307 8.03107C99.6258 8.66652 108.831 12.0609 118.171 15.5052L118.172 15.5052C127.453 18.9278 136.868 22.3997 143.695 23.2629C139.349 25.6522 134.514 27.6886 129.847 28.6577C133.711 34.556 136.447 41.896 137.51 50.2733L137.527 50.2475C137.55 50.2144 137.572 50.1815 137.594 50.149C141 68.9554 140.124 89.5818 134.5 99.4999C133.517 95.5303 132.427 91.9897 131.352 88.815ZM64.9922 115.11C50.3107 126.574 36.5218 131.037 28.7495 125.358C17.1542 116.885 22.9976 88.7955 41.5109 60.4682L41.5 60.5C42.6515 58.761 43.7609 57.1232 44.8298 55.5822C45.3738 54.811 45.9269 54.0404 46.4892 53.2709C50.2908 48.0684 54.2644 43.2484 58.3036 38.876C71.8063 25.8852 72.9225 40.7682 73 50V55.5C73 68 69 69 63 69H52V70H63C71 70 73 74 73 83V83.5V93V108.235V110.5C73 120.561 73 124.069 72.3058 124.212C71.9341 124.289 71.3634 123.401 70.4873 122.038C69.3023 120.194 67.5585 117.482 64.9922 115.11ZM99.8878 74.8026C116.108 48.0724 120.752 22.4866 109.779 14.4683C103.27 9.71211 92.5415 12.0691 80.6029 19.6943C78.7849 17.7134 77.4674 15.6639 76.5127 14.1787L76.5127 14.1787C75.6366 12.8157 75.0659 11.9279 74.6942 12.0046C74.0323 12.1412 74.0015 15.3372 74.0001 24.3563L74 24.3564V46V47V55C74 65.5 75 69 85 69H94V70H85C75.575 70 74.1448 73.5532 74.0114 81.4969C74.1864 93.2223 76.0525 113.014 99.8878 74.8026Z" fill="black"/>
</svg>
