<svg width="150" height="150" viewBox="0 0 150 150" fill="none" xmlns="http://www.w3.org/2000/svg">
<path fill-rule="evenodd" clip-rule="evenodd" d="M134.5 22.9999C114.999 13.0002 71.0593 -2.17492 30.5595 11.9994C8.03605 19.8823 4.42834 42.8217 17.7268 66.7711C14.1596 65.1073 10.4756 63.9308 8.02734 64.3331C11.3362 67.1236 13.5472 70.4605 15.8943 74.0028C20.5902 81.09 25.8308 88.9995 41.4986 95L41.4269 94.888C41.4706 94.9253 41.5143 94.9626 41.558 94.9998C42.5018 88.8653 55.4699 77.3865 66.1728 76.1149C72.3706 76.8277 73.9995 80.8776 73.9995 88.9998V99H74.9995V88.9998C74.9995 80.1707 75.9619 76.1535 85.4394 76.0041C92.2143 76.1175 99.1266 78.8366 105.488 83.065C115.815 91.6089 115.812 104.182 115.811 111.809L115.811 112.069C117.457 108.139 119.313 102.707 120.116 96.4757C137.503 117.682 140.694 146.065 99.3385 133.294C75.4536 124.489 65.3273 104.622 62.3901 93.8525C60.7536 102.035 60.5225 110.199 61.8821 116.557C47.8345 108.89 31.3127 98.7056 11.9995 85.5V136H14.9995L16.9995 128C36.4998 138 80.4397 153.175 120.94 139.001C152.44 127.976 146.942 87.5002 109.941 56.0002C108.971 62.3064 95.2936 74.2603 84.433 74.9676C75.8927 74.5945 74.9995 70.9235 74.9995 60.9998V50H73.9995V61C73.9995 72.5824 70.5652 74.7203 65.2877 74.9718C61.4071 74.7947 57.4901 73.7787 53.6656 72.129C37.5012 63.9547 37.5012 48.7767 37.5012 40C35.7731 44.1249 33.8152 49.904 33.0851 56.5251C14.183 35.0963 9.45842 4.32963 52.5773 17.836C75.0123 26.989 84.6468 46.0307 87.4995 56.4907C89.1571 48.2026 89.3728 39.9336 87.9541 33.5405C102.356 41.3057 119.419 51.7697 139.499 65.5V15H136.499L134.5 22.9999Z" fill="black"/>
</svg>
