<svg width="150" height="150" viewBox="0 0 150 150" fill="none" xmlns="http://www.w3.org/2000/svg">
<path fill-rule="evenodd" clip-rule="evenodd" d="M37.2288 103.834C41.3988 116.029 44.9023 128.317 46.9999 143L73.9999 143C75.3278 139.806 76.7064 136.722 78.0852 133.638L78.0853 133.638L78.0854 133.638L78.0856 133.637L78.0857 133.637L78.0858 133.637L78.086 133.636C82.3222 124.161 86.5599 114.682 89.3328 101.996C93.8032 113.296 99.0863 126.939 105.121 143H126.001C128.562 136.84 129.885 125.882 130.762 112.316C132.973 98.4255 135.806 88.2642 138.004 80.3787C139.28 75.7989 140.343 71.9867 140.945 68.6576C137.777 69.8375 134.865 71.6402 132.504 73.855C133.461 51.1002 134.846 26.8683 138.777 7.00002L108 7.00003C107.615 11.0934 108.052 16.9079 109.02 23.786C105.321 21.7609 100.843 20.5008 96.4998 20.5007C99.5011 23.001 111 41.4995 115.001 57.001C115.091 56.8271 115.178 56.6529 115.263 56.4784C116.476 62.0174 117.743 67.6231 118.985 73.1173L118.985 73.1177C127.016 108.645 133.992 139.505 118.501 117.5C117.549 116.147 116.636 114.826 115.762 113.538C109.451 101.169 107.521 87.9385 109 83.0006C105.546 84.7281 103.397 87.3883 102.353 90.4172C89.2317 61.3876 107.777 61.3876 107.777 61.3876V60.0004L92.4727 60.0004V60H87.9726C75.4726 60 74.4726 56 74.4726 50L74.4727 28H73.4727V50C73.4727 58 69.4727 60 60.4727 60H56.2567C55.5727 60 56.4727 60 56.4727 60V61L60.4727 61C67.1986 61 71.132 61.5585 72.6904 66.0146C72.9182 67.7711 73.1832 69.7162 73.4721 71.8021C73.4725 71.8677 73.4727 71.9337 73.4727 72H73.4995C73.6763 73.2751 73.8618 74.6017 74.053 75.9692L74.0539 75.9754C78.0239 104.368 84.454 150.355 66.4999 117.5C65.4838 115.641 64.512 113.811 63.583 112.01C58.3679 99.5547 55.8889 90.8954 55.8889 67.8978C53.0659 70.5336 50.864 73.7912 49.5678 77.212C35.0585 24.1885 66.7772 8.38723 66.7772 8.38723V7L9 7.00003C12.6719 28.712 17.2103 45.7852 21.8991 60.4496C18.7328 59.0504 14.8552 58.071 9.99781 57.4998C15.2686 64.0856 28.6327 82.2396 37.2288 103.834Z" fill="black"/>
</svg>
