<svg width="150" height="150" viewBox="0 0 150 150" fill="none" xmlns="http://www.w3.org/2000/svg">
<path fill-rule="evenodd" clip-rule="evenodd" d="M59 77H60.0007H60.5H65.1049C72.8098 77.0339 74.8921 80.8313 74.9963 89.3033C74.9081 94.7615 72.4498 100.075 69.0089 105.104L69.0023 105C64.0007 112 56.5007 117 47.0008 117C49.6369 119.109 52.3591 120.499 55.3243 121.135C43.2036 134.266 37.146 143 79.9987 143C106.001 143 117.501 121.5 120.501 113L96.0007 111C76.4962 168.049 76.0124 130.948 76.0004 91.0483V89.9998C76.0004 80.9998 77.0004 76.9998 87.0004 76.9998H90.1809V77H91.6809C100.516 77 107.263 75.4586 112.372 72.8451C126.612 66.8843 129.99 58.497 132.633 51.9357C133.539 49.6852 134.359 47.6496 135.501 46.0004C132.249 46.0004 129.498 47.8066 126.808 50.0228C128.013 39.4278 125.629 27.9498 123.999 20.1021C121.25 6.87049 120.645 3.95897 143.001 33V7H103.181C80.094 7 86.4192 27.671 92.4788 46.3849C89.3669 45.8666 86.5399 46.242 83.5542 46.6815C91.8939 50.2643 97.6751 59.8028 97.7103 67.9339L97.7921 67.7812C97.8893 72.7767 95.9738 75.9687 90.2653 75.9998H87.0004C77.0004 75.9998 76.0004 72.4998 76.0004 61.9998V58H75.0004V62C75.0004 74.5 71.0004 75.9998 65.0004 75.9998H60.4157C52.7329 75.958 51.9203 70.1909 53.6384 62.0073C55.608 55.6121 60.4806 49.4143 66.8417 46.6815C63.9524 46.2562 61.2116 45.8909 58.2175 46.3375C64.2724 27.6361 70.5674 7 47.5 7H7V33C29.4749 3.80364 28.8635 6.90255 26.217 20.3153L26.217 20.3153L26.217 20.3153C24.7008 27.9997 22.5166 39.0694 23.6232 49.3909C21.1803 47.4732 18.6517 46.0004 15.7153 46.0004C16.8572 47.6496 17.6771 49.6852 18.5836 51.9356L18.5836 51.9357C21.0455 58.048 24.1457 65.7449 36.0699 71.5885C41.4146 74.9576 48.8295 77 59 77Z" fill="black"/>
</svg>
