<svg width="66" height="66" viewBox="0 0 66 66" fill="none" xmlns="http://www.w3.org/2000/svg">
<circle cx="33" cy="33" r="21" fill="#F04B09"/>
<path d="M57.891 27.6393C65.7082 29.3446 45.875 13.602 64 16.9998C64.6645 17.2387 64.8064 16.7732 64 16C52.1583 5.0869 50.8826 18.701 39.1112 15.3796C38.4475 15.1134 38.4719 15.29 39.1112 16.0914C50.2403 31.9859 40.2493 35.4683 39.1112 31.2741C38.0743 29.139 38.5006 23.9998 39.5006 19.9998C39.0173 20.4743 35.5173 22.5945 36.0006 28.9998L34.691 29.139C33.966 25.6596 34.2076 22.3382 35.416 19.8868C31.066 22.7337 31.5982 26.6579 32.7577 30.6417C34.2077 35.6237 22.4379 30.5225 26.9987 16.9998C27.4798 15.7175 27.341 15.492 26.4987 16.0909C20.457 22.1006 14.807 11.8334 1.99869 19.1879C1.17024 19.8451 1.50153 20.0931 2.49869 19.8868C18.932 16.4868 4.99869 40.4998 18.2577 29.139C26.9026 21.7316 16.8596 46.1102 25.4987 39.1878C34.1378 32.2655 32.9724 33.5663 35.6576 40.4998C40.4987 52.9998 38.4987 42.4998 39.1112 36.4998C39.7236 30.4998 57.891 45.9998 49.916 30.3252C46.6716 23.9485 49.191 25.7414 57.891 27.6393Z" fill="black"/>
<path d="M30.9792 52.5969C35.1945 53.7178 25.0882 44.9732 34.8773 47.2809C35.2552 47.396 35.2529 47.3099 34.8972 46.9084C28.7451 40.8487 27.4076 47.7123 21.0812 45.6298C20.684 45.5495 20.7523 45.6008 21.0613 46.0025C26.6853 54.6497 21.1393 56.1818 20.6361 53.9524C20.1304 52.8042 20.8598 49.4181 18.4997 48.0548C18.6553 49.0556 19.169 50.9157 19.015 52.5921L18.4995 52.4998C17.9995 50.9998 17.1065 48.9825 16.0278 48.6377C16.2407 50.0072 16.6682 51.3162 17.189 53.436C17.8402 56.087 11.5645 53.0726 14.4304 46.1249C14.6665 45.4727 14.6651 45.2644 14.1832 45.6344C10.7202 48.605 7.9265 43.0641 0.735664 46.5415C0.381208 46.8818 0.498543 47 0.988762 46.922C10.0457 45.621 0.909112 58.2529 8.45789 52.6909C13.3797 49.0644 9.03779 61.8789 13.8173 57.4953C16.5086 55.0269 17.4882 55.0472 18.6321 58.7968C19.6771 62.2219 20.4183 62.6192 20.4782 57.4848C20.5381 52.3505 30.4651 62.2108 26.555 53.7707C24.9642 50.3371 26.2879 51.3494 30.9792 52.5969Z" fill="black"/>
<path d="M61.1762 48.4126C64.4627 48.6165 56.2058 42.4762 63.8093 43.6761C64.3189 43.7565 64.3534 43.5562 63.7816 43.2313C58.2366 40.0798 56.9978 44.16 52.8492 44.0002C52.3972 44.0336 52.3551 44.1063 52.8492 44.3863C58.5471 46.261 54.0573 52.3654 53.0024 51.0002C52.2903 50.3756 52.1528 47.5813 52.1269 47.1647C51.7638 47.576 50.9342 48.5215 51.4981 50.9819C50.5024 50.5002 50.3264 48.2004 50.4732 47.4762C49.4581 48.3053 49.7661 50.2882 50.3264 51.8379C50.9319 53.513 44.2638 52.6789 46.0017 47.0002C46.0723 46.4552 45.6043 46.8721 45.6043 46.8721C42.5 49 40.2979 46.962 36.7483 52.4426C36.5141 52.8726 36.4926 52.9989 36.9539 52.7637C43.5 48.4126 40.9344 60.0549 44.3273 53.8425C46.5395 49.7919 46.3 60.2903 48.5816 56.4187C50.861 52.5508 50.9173 52.7283 51.8096 55.5417L51.8121 55.5496C52.8529 58.831 53.4793 56.137 53.3491 53.3626C53.2189 50.5882 61.447 55.7865 57.3601 50.6034C55.5912 48.3602 57.3712 48.1765 61.1762 48.4126Z" fill="black"/>
</svg>
