<svg width="66" height="66" viewBox="0 0 66 66" fill="none" xmlns="http://www.w3.org/2000/svg">
<g clip-path="url(#clip0_1741_5059)">
<path fill-rule="evenodd" clip-rule="evenodd" d="M53.0965 58.4219L45.6251 62.3387L39.5986 51.9005L24.6871 60.5097L21.6742 55.2913L29.7902 55.5755L38.7507 50.4021L38.7512 50.4017L32.7721 53.8538C22.77 40.8766 16.9556 31.908 14.6543 17.022L39.5131 44.1233L40.2501 43.4473L14.4031 15.2688C13.9281 11.6762 13.6438 7.7388 13.5417 3.32958L50.6638 43.524L42.231 48.3926L42.2311 48.3927L52.9002 42.2329L56.397 36.2381L58.9794 40.711L43.5561 49.6157L53.0965 58.4219Z" fill="black"/>
<path d="M14.4554 35C12.6607 39.6429 9.96861 48 14.4554 48C18.9422 48 16.5492 39.9524 14.4554 35Z" fill="#F04B09"/>
</g>
<defs>
<clipPath id="clip0_1741_5059">
<rect width="66" height="66" fill="white"/>
</clipPath>
</defs>
</svg>
