<svg width="66" height="66" viewBox="0 0 66 66" fill="none" xmlns="http://www.w3.org/2000/svg">
<path d="M23 11.5L10 60.5L51.5 61.5L56 10.5L23 11.5Z" fill="#F04B09"/>
<path d="M18 11.5L10 60.5L49.5 63L53 6.5L18 11.5Z" fill="black"/>
<path d="M18 11.5L10.5 59.5L47.5 60.5L50 5.5L18 11.5Z" fill="#F04B09"/>
<path d="M46 3L12.5 8L10 11V60.5L11.5 59L46 57V3Z" fill="black"/>
<circle cx="32" cy="16" r="2" fill="white"/>
<circle cx="36" cy="27" r="1" fill="white"/>
<circle cx="17" cy="35" r="2" fill="white"/>
<circle cx="22" cy="49" r="1" fill="white"/>
<circle cx="28" cy="24" r="1" fill="white"/>
<circle cx="38" cy="49" r="2" fill="white"/>
<path d="M20 21L32 15.5L36 26.5L17 35" stroke="white"/>
<path d="M22 49L17 35L38 49L33 39" stroke="white" stroke-linejoin="bevel"/>
<circle cx="20" cy="21" r="2" fill="white"/>
<circle cx="33" cy="39" r="1" fill="white"/>
</svg>
