<svg width="66" height="66" viewBox="0 0 66 66" fill="none" xmlns="http://www.w3.org/2000/svg">
<rect x="6" y="17" width="19" height="17" fill="#CED5CF"/>
<circle cx="11" cy="21" r="3" fill="#F04B09"/>
<circle cx="12" cy="28" r="3" fill="#F04B09"/>
<circle cx="19" cy="20" r="3" fill="#F04B09"/>
<circle cx="20" cy="27" r="3" fill="#F04B09"/>
<path fill-rule="evenodd" clip-rule="evenodd" d="M6.00072 4C6.00072 4 12.5 10.5 14.1551 14.1112H15.6366C15.6366 14.1112 19.0007 5.08697 21.5626 3C23.5007 5.5 26.9578 20.0372 26.9578 20.0372H28.0007C39.5007 -1.5 62.9581 14.1112 62.9581 48.9134C62.9581 60.2877 56 60 50.958 57.7831C56.6972 44.7395 57 33.5 56 25.9567H55C56.4775 37.5 46 63 46 63H42.0007V60L44.0007 60C44.0007 49.5 43.0007 43.5 43.0007 43.5L40.5007 63H36.0007V60H38.0007L32.0007 40H31.0007V45.5C31.0007 45.5 22.8645 56.1061 20.8218 63L17.0007 63V60H19.0007C19.5007 58.5 20.8193 51.5369 20.8218 50.5C19.0007 38.5 14.6366 43.5 14.6366 63L10.0007 63V60H12.0007V56C11.5298 49.4081 9.72931 45.0236 7.95555 40.7043C5.96216 35.8501 4.00256 31.0783 4.00195 23.348C4.00163 19.127 5 4 5 4H6.00072ZM7.14579 20.5688C8.33099 19.1809 12.4792 20.5688 13.0718 24.0405C10.7014 25.4277 7.14579 23.3424 7.14579 20.5688ZM8 27.8004C9.1852 26.4125 13.3334 27.8003 13.926 31.272C11.5556 32.6592 8 30.574 8 27.8004ZM22.7962 18.2755C21.2482 17.3086 17.71 19.8805 18.1896 23.3696C20.8676 23.9792 23.6309 20.9205 22.7962 18.2755ZM23.6503 25.5072C22.1023 24.5403 18.5641 27.1121 19.0437 30.6013C21.7217 31.2108 24.485 28.1522 23.6503 25.5072Z" fill="black"/>
</svg>
