<svg width="66" height="66" viewBox="0 0 66 66" fill="none" xmlns="http://www.w3.org/2000/svg">
<g clip-path="url(#clip0_1792_5901)">
<path d="M16.5215 35.0347L51.2742 39.1881L50.1468 48.6209L43.4397 58.3941L14.2668 53.9004L16.5215 35.0347Z" fill="#F04B09"/>
<path fill-rule="evenodd" clip-rule="evenodd" d="M30.8642 49.841C30.1417 50.5962 29.6491 51.5836 29.5155 52.7013C29.1878 55.4432 31.1449 57.9316 33.8868 58.2593C36.6287 58.587 39.1171 56.6299 39.4448 53.888C39.639 52.2636 39.0312 50.7282 37.9335 49.6783L37.8147 50.6721L30.8642 49.8414L30.8642 49.841Z" fill="white"/>
<path fill-rule="evenodd" clip-rule="evenodd" d="M33.5954 50.168C31.817 53.4182 33.7319 56.3024 34.9997 57.3858C35.8782 56.2909 37.2697 52.7726 35.2508 50.3659L33.5954 50.168Z" fill="black"/>
<circle cx="26.9315" cy="44.8394" r="5.5" transform="rotate(6.81526 26.9315 44.8394)" fill="white"/>
<circle cx="36.779" cy="42.4915" r="3" transform="rotate(6.81526 36.779 42.4915)" fill="white"/>
<path d="M28.519 39.9936C25.4217 40.6306 23.7762 45.9731 25.346 49.6856C29.0594 48.1151 29.9899 41.7808 28.519 39.9936Z" fill="black"/>
<path d="M39.063 40.2463C36.083 39.8902 34.7337 42.7503 34.4965 44.7362C36.6025 44.2325 38.707 43.2251 39.063 40.2463Z" fill="black"/>
<path fill-rule="evenodd" clip-rule="evenodd" d="M51.6066 36.7215C60.1965 50.1867 53.2723 64.605 29.4605 61.7591C5.60732 58.9084 2.3158 43.2692 13.837 32.2075C11.5509 30.9626 9.99437 29.443 10.2971 26.9497C10.6915 23.7011 22.6192 23.5709 33.8442 25.0733C45.107 26.2585 56.6682 29.1959 56.2859 32.446C55.9925 34.9403 54.1217 36.0504 51.6066 36.7215ZM33.5239 44.5862C28.8181 41.8822 24.0168 39.1233 16.6239 42.6005C26.3982 51.8257 39.404 50.023 44.6851 47.9685C40.363 48.5161 36.9691 46.5659 33.5239 44.5862ZM19.8243 49.5292C32.8121 52.6508 37.3018 51.3492 42.8828 49.7313C44.8742 49.1541 47.0044 48.5365 49.7092 48.0653C48.539 48.5332 47.1126 49.4392 45.4835 50.4739C39.0143 54.583 29.3475 60.7232 19.8243 49.5292ZM33.7583 42.1399C34.9253 44.267 35.9997 46.2254 41.5646 44.5742C38.1809 39.0114 35.2673 38.2821 29.688 38.6228C32.0997 39.117 32.9511 40.6688 33.7583 42.1399Z" fill="black"/>
<path d="M44.8086 59.5835L34.8926 58.3796L34.5325 61.3455C37.4381 61.6982 40.487 62.0744 40.1213 65.0397L42.1052 65.2745L44.8086 59.5835Z" fill="black"/>
<path d="M15.0195 56.0234L24.94 57.1902L24.591 60.1574C21.6841 59.8155 18.6324 59.4626 18.289 62.4306L16.3056 62.1912L15.0195 56.0234Z" fill="black"/>
<rect x="41.6562" y="26.9604" width="5" height="4" transform="rotate(6.81526 41.6562 26.9604)" fill="black"/>
<path d="M29.9448 15.4773C21.1067 10.4046 32.4943 28.8868 33.5684 32.5401C33.5091 33.0366 23.8331 31.3766 23.6982 30.8569C20.5959 18.9046 24.5119 10.3081 32.2169 13.2435C37.0036 15.0672 35.0395 18.4015 29.9448 15.4773Z" fill="#F04B09"/>
<path d="M56.0002 41.767L53.0214 41.411L56.6807 52.9266C58.1701 53.1046 59.8375 51.7931 60.0748 49.8072L56.0002 41.767Z" fill="black"/>
<path d="M8.33967 36.0714L11.3185 36.4274L5.04845 46.7563C3.55905 46.5783 2.24767 44.9108 2.485 42.9249L8.33967 36.0714Z" fill="black"/>
<path d="M26.4851 0.480116C22.8397 -0.228117 22.0816 2.02282 23.6801 2.46409C25.2786 2.90535 29.3454 0.886533 26.4851 0.480116Z" fill="#F04B09"/>
<path d="M60.549 19.3211C63.4363 21.473 65.0453 19.8251 63.8342 18.7673C62.6231 17.7094 58.2208 17.7631 60.549 19.3211Z" fill="#F04B09"/>
<path d="M62.7233 23.4353C62.308 26.9106 64.8123 26.4907 64.6797 25.4554C64.5471 24.4202 63.0199 20.9533 62.7233 23.4353Z" fill="#F04B09"/>
<path d="M16.0005 15.236C19.0042 13.2498 17.9998 11.1771 16.5939 11.9577C15.1879 12.7382 13.7452 16.8977 16.0005 15.236Z" fill="#F04B09"/>
<path d="M6.3627 25.2103C5.12329 21.8886 2.91243 22.3927 3.34946 23.9144C3.78649 25.436 7.45672 27.7422 6.3627 25.2103Z" fill="#F04B09"/>
<path d="M8.22183 28.6451C6.81906 27.8149 5.53547 28.8428 6.13132 29.261C6.72716 29.6791 9.34446 29.2348 8.22183 28.6451Z" fill="#F04B09"/>
<path d="M29.9116 15.7542C21.0735 10.6814 32.4611 29.1637 33.5352 32.817C33.4759 33.3134 23.7999 31.6534 23.665 31.1337C20.5627 19.1814 24.4787 10.5849 32.1837 13.5204C36.9704 15.344 35.0063 18.6784 29.9116 15.7542Z" fill="#F04B09"/>
<path d="M57.2074 23.7385C54.493 16.8327 51.8207 26.173 51.1101 32.1188C50.8728 34.1046 42.3735 33.5924 42.3735 33.5924C49.1186 19.2917 57.3757 17.0851 59.9488 22.359C61.5477 25.6364 58.4538 26.9095 57.2074 23.7385Z" fill="#F04B09"/>
<path d="M29.2241 6.81713C38.0685 0.173401 49.9488 8.13997 27.9773 31.8718C30.2816 33.6579 37.7287 34.5475 40.3296 33.8516C52.9281 8.49547 38.6411 -2.86341 25.8814 4.25625C22.9065 5.9162 24.2646 10.5425 29.2241 6.81713Z" fill="#F04B09"/>
<path d="M7.79438 16.131C8.70674 12.7151 11.5664 14.0637 11.2697 16.5464C10.9729 19.029 9.76484 23.5396 13.2178 21.3109C18.0078 18.2194 23.0555 22.4867 20.5302 30.9817C19.0408 30.8037 16.1804 29.4548 15.3655 27.8467C15.7851 24.3361 16.2559 21.1703 11.9281 23.6744C7.60037 26.1786 6.88469 19.5371 7.79438 16.131Z" fill="#F04B09"/>
<path d="M53.025 7.67328C53.025 7.67328 55.2773 5.68176 58.2561 6.03786L55.758 14.2998C49.2948 19.2248 45.1734 25.9211 40.1798 35.0981L38.6904 34.9201L53.025 7.67328Z" fill="black"/>
<path fill-rule="evenodd" clip-rule="evenodd" d="M15.4174 27.853L10.2695 27.2378C10.1168 29.5613 11.6398 31.0112 13.8365 32.2074C13.0607 32.9523 12.3572 33.705 11.7248 34.4615L53.1272 39.4097C52.6908 38.5254 52.1846 37.6281 51.6061 36.7213C54.0228 36.0766 55.8447 35.0264 56.2438 32.7323L51.0588 32.1126C50.1576 33.695 42.2904 34.086 32.8821 32.9616C23.4738 31.8372 15.9203 29.6032 15.4174 27.853Z" fill="black"/>
</g>
<defs>
<clipPath id="clip0_1792_5901">
<rect width="66" height="66" fill="white"/>
</clipPath>
</defs>
</svg>
