<svg width="66" height="66" viewBox="0 0 66 66" fill="none" xmlns="http://www.w3.org/2000/svg">
<path fill-rule="evenodd" clip-rule="evenodd" d="M30 13.036C29.7275 13.0866 29.4728 13.1499 29.2223 13.2122C27.175 13.7211 25.4099 14.16 16.5 7L13.5799 9.50293L13.5732 9.50049L13.4576 9.60773L13 10L13.0239 10.015C5.29622 17.339 4.06617 22.2684 8.73684 24.6056C3.08052 29.7591 2.55968 34.3408 6.93549 36.3793C1.08585 41.655 1.54315 48.644 9.75139 49.4281C3.9727 57.0886 8.30475 65.8789 29.9996 54.0439V58L36 60.5V54.0439C60.0706 65.3109 62.3351 56.3646 58.1633 49.2353C66.6292 48.4511 64.3406 40.9248 59.4713 35.9666C64.8308 33.6829 63.5433 28.3816 58.9212 24.6311C63.3054 22.5084 60.5698 17.7429 52.4591 9.50049L52.0963 9.59628L49.5 7C49.1057 7.22533 48.7177 7.45065 48.3296 7.67603C45.2733 9.45111 42.2114 11.2294 36 13.036V11H30V13.036ZM54.2996 44.7519C54.2948 44.7482 54.2901 44.7444 54.2854 44.7407L54.2753 44.7452C49.9114 43.5336 43.8286 41.1068 36 37H30.0137C4.07423 52.7413 -3.84818 44.0468 12.9838 37.4977C17.2003 37.5585 22.8861 36.6417 30.0009 34.4152H36.0009C42.9753 36.292 48.3828 37.072 52.4617 37.0842C65.2974 42.3939 66.0888 48.0174 54.2996 44.7519ZM53.315 49.0657C64.6643 53.736 56.6727 61.8766 36 47H29.9996C10.7564 60.2015 4.19796 55.9063 13.0408 49.4288C17.2701 49.086 22.8922 47.4855 30.0137 44.044H36C43.4595 46.9736 49.1164 48.5168 53.315 49.0657ZM53.6967 25.7963C49.6625 26.1518 43.8785 25.951 36.1517 25.2862V26H29.8796V25.2862C22.3359 26.2909 16.506 26.4306 12.4955 25.7404C-2.17955 33.0364 8.8182 35.6627 29.9173 27.0001H36.0009C61.8051 39.2235 69.8687 30.7639 53.6967 25.7963ZM30 19C9.7462 25.5819 -2.01562 21.3105 16.762 12.1818C23.1203 15.591 28.3213 17 30 17H36C37.6149 15.6542 40.2441 14.7431 43.4195 13.6427C44.7996 13.1645 46.2827 12.6505 47.8307 12.0495C67.0423 18.5441 60.4323 25.54 36 19H30Z" fill="black"/>
<path d="M53.9999 20.5002C50 34 36.6833 29.8168 28.4202 27.6577C34.3673 31.1729 37 33.5 35.9673 41.4673C27.7042 39.3082 25.9094 34.916 25.5126 28.9275C20.5991 36.4709 10.1328 35.8969 9.10189 35.4283C14.0154 27.885 17.4894 25.8503 24.1562 26.6115C24.1562 26.6115 1.49942 28.0002 5.47988 8.00018C21.5262 14.1546 26.4722 25.255 26.4722 25.255C30.8757 23.4609 41.1463 17.1416 53.9999 20.5002Z" fill="#F04B09"/>
<path fill-rule="evenodd" clip-rule="evenodd" d="M16.5 7C27 13.036 28.5 13.036 30 13.036V8L36 11V13.036C43.8391 10.7298 45 10 49.5 7L52.0963 9.59628L52.4591 9.50049C60.5698 17.7429 63.3054 22.5084 58.9212 24.6311C63.5433 28.3816 64.8308 33.6829 59.4713 35.9666C64.3406 40.9248 66.6292 48.4511 58.1633 49.2353C62.3351 56.3646 60.0706 65.3109 36 54.0439V57.5H29.9996V54.0439C8.30475 65.8789 3.9727 57.0886 9.75139 49.4281C1.54315 48.644 1.08585 41.655 6.93549 36.3793C2.55968 34.3408 3.08052 29.7591 8.73684 24.6056C6.68335 23.5781 5.77046 22.0494 6.04889 20.0365C6.86983 20.6463 7.63714 21.0672 8.38432 21.3535C9.91662 22.3007 13.2107 22.5082 17.6708 21.7456C17.7794 21.7493 17.8891 21.7537 18 21.7588V21.6879C21.4632 21.0668 25.6033 19.8721 30.1517 18H36.1517C56.6772 26.6531 69.0234 18.667 48.2233 12.1032C42.6804 14.7773 37.5938 17 36 17H30C28.8201 17 23.9279 15.7625 18 12.8009V10H13L13.4576 9.60773L13.5732 9.50049L13.5799 9.50293L16.5 7ZM54.2854 44.7407L54.2996 44.7519C66.0888 48.0174 65.2974 42.3939 52.4617 37.0842C48.3828 37.072 42.9753 36.292 36.0009 34.4152H30.0009C28.4308 34.9066 26.9303 35.3341 25.4998 35.7015V28.9577C27.0302 28.3722 28.521 27.7181 29.9173 27H36.0009C61.7889 38.7632 69.8585 30.6886 53.7277 25.7936C49.6922 26.1528 43.8983 25.9527 36.1517 25.2862H29.8796C22.3686 26.2865 16.5566 26.4294 12.5478 25.7493C11.4032 26.3158 10.4152 26.8435 9.57192 27.3335H9.49976L9.49166 27.3803C3.90389 30.647 4.79667 32.2207 8.6238 32.3946L7.99976 36L19.8753 36.905C17.2583 37.34 14.9597 37.5262 12.9838 37.4977C-2.94624 43.6958 3.29627 51.8156 26 39.3241V42H38V38.0322C44.8721 41.5191 50.2903 43.6388 54.2753 44.7452L54.2854 44.7407ZM36 46C56.4089 61.9722 64.6138 53.7549 53.2776 49.0608C49.0828 48.5076 43.4374 46.9649 36 44.044H30.0137C22.9295 47.4676 17.3289 49.0692 13.1072 49.4233C4.16534 56.0539 10.7084 60.6784 29.9996 46H36Z" fill="black"/>
<path d="M48.9985 34.9999C52.0676 46.9207 45.6209 50.4664 38.8347 53.2128C41.4992 52.5584 44.9992 53.4998 46.9992 57.4998C43.4992 58.4998 39.4992 58.4998 37.4859 55.5745C37.9992 62.4998 32.4479 62.7941 31.4992 62.9998C30.4992 58.0765 32.9992 56.4998 35.3675 54.6768C35.3675 54.6768 20.4999 63 14.4999 50C28.6827 46.0154 36.2653 52.5584 36.2653 52.5584C38.374 49.0703 38.442 39.272 48.9985 34.9999Z" fill="#F04B09"/>
<path d="M62.9306 6.68424C60.716 14.6069 54.1365 13.0925 49.2919 12.4098C52.9082 14.0172 54.1786 15.4712 54 19.5C49.1554 18.8172 48.3426 16.7059 47.7212 13.3244C45.4235 17.9414 40.6176 18.1985 40 18C40.5 13.5 42.9524 12.1033 46.7963 12.0961C46.7963 12.0961 33.4222 13.5051 34.9395 2.73926C44.477 5.18141 48.0246 11.1712 48.0246 11.1712C50.4119 9.85942 55.3945 5.62213 62.9306 6.68424Z" fill="#F04B09"/>
</svg>
