<svg width="66" height="66" viewBox="0 0 66 66" fill="none" xmlns="http://www.w3.org/2000/svg">
<path d="M34 6.00718L36 10H38L41 3L44 10H46L48 6.00718V20C47.2 22.9195 35.6 19.0305 34 15.6244V6.00718Z" fill="#F04B09"/>
<path fill-rule="evenodd" clip-rule="evenodd" d="M35.684 25.6315C35.684 24.9998 33.1577 16.7894 23.0525 16.7895C23.6841 15.5262 26.842 12.9999 31.263 13L45.1576 13C49.4744 17.2115 51.7514 21.4756 53.3681 25.6315H55.8944C59.3619 35.7432 54.9978 45.3746 45.7908 51.9365V58.4735H48.3179C49.7132 58.4735 50.8442 59.6046 50.8442 60.9998H36.9496C36.9496 59.6046 38.0807 58.4735 39.4759 58.4735H43.2644L41.3574 54.6595C36.0679 57.4523 29.6803 59.3821 22.5677 60.1259L28.1062 50.8951H27.4747L19.5828 60.3653C15.2649 60.6078 10.7116 60.4205 6 59.7365C8.72591 57.0967 11.6558 54.0397 14.5751 50.8618C12.9299 51.3114 11.1448 51.738 9.15846 52.1586L31.8951 25.6325H35.684L35.684 25.6315Z" fill="black"/>
<circle cx="41.3693" cy="16.1569" r="1.89472" fill="white"/>
<path d="M49 38C47.8954 38 47 38.8954 47 40L47 43V43C48.1046 43 49 42.1046 49 41L49 38V38Z" fill="white"/>
<path d="M48 30C46.8954 30 46 30.8954 46 32L46 35V35C47.1046 35 48 34.1046 48 33L48 30V30Z" fill="white"/>
<path d="M51 32C49.8954 32 49 32.8954 49 34L49 37V37C50.1046 37 51 36.1046 51 35L51 32V32Z" fill="white"/>
</svg>
