<svg width="66" height="66" viewBox="0 0 66 66" fill="none" xmlns="http://www.w3.org/2000/svg">
<path fill-rule="evenodd" clip-rule="evenodd" d="M5.48199 40.1639C6.53514 39.0027 7.65324 37.7698 4.99975 35.8244C-0.999593 31.426 -0.501897 25.9999 5.99833 25.9999C9.648 25.9999 8.11884 23.3913 6.46773 20.5747C4.20562 16.7158 1.71462 12.4664 11.9995 14.0001C14.7613 14.412 14.3563 12.2875 13.9391 10.0999C13.3746 7.13914 12.788 4.06257 19.9995 7.00038C26.1571 9.50883 26.6977 7.64868 27.2671 5.68971C27.946 3.35367 28.6657 0.8771 39 5.50048C46.0486 8.65389 46.2795 6.53512 46.5048 4.46754C46.7455 2.2599 46.9797 0.110641 55.5 4.49998C58.6596 6.12767 57.5698 6.18266 56.1021 6.25673C54.1333 6.35609 51.4845 6.48977 57.5 10.4999C63.1187 14.2455 60.4833 14.4203 57.7196 14.6036C54.8982 14.7907 51.9432 14.9868 57.5 18.9999C65.8038 24.9969 63.8155 25.5551 61.5001 26.2051C59.3755 26.8016 56.9755 27.4754 62 32.4999C67.18 37.6799 65.0587 38.114 62.6599 38.605C60.1963 39.1092 57.44 39.6732 62 45.4999C65.0387 49.3827 60.3989 49.4196 56.5173 49.4504C53.401 49.4751 50.7734 49.496 53 51.4999C58 55.9999 31.5 64.5002 15.5 55.5002C6.07868 50.2007 8.96583 48.9391 10.9932 48.0531C12.4089 47.4345 13.4054 46.9991 9.49935 45.4999C2.92936 42.9784 4.15404 41.628 5.48199 40.1639ZM33 54C44.0457 54 53 45.0457 53 34C53 22.9543 44.0457 14 33 14C21.9543 14 13 22.9543 13 34C13 45.0457 21.9543 54 33 54Z" fill="#F04B09"/>
<path fill-rule="evenodd" clip-rule="evenodd" d="M33 56C45.1503 56 55 46.1503 55 34C55 21.8497 45.1503 12 33 12C20.8497 12 11 21.8497 11 34C11 46.1503 20.8497 56 33 56ZM33 54C44.0457 54 53 45.0457 53 34C53 22.9543 44.0457 14 33 14C21.9543 14 13 22.9543 13 34C13 45.0457 21.9543 54 33 54Z" fill="black"/>
<path fill-rule="evenodd" clip-rule="evenodd" d="M16.8829 52.1592C15.6731 53.8408 15 55.8787 15 58C21 66 43.5 66 51 58C51 54.9622 49.7293 52.0695 47.5071 50.0161C43.3272 54.3234 37.4762 57 31 57C25.6789 57 20.7798 55.193 16.8829 52.1592Z" fill="black"/>
<circle cx="33" cy="34" r="20" fill="white"/>
<path fill-rule="evenodd" clip-rule="evenodd" d="M33 56C45.1503 56 55 46.1503 55 34C55 21.8497 45.1503 12 33 12C20.8497 12 11 21.8497 11 34C11 46.1503 20.8497 56 33 56ZM43.2728 31.7272L42 23L40.7272 31.7272L32 33L40.7272 34.2728L42 43L43.2728 34.2728L52 33L43.2728 31.7272ZM33 37L33.7637 42.2363L39 43L33.7637 43.7637L33 49L32.2363 43.7637L27 43L32.2363 42.2363L33 37ZM19.1339 29.5753C17.6158 34.5589 18.9743 39.7333 22.2579 43.3137C16.1851 40.5114 12.9594 33.5867 14.9631 27.0089C17.1516 19.8243 24.75 15.7742 31.9346 17.9627C33.3639 18.3981 34.6691 19.0475 35.8259 19.8653C28.6419 18.2401 21.3145 22.4167 19.1339 29.5753Z" fill="black"/>
</svg>
