<svg width="66" height="66" viewBox="0 0 66 66" fill="none" xmlns="http://www.w3.org/2000/svg">
<path d="M42.5009 8C47.7009 8.67174 50.3723 9.84047 54.5 14C57.3279 20.5801 57.3818 23.9484 48 28L38.0009 25C33.9626 17.2759 32.6934 13.1311 42.5009 8Z" fill="white"/>
<path d="M49.3957 5.13263C50.3137 0.237987 44.2429 2.37767 40.6713 6.96968C37.9511 10.4671 36.9978 -0.836567 33.3242 16.6125C33.6223 16.6553 34.2295 16.4736 35.0412 16.1533C36.4152 8.51474 45.8105 4.72896 49.3957 11.5615C57.4182 15.705 58 21.5 49.5 29L47 30.5C56.7432 29 62.9684 19.8483 60.5 14.5C58.4757 10.114 57.5 20 56.7432 9.26564C55.7017 -5.50612 48.1038 12.0206 49.3957 5.13263Z" fill="#F04B09"/>
<path fill-rule="evenodd" clip-rule="evenodd" d="M35.1478 25.1127C28.4276 16.766 39.2912 1.39923 51.4515 9.50733C64.733 19.2108 51.0894 35.4998 40.6716 29.6011L40.1195 30.0231C45.2629 32.2254 51.6912 35.1358 51.6912 44.7791C58.5797 41.4092 61.4996 51.4999 53.5285 51.9707C51.6912 51.5115 50.7734 48.2972 51.6912 46.0014C45.8231 47.0368 40.9923 44.1796 38.9556 39.966C39.2205 45.7647 36.4762 54.2909 25.3543 57.168C26.2464 60.0988 25.4636 62.6082 24.1395 63.4505C20.0075 65.2872 16.9993 60.5 17.9993 58C19.4993 56 22.3034 56.1033 24.1395 57.168C20.9634 50.7616 24.8291 41.5537 27.3539 39.5727C27.0361 39.7916 26.6255 40.1578 26.1222 40.6066L26.1221 40.6067C23.4587 42.9821 18.2011 47.671 10.3871 45.0827C10.3871 47.3788 9.58201 49.615 7.60839 50.5933C4.43667 50.9773 0.499643 45.9999 4.39452 42.7869C6.69049 41.8685 8.75813 42.7864 10.3871 43.8389C11.7429 33.8633 18.0943 28.4009 28.2728 29.011C23.2216 28.0927 20.007 26.9492 19.0886 19.8268C17.2235 20.8011 14.8779 20.7453 13.4996 19.8268C9.88043 13.4999 19.9999 9.49982 20.4656 18.9086L20.4669 18.9087C24.1953 17.7865 31.4876 17.9904 34.5327 25.7244L35.1478 25.1127ZM53.7033 23.0189C51.6252 25.8987 48.2767 27.0326 46.2242 25.5515C44.1717 24.0703 44.1924 20.5351 46.2705 17.6553C48.3486 14.7755 51.6972 13.6416 53.7497 15.1227C55.8022 16.6038 55.7815 20.1391 53.7033 23.0189ZM36.997 17.8456C38.5175 19.5444 41.8158 19.0727 44.364 16.7919C46.9122 14.5112 47.7454 11.2852 46.2249 9.58635C44.7044 7.88754 41.4061 8.35927 38.8579 10.64C36.3097 12.9207 35.4765 16.1468 36.997 17.8456Z" fill="black"/>
<path d="M36.9971 58.3995C26.4358 8.80651 23.2214 9.7249 25.9763 7.88841C21.3847 7.88847 22.0789 4.99441 25.9773 4.21478C29.8757 3.43514 31.4869 6.05134 27.3534 7.42895C30.5685 7.88841 27.3534 9.7249 37.4563 53.8076C37.6886 56.3864 37.5493 57.3022 36.9971 58.3995Z" fill="#F04B09"/>
<path d="M43.4829 60.2711C39.9424 27.0798 36.1554 27.0772 39.6093 25.7432C34.8202 25.517 36.1997 22.8071 39.9888 22.6713C43.7779 22.5355 45.6239 25.1905 40.7501 25.7247C43.6175 26.6371 40.7501 25.7247 45.2624 63.6135C44.7058 63.279 43.9271 62.0533 43.4829 60.2711Z" fill="#F04B09"/>
<path d="M27.3556 37.2767L36.0809 47.8382L37.9177 43.7057L36.9987 30.3888C33.7846 30.3887 28.274 33.603 28.2736 35.4401L27.3556 37.2767Z" fill="black"/>
<path d="M36 34.0317C40.4444 33.5332 47.1111 39.0185 48 43.5066L46 45.5C45 45.5 40.5 44.5 39 40L36 34.0317Z" fill="black"/>
<path d="M48.9382 60.696C11.7429 25.3375 7.61018 27.6335 8.98859 24.4195C4.85501 27.6335 4.39765 23.96 6.69255 21.2049C8.98745 18.4497 12.6619 18.9092 9.90661 23.042C13.1205 21.2049 11.2837 25.7967 52.1526 61.6144C51.0346 61.7728 50.389 61.7533 48.9382 60.696Z" fill="#F04B09"/>
<path d="M28.7328 49.6745C27.8145 47.3784 32.4055 40.0314 36.0799 39.5722L37.916 46.4602C36.5384 50.5931 34.2424 52.8891 31.4885 54.2665L28.7328 49.6745Z" fill="black"/>
<path d="M61.5004 9.5C62.1476 6.93122 61.3198 3.61743 59.7786 4.78048C57.5 6.5 61.0936 12.4706 61.5004 9.5Z" fill="#F04B09"/>
<path d="M40.8597 3.30398C39.3643 6.42019 38.18 4.8936 37.946 2.38521C37.7121 -0.123179 42.9315 -0.0145495 40.8597 3.30398Z" fill="#F04B09"/>
<path fill-rule="evenodd" clip-rule="evenodd" d="M41.5 17.25C40.8096 17.25 40.25 16.6904 40.25 16V11C40.25 10.3096 40.8096 9.75 41.5 9.75C42.1904 9.75 42.75 10.3096 42.75 11V16C42.75 16.6904 42.1904 17.25 41.5 17.25Z" fill="black"/>
<path fill-rule="evenodd" clip-rule="evenodd" d="M37.6161 15.8839C37.128 15.3957 37.128 14.6043 37.6161 14.1161C38.2732 13.4591 39.4328 12.7592 40.6173 12.2327C41.8058 11.7045 43.2438 11.25 44.5 11.25C45.1904 11.25 45.75 11.8096 45.75 12.5C45.75 13.1904 45.1904 13.75 44.5 13.75C43.7562 13.75 42.6942 14.0455 41.6327 14.5173C40.5672 14.9908 39.7268 15.5409 39.3839 15.8839C38.8957 16.372 38.1043 16.372 37.6161 15.8839Z" fill="black"/>
<path fill-rule="evenodd" clip-rule="evenodd" d="M50.105 16.314C50.7599 16.0957 51.4678 16.4496 51.6861 17.1046C52.0278 18.1295 51.9951 19.6145 51.8684 20.8182C51.8015 21.4543 51.7006 22.0796 51.5799 22.6226C51.4649 23.1402 51.3137 23.668 51.1183 24.0589C50.8096 24.6763 50.0587 24.9266 49.4413 24.6179C48.8238 24.3091 48.5735 23.5583 48.8822 22.9408C48.9368 22.8317 49.0357 22.547 49.1394 22.0803C49.2375 21.6389 49.3241 21.1079 49.3821 20.5565C49.5054 19.3852 49.4728 18.3702 49.3144 17.8951C49.0961 17.2402 49.4501 16.5323 50.105 16.314Z" fill="black"/>
<path fill-rule="evenodd" clip-rule="evenodd" d="M54.2449 19.8869C54.3074 20.5744 53.8008 21.1824 53.1132 21.2449L47.6132 21.7449C46.9257 21.8074 46.3177 21.3008 46.2552 20.6132C46.1927 19.9257 46.6994 19.3177 47.3869 19.2552L52.8869 18.7552C53.5744 18.6927 54.1824 19.1994 54.2449 19.8869Z" fill="black"/>
</svg>
