<svg width="66" height="66" viewBox="0 0 66 66" fill="none" xmlns="http://www.w3.org/2000/svg">
<path fill-rule="evenodd" clip-rule="evenodd" d="M54.3654 44.4157C61.1208 34.4149 59.2151 21.1197 42.5579 23.1654C43.0669 22.9472 44.1964 22.7301 45.452 22.4887C47.4102 22.1122 49.6751 21.6767 50.3717 21.0867C50.3717 21.0867 49.8134 18.4813 49.069 16.7443C48.6348 19.3497 47.3321 20.9942 46.0294 18.3888C45.5951 20.9942 42.5971 22.1206 43.4264 18.3888C43.9019 16.2492 46.0291 11.5336 48.203 14.139C49.0687 10.6651 50.3714 9.79666 52.1083 12.402C52.5428 9.79666 50.8059 3.71743 49.069 3.2832C48.4495 3.80734 47.4904 5.28625 46.3153 7.09804L46.3153 7.09809L46.3153 7.09815L46.3152 7.09822C44.9887 9.1436 43.387 11.6132 41.6883 13.6123C40.0676 10.6982 38.4462 13.4625 36.3022 17.1178C34.9999 19.3381 33.5047 21.8871 31.6998 23.692C33.0025 23.692 35.3647 23.692 36.9118 24.9947C38.4916 26.325 39.7019 27.7197 40.594 29.142C48.186 43.2175 13.6896 25.4297 40.3834 7.96729L40.8177 7.09878C26.0599 -1.01741 20.588 6.448 14.4287 14.8513C10.6474 20.0102 6.60703 25.5225 0 28.0002C2.78352 29.8559 7.70822 28.7668 11.6562 27.8936C16.9465 26.7236 20.4831 25.9415 14.7638 33.1527C17.6124 33.944 21.0953 33.3628 24.1617 32.8512C29.5093 31.959 33.5902 31.2781 30.8304 38.4559C32.3743 38.4559 33.9182 38.2843 35.3335 38.1271C39.7511 37.6362 42.9151 37.2847 40.9129 42.7242C37.8265 48.5176 31.2842 52.1775 26.9245 49.6534C33.0037 42.2715 26.4903 33.5869 19.9771 37.0607C14.427 40.0209 14.6225 46.1467 19.3643 50.4219C16.488 53.529 13.3434 52.6631 11.7171 50.5287L11.7262 50.5219C11.1475 49.6767 11.3804 48.3848 11.6405 46.9421C12.1565 44.0802 12.7794 40.6254 7.38368 38.8901C7.58004 40.2646 7.9292 41.3387 8.2528 42.3342C8.64478 43.5401 8.99927 44.6306 8.99927 46.0001C8.68995 44.4535 8.14455 43.4289 7.4652 42.1527C7.04643 41.366 6.57677 40.4837 6.08013 39.3245C2.52129 44.3867 5.65311 47.1225 8.36393 49.4905L8.36399 49.4905L8.36406 49.4906L8.36413 49.4906C8.88108 49.9422 9.3827 50.3804 9.8197 50.8188C12.5984 54.3188 18.9857 56.6113 23.6311 53.1485C27.5068 54.8772 32.7287 55.6329 39.0832 54.5224C39.5259 54.445 39.9627 54.3548 40.3933 54.2524C40.2251 56.6775 39.5932 59.228 39.0149 59.5985C38.4348 59.97 37.173 61.4767 40.2468 62.0909C42.1281 62.4669 42.4549 63.4788 42.6385 64.0474C42.7044 64.2515 42.7519 64.3984 42.8462 64.4383C45.3387 63.2061 42.5539 61.7072 40.8572 61.3356C43.9194 61.5617 45.2444 63.63 45.4828 64.5713C49.6195 61.9211 42.7787 60.6808 42.7787 60.6808C44.8747 60.8842 47.0406 61.311 47.7369 62.3978C49.0784 59.0466 46.6927 59.4454 44.2352 59.8562C43.0963 60.0466 41.9419 60.2396 41.1359 60.063C41.52 59.5983 41.9216 59.1334 42.3269 58.6643L42.327 58.6642C44.1619 56.5403 46.0729 54.3285 46.7714 51.6421C47.0677 51.4642 47.3591 51.2802 47.6454 51.0906C48.0893 53.3394 46.9991 55.8734 46.4321 56.645C46.0241 57.2 45.3874 59.0593 48.4767 58.5289C50.3676 58.2042 51.0359 59.0314 51.4114 59.4961C51.5462 59.6629 51.6433 59.783 51.7456 59.7864C53.6295 57.7415 50.4922 57.3423 48.7752 57.6047C51.7144 56.7163 53.6937 58.1709 54.2542 58.9638C57.1634 55.0051 50.3335 56.3036 50.3335 56.3036C52.3628 55.741 54.5375 55.3616 55.5776 56.126C55.6264 52.5166 53.543 53.7453 51.3968 55.0112C50.4022 55.5978 49.3941 56.1923 48.5785 56.317C49.1073 55.7851 49.6254 55.2906 50.1221 54.8166C53.1777 51.9006 55.4238 49.7572 54.3654 44.4157ZM22.5805 46.272C18.6731 43.2323 19.5398 37.5595 22.5797 38.0214C26.0512 38.5489 25.6182 42.798 22.5805 46.272Z" fill="black"/>
<path d="M38.5005 18.5C38.0019 16 39.5019 16.5 40.0005 15C41.502 18.5 38.502 17.5 38.5005 18.5Z" fill="#F04B09"/>
<path d="M62.3421 9.18014C54 6.49997 54.5711 14.6612 50.0015 16.0315H50C55.4864 17.8584 64.6277 17.6782 66 9C64.6287 10.827 61.885 12.3775 57.7709 12.3775C57.9616 11.9569 60.5141 9.63693 62.3421 9.18014Z" fill="#F04B09"/>
<path d="M53 18C55.8 19.3645 58.8333 18.5686 60 18C57.8125 22.5485 55.625 21.4113 53 18Z" fill="#F04B09"/>
<path d="M53.8633 9.72656C56.7207 6.92261 61.6414 6.4713 62.8708 6.60575C59.9081 3.77657 56.0799 4.25211 53.8633 9.72656Z" fill="#F04B09"/>
<path d="M47 29L49 27C51.4 31 47.8333 29.6667 47 29Z" fill="white"/>
<path d="M52 29L54 27C56.4 31 52.8333 29.6667 52 29Z" fill="white"/>
<path d="M49 34L51 32C53.4 36 49.8333 34.6667 49 34Z" fill="white"/>
</svg>
