<svg width="66" height="66" viewBox="0 0 66 66" fill="none" xmlns="http://www.w3.org/2000/svg">
<path fill-rule="evenodd" clip-rule="evenodd" d="M32 14L32 14.019C32.3289 14.0111 32.6618 14.0046 32.9986 13.9996V13.9996L32.9992 13.9996L33.0014 13.9995V13.9996C33.3384 14.0047 33.6715 14.0111 34.0006 14.019L34.0006 14C38.5006 3.00041 53.5015 6.00015 53.5006 16.9999C53.5006 17.308 53.4734 17.6058 53.4213 17.8934C57.1571 20.2385 57.7726 23.4508 55.9977 26.9997C64.3992 24.0596 67.858 35.5846 56.6005 42.6077L56.6216 42.6033C58.2742 42.2527 61.1364 41.6455 63.6783 43.5C67.3359 46.1687 62.4265 49.2958 60.6788 45.5C59.8821 43.7697 58.1783 42.591 55.6783 44.5C58.1783 44 59.2783 45.3 61.6783 48.5C63.1783 50.5 58.6156 52.4726 58.1783 49C57.6118 44.5012 56.8301 44.9099 55.6964 45.5027C55.2482 45.737 54.745 46.0001 54.1783 46C55.1783 46.5 55.6783 47 56.1783 47.5C58.5501 49.8718 54.6788 51.5 52.6783 48C51.8873 46.6161 50.7838 47.1865 49.3676 47.9184C47.2142 49.0314 44.3379 50.5181 40.7383 46.0747C34.8561 46.6876 38.7348 48.7175 41.6041 49.5C42.3467 49.7026 43.2866 49.8259 44.3075 49.9599L44.3076 49.9599C47.4111 50.3672 51.2638 50.8727 52.6041 54C54.1041 57.5 50.9609 59.776 49.6041 56.5C46.1041 48.0495 42.5421 51.0481 44.1041 53C44.2293 53.1565 44.3486 53.3052 44.4625 53.4469C46.1672 55.5703 46.6354 56.1534 47.1041 58.4506C47.7223 61.4807 43.1041 63 43.1041 59C43.1041 58.1557 43.1668 57.4666 43.2192 56.891C43.415 54.7394 43.4667 54.1716 39.5614 53C36.5882 52.1081 37.5199 53.1442 38.9739 54.7611C39.9651 55.8633 41.199 57.2354 41.6041 58.4506C42.1041 59.9506 39.3044 63 35.9986 55.5C34.1434 51.291 33.8987 49.1292 33.7757 48.0424C33.6795 47.1926 33.6577 47 32.9986 47C32.3423 47.0006 32.3204 47.1938 32.2243 48.0423C32.1013 49.1292 31.8566 51.291 30.0014 55.5C26.6956 63 23.8959 59.9506 24.3959 58.4506C24.801 57.2354 26.0349 55.8632 27.0261 54.761C28.4801 53.1441 29.4118 52.1081 26.4386 53C22.5333 54.1716 22.585 54.7394 22.7808 56.8909C22.8332 57.4666 22.8959 58.1557 22.8959 59C22.8959 63 18.2777 61.4807 18.8959 58.4506C19.3646 56.1534 19.8328 55.5703 21.5375 53.4469C21.6514 53.3051 21.7707 53.1565 21.8959 53C23.4579 51.0481 19.8959 48.0495 16.3959 56.5C15.0391 59.776 11.8959 57.5 13.3959 54C14.7362 50.8727 18.5889 50.3671 21.6924 49.9599L21.6925 49.9599C22.7134 49.8259 23.6533 49.7026 24.3959 49.5C27.2729 48.7154 31.447 46.8463 25.2487 46.0907C21.6552 50.5145 18.7832 49.0301 16.6324 47.9184C15.2162 47.1865 14.1127 46.6161 13.3217 48C11.3212 51.5 7.44994 49.8718 9.82171 47.5C10.3217 47 10.8217 46.5 11.8217 46C11.255 46.0001 10.7518 45.737 10.3036 45.5026C9.16993 44.9099 8.38818 44.5012 7.82171 49C7.38445 52.4726 2.82171 50.5 4.32171 48.5C6.72171 45.3 7.82171 44 10.3217 44.5C7.82171 42.591 6.11793 43.7697 5.3212 45.5C3.57346 49.2958 -1.33592 46.1687 2.32171 43.5C4.85188 41.654 7.70906 42.2574 9.36441 42.6069L9.4156 42.6177C-1.86134 35.5955 1.59681 24.0581 10.0023 26.9997C8.22735 23.4506 8.84296 20.2382 12.5792 17.8931C12.5272 17.6056 12.5 17.3078 12.5 16.9998C12.499 6.00012 27.5 3.00039 32 14ZM19 28C19 28.2156 18.9659 28.4232 18.9028 28.6178C29.5382 41.5399 36.9292 41.5709 47.1957 28.8638C47.0702 28.6023 47 28.3094 47 28C47 26.8954 47.8954 26 49 26C50.1046 26 51 26.8954 51 28C51 29.0112 50.2495 29.8471 49.2752 29.9812C40.1351 41.8437 25.8791 41.7314 16.7332 29.9824C15.7548 29.8519 15 29.0141 15 28C15 26.8954 15.8954 26 17 26C18.1046 26 19 26.8954 19 28Z" fill="black"/>
<ellipse cx="20.5001" cy="16.5002" rx="6.5" ry="7.5" transform="rotate(9.55971 20.5001 16.5002)" fill="#F04B09"/>
<path d="M16.3195 14.956C16.6566 13.9041 17.5 13.5 18.8345 13.6617C20.169 13.8235 20.5005 14.0004 21.6914 14.5773C22.8559 15.1414 23.3227 16.0404 22.9856 17.0922L22.6804 18.0445C22.3433 19.0964 21.6914 19.4535 20.1655 19.3388C18.9552 19.2477 18.3267 19.0569 17.3086 18.4232C16.2904 17.7895 15.6773 16.9601 16.0143 15.9083L16.3195 14.956Z" fill="black"/>
<ellipse cx="6.5" cy="7.5" rx="6.5" ry="7.5" transform="matrix(-0.986113 0.166075 0.166075 0.986113 50.6641 8.0249)" fill="#F04B09"/>
<path d="M49.6805 14.956C49.3434 13.9041 48.5 13.5 47.1655 13.6617C45.831 13.8235 45.4995 14.0004 44.3086 14.5773C43.1441 15.1414 42.6773 16.0404 43.0144 17.0922L43.3196 18.0445C43.6567 19.0964 44.3086 19.4535 45.8345 19.3388C47.0448 19.2477 47.6733 19.0569 48.6914 18.4232C49.7096 17.7895 50.3227 16.9601 49.9857 15.9083L49.6805 14.956Z" fill="black"/>
</svg>
