<svg width="66" height="66" viewBox="0 0 66 66" fill="none" xmlns="http://www.w3.org/2000/svg">
<path d="M30 6H42C46.8426 12.6338 47.5782 16.8211 48 24.5L30 26V6Z" fill="white"/>
<path fill-rule="evenodd" clip-rule="evenodd" d="M30.0006 5.61308C20.4703 4.50592 12.4436 11.0919 18.0006 22.9998C24.0815 36.0302 16.5525 34.9707 10.8064 34.162C5.10556 33.3598 1.15954 32.8045 13.9993 46.5C22.0291 55.065 20.3296 55.2095 18.1605 55.3939C16.683 55.5196 14.9877 55.6637 16.0006 58.4998C16.589 60.1472 20.0006 63.9615 25.0006 64.0236C35.9716 64.1596 53.0423 44.5178 50.4998 28.5C50.4732 28.3322 50.4456 28.1655 50.4171 27.9998H30.0006V5.61308Z" fill="#F04B09"/>
<path d="M46 39.5C49.9667 28.4295 61.3826 29.9342 59.999 35C58.6155 40.0658 42.4812 47.9447 46 39.5Z" fill="#F04B09"/>
<path d="M24.9985 63.9999C32.5101 54.9518 42.3736 49.4227 48.0002 49.9999C67.4987 52.0003 37.4998 66.0001 24.9985 63.9999Z" fill="#F04B09"/>
<path fill-rule="evenodd" clip-rule="evenodd" d="M48.4308 17.6713C50.5337 25.2571 53.5779 21.8394 56.1596 18.9409C57.9913 16.8844 59.5902 15.0893 60.4548 17.6713C62.8092 24.7022 56.9946 31.8562 53.3712 36.3142C50.3464 40.0357 48.8486 41.8785 54.9046 40.2029C67.3927 36.7476 44.2058 61.0947 27 64C20.4807 65.1008 23.2127 60.254 26.2849 54.8037C29.1705 49.6845 32.3562 44.0329 28.4583 42.277C26.0298 41.1829 24.9641 43.2369 23.9878 45.1186C22.2503 48.4675 20.7958 51.2709 12.4451 34.8123C4.94018 20.0208 11.1731 23.2922 17.1401 26.4242C21.5433 28.7353 25.8018 30.9704 24.2886 25.8155C18.1208 4.8042 40.4254 -11.208 48.4308 17.6713ZM46.4143 17.9292C45.6606 22.6955 38.1509 18.386 38.8885 9.75501C39.4979 2.62359 47.3894 11.7629 46.4143 17.9292ZM31.6095 21.6831C33.7505 26.5182 39.9059 19.7334 36.6483 10.7932C33.9568 3.40624 28.8395 15.4279 31.6095 21.6831Z" fill="black"/>
<path d="M9.73303 53.219C2.97747 49.0252 5.46634 46.3501 7.98077 47.4943C10.4952 48.6386 13.8626 55.7827 9.73303 53.219Z" fill="black"/>
<path d="M51.2428 14.7001C49.4853 8.63588 52.0509 6.53282 53.4717 9.83021C54.5625 12.3617 52.8246 20.1581 51.2428 14.7001Z" fill="#F04B09"/>
<path d="M55.8936 55.2262C58.3927 50.2263 62.5727 50.3281 61.8049 52.7979C60.8945 55.7261 53.8791 59.2566 55.8936 55.2262Z" fill="black"/>
</svg>
