<svg width="66" height="66" viewBox="0 0 66 66" fill="none" xmlns="http://www.w3.org/2000/svg">
<circle cx="43" cy="34" r="5" fill="#F04B09"/>
<circle cx="23" cy="34" r="5" fill="#F04B09"/>
<path fill-rule="evenodd" clip-rule="evenodd" d="M45.0024 34.3107C45.4718 34.3265 45.8941 34.173 46.1645 33.8443C46.7239 33.1639 46.4211 31.9904 45.4881 31.2232C44.5552 30.456 43.3453 30.3855 42.7858 31.0658C42.5577 31.3432 42.4729 31.7026 42.5158 32.083L42.5156 32.0829C42.5157 32.0833 42.5158 32.0838 42.5159 32.0843C42.5315 32.2218 42.5638 32.362 42.612 32.5021C42.8395 33.6682 42.487 33.9986 41.0978 34.0486C41.0301 34.0468 40.9635 34.0485 40.8981 34.0538C40.897 34.0538 40.8959 34.0538 40.8947 34.0538L40.895 34.054C40.5136 34.0855 40.1775 34.2381 39.9494 34.5154C39.3899 35.1958 39.6927 36.3692 40.6257 37.1365C41.5587 37.9037 42.7686 37.9742 43.3281 37.2938C43.5994 36.9639 43.6679 36.5179 43.5601 36.0585C43.3254 34.6274 43.55 34.3563 45.0024 34.3107Z" fill="black"/>
<path fill-rule="evenodd" clip-rule="evenodd" d="M21.1754 34.3107C20.7059 34.3265 20.2836 34.173 20.0133 33.8443C19.4538 33.1639 19.7566 31.9904 20.6896 31.2232C21.6226 30.456 22.8324 30.3855 23.3919 31.0658C23.62 31.3432 23.7048 31.7026 23.662 32.083L23.6622 32.0829C23.6621 32.0833 23.6619 32.0838 23.6618 32.0843C23.6462 32.2218 23.614 32.362 23.5658 32.5021C23.3383 33.6682 23.6907 33.9986 25.0799 34.0486C25.1476 34.0468 25.2143 34.0485 25.2796 34.0538C25.2808 34.0538 25.2819 34.0538 25.283 34.0538L25.2828 34.054C25.6641 34.0855 26.0003 34.2381 26.2283 34.5154C26.7878 35.1958 26.485 36.3692 25.552 37.1365C24.619 37.9037 23.4092 37.9742 22.8497 37.2938C22.5783 36.9639 22.5098 36.5179 22.6177 36.0585C22.8523 34.6274 22.6277 34.3563 21.1754 34.3107Z" fill="black"/>
<path fill-rule="evenodd" clip-rule="evenodd" d="M34 64H33H32C15.6136 56.5 24.5867 50.9999 28.5 54.9999C28.5 44.1617 23.2613 43.6205 18.8993 43.1699C13.8751 42.6508 10.0139 42.2519 16.6599 26.3778C15.6287 24.324 15.1389 25.7418 14.3786 27.943C12.9052 32.2085 10.4157 39.4157 1 30L19.1079 20.2496C22.3984 9.91082 20.3882 11.8221 16.8279 15.207C11.6755 20.1057 3.27681 28.0908 3 6.50009C6.0969 18.2682 9.96107 13.732 14.3549 8.57404L14.3549 8.57403C17.055 5.40439 19.9551 1.99996 23 2C30.0294 2.00009 30.196 8.51986 30.3339 13.921C30.4313 17.7339 30.5144 20.9893 32.9877 21H33H33.0123C35.4856 20.9893 35.5687 17.7339 35.6661 13.921C35.804 8.51986 35.9706 2.00009 43 2C46.0449 1.99996 48.945 5.40439 51.6451 8.57403C56.0389 13.732 59.9031 18.2682 63 6.50009C62.7232 28.0908 54.3245 20.1057 49.1721 15.207C45.6118 11.8221 43.6016 9.91082 46.8921 20.2496L65 30C55.5843 39.4157 53.0948 32.2085 51.6214 27.943C50.8611 25.7418 50.3713 24.324 49.3401 26.3778C55.9861 42.2519 52.1249 42.6508 47.1007 43.1699C42.7387 43.6205 37.5 44.1617 37.5 54.9999C41.4133 50.9999 50.3864 56.5 34 64ZM39.2195 40.8637C42.2222 40.9097 45.1598 39.3707 46.7678 36.5854C48.3301 33.8795 48.2463 30.675 46.8271 28.1313C43.8245 28.0853 40.8869 29.6244 39.2788 32.4096C37.7165 35.1155 37.8004 38.32 39.2195 40.8637ZM26.7805 40.8637C23.7778 40.9097 20.8402 39.3707 19.2322 36.5854C17.6699 33.8795 17.7537 30.675 19.1729 28.1313C22.1755 28.0853 25.1131 29.6244 26.7212 32.4096C28.2835 35.1155 28.1996 38.32 26.7805 40.8637Z" fill="black"/>
</svg>
