<svg width="66" height="66" viewBox="0 0 66 66" fill="none" xmlns="http://www.w3.org/2000/svg">
<path d="M60.4256 24.5C59.7821 22.475 61.6435 22.525 61 20.5C60.3565 18.475 55.2775 17 54.634 17L52 44C55.6465 43.775 61.6526 44.0834 61.6526 41.3003C61.6526 39.2752 60.4256 39.85 60.4256 38.5C60.4256 37.15 62.3561 37.2499 62.3561 35.2249C62.4796 33.7472 60.4256 33.4031 60.4256 32.5249C60.4256 30.4999 62.9411 30.7509 62.9996 28.4748C63.0387 26.9542 60.7516 25.5259 60.4256 24.5Z" fill="#F04B09"/>
<path d="M8.00025 38.9008C8.60022 36.945 6.20032 36.293 6.80029 34.3372C7.40027 32.3813 11.7125 31 12.3125 31L14 55.1995C12.2001 55.8514 6.80029 56.8876 6.80029 54.5475C6.80029 53.2436 7.40027 53.2436 7.40027 51.9397C7.40027 50.6358 5.60034 50.6358 5.60034 48.68C5.48518 47.2528 7.40027 46.9204 7.40027 46.0722C7.40027 44.1164 5.05496 44.3589 5.00036 42.1605C4.96389 40.6918 7.69629 39.8917 8.00025 38.9008Z" fill="#F04B09"/>
<path d="M11 13.999C11 13.5868 11.1239 13.1828 11.3748 12.8556C20.4233 1.05379 46.8796 1.04815 56.5836 12.8386C56.8609 13.1755 57 13.6017 57 14.0381V62H11V13.999Z" fill="black"/>
<path d="M48.9523 32.8205C47.5739 33.4953 46.1908 32.1458 47.5714 30.7962L50.4266 24.6583C50.8131 23.8273 51.4734 23.1542 52.2968 22.7517L57.9265 20L59.3971 21.4357C59.7826 21.8121 60 22.3281 60 22.8668V25.3981L54.4763 26.7476L48.9523 32.8205Z" fill="#F04B09"/>
<path d="M22.5038 39.7125C23.8983 39.5459 24.2572 37.802 22.5145 37.4447L17.2776 34.1552C16.5019 33.668 15.5825 33.4618 14.673 33.571L9.0984 34.2404L8.72793 36.0437C8.62111 36.5636 8.72535 37.1047 9.01769 37.5477L10.2932 39.4806L15.1859 37.7592L22.5038 39.7125Z" fill="#F04B09"/>
<path d="M49.2307 36.6804C46.5389 37.8378 46.5377 35.523 47.8837 34.9443L53.2605 30.3148L58.6383 28L62 28.5787L60.6555 31.4722L54.5 33.5L49.2307 36.6804Z" fill="#F04B09"/>
<path d="M22.6648 44.1124C25.4635 43.808 24.1034 41.6914 22.7041 41.8436L15.7511 40.3329L10.1583 40.9387L7.85325 43.1692L10.6125 45.1337L16.3943 43.6584L22.6648 44.1124Z" fill="#F04B09"/>
<path d="M48.6101 39.0403L59.7027 32.9346L62.2846 34.5107L60.3846 36.9196L48.5774 41.4417C46.7653 41.9878 46.1228 40.0472 48.6101 39.0403Z" fill="#F04B09"/>
<path d="M23.022 47.3353C24.7893 46.8199 24.2845 44.8968 21.7223 45.3942L16.3211 46.3695L9.4394 46.2958L8.16933 48.9498L10.9959 49.907L16.9501 49.5144L23.022 47.3353Z" fill="#F04B09"/>
<path d="M50.9338 44.4604C49.1726 44.5413 49.1728 42.6008 51.577 42.1465L55.2223 41.4471L59.1024 37.5674C59.1024 37.5674 59.4544 39.2081 59.7488 40.1538C60.0886 41.2454 60 43 60 43L55.8689 44.4604L50.9338 44.4604Z" fill="#F04B09"/>
<path d="M19.1153 53.634C20.7234 53.0383 19.987 51.3003 17.6614 51.8057L14.1312 52.5624L9.18404 50.5599C9.18404 50.5599 9.49126 52.1629 9.58644 53.1216C9.69631 54.2282 10.5744 55.516 10.5744 55.516L14.6954 55.5065L19.1153 53.634Z" fill="#F04B09"/>
<rect x="33" y="16" width="2" height="25" fill="white"/>
<rect x="42" y="23" width="2" height="16" transform="rotate(90 42 23)" fill="white"/>
<path d="M37 15L37 16V16C35.8954 16 35 16.8954 35 18V18L33 18V18C33 16.8954 32.1046 16 31 16V16L31 15L37 15Z" fill="white"/>
<path d="M26 21H27V21C27 22.1046 27.8954 23 29 23V23V25V25C27.8954 25 27 25.8954 27 27V27H26V21Z" fill="white"/>
<path d="M42 21H41V21C41 22.1046 40.1046 23 39 23V23V25V25C40.1046 25 41 25.8954 41 27V27H42V21Z" fill="white"/>
<path d="M9 60L11 58H57L59 60V62H9V60Z" fill="black"/>
</svg>
