<svg width="66" height="66" viewBox="0 0 66 66" fill="none" xmlns="http://www.w3.org/2000/svg">
<path d="M19.2816 31.7251C14.0001 30.7251 6.8572 28.5564 17.9999 43.7251C21.9998 49.1701 0 42.7251 30 59.7251C35.4118 62.7918 50.4999 65.9135 50.4999 57.7251C50.4999 47.7251 38.0957 35.6224 41.9999 38.2251C54 46.2249 46.173 34.8085 45 30.7248C43.827 26.6412 56.5 40.2248 48 25.2248C37.4145 6.54446 52.5 24.2248 48.5 15.2249C45.7755 9.09477 36.6471 -0.493201 38 4.72505C45 31.7252 35.5 5.72498 31 3.22505C25.2974 0.0570054 42.5 31.7251 26 11.225C19.3496 2.96227 27.4457 25.623 26 23.3511C22.5 17.8508 16.9999 14.2251 15.9999 16.225C14.4764 19.2719 27.8236 33.3424 19.2816 31.7251Z" fill="#F04B09"/>
<path d="M17.7778 35.9442L17 21.0662C17 18.7157 18.7677 18.1265 19.3334 20.3168L23.2224 33.6962C23.5769 34.7617 24.6298 34.1713 24.4952 32.8576V15.1803C24.6602 12.8233 27.0172 12.234 27.6064 15.1803L30.2226 31.4481C30.5526 32.8576 31.7311 32.8576 31.7783 31.4481V12.8233C31.7783 11.0557 34.0881 9.87711 34.8895 12.8233L37.0343 33.6962C37.2647 35.4916 37.9394 35.1283 38.2128 34.0164L41.7483 14.5911C42.3375 12.2341 44.6945 12.2341 44.8595 14.5911L42.9268 42.2855C42.6615 44.29 43.2853 45.9943 45.2837 42.848L48.4195 37.3783C49.3246 35.7994 51.2542 35.128 52.9439 35.8039L49.4084 45.821C38.802 70.5693 17.7778 63.4716 17.7778 45.821V35.9442Z" fill="black"/>
<path d="M31.7312 38.1338L32.5437 46.16L40.5699 46.9725L32.5437 47.7849L31.7312 55.8111L30.9188 47.7849L22.8926 46.9725L30.9188 46.16L31.7312 38.1338Z" fill="white"/>
</svg>
