<svg width="66" height="66" viewBox="0 0 66 66" fill="none" xmlns="http://www.w3.org/2000/svg">
<rect x="17" y="28.9175" width="30.9996" height="14.9998" fill="white"/>
<path fill-rule="evenodd" clip-rule="evenodd" d="M18.9997 33.5781H1C3.07912 34.6177 5.15824 36.5395 7.52559 38.7276C13.1286 43.9066 20.3461 50.5779 32.9995 50.5779C44.4966 50.5779 53.2427 43.1502 59.4418 37.8855L59.4419 37.8855C61.6001 36.0527 63.4496 34.482 64.999 33.5781H48.9993C43.9481 33.5781 41.2594 34.9956 38.9001 36.2395C37.0557 37.2118 35.4126 38.0781 32.9995 38.0781C30.3644 38.0781 28.5327 37.045 26.6245 35.9689C24.5501 34.799 22.3853 33.5781 18.9997 33.5781Z" fill="black"/>
<path d="M52.4986 28.0781C50.9986 28.0781 45.4987 27.5781 43.9987 27.0781C44.0064 30.7962 44.0024 38.5966 43.9987 43.5779C47.9986 40.5779 52.9977 31.0781 52.4986 28.0781Z" fill="#F04B09"/>
<path d="M13.0346 28.0781C14.5346 28.0781 20.0345 27.5781 21.5345 27.0781C21.5268 30.7962 21.5308 38.5966 21.5345 43.5779C17.5346 40.5779 12.5355 31.0781 13.0346 28.0781Z" fill="#F04B09"/>
<path fill-rule="evenodd" clip-rule="evenodd" d="M18.9997 33.5779H1.00003C2.89547 32.9009 4.97276 30.3502 7.38226 27.3917C11.2135 22.6874 15.8845 16.9519 21.9997 16.078C25.8601 15.5264 27.1353 16.4956 28.4252 17.476C29.4741 18.2733 30.5328 19.078 32.9995 19.078C35.2795 19.078 36.6237 18.2462 37.9331 17.4362C39.4951 16.4697 41.0074 15.534 43.9994 16.078C49.9236 17.1552 54.8307 22.7719 58.9958 27.5394C61.1892 30.05 63.1769 32.3251 64.9991 33.5778L48.9993 33.5779C43.7273 33.5779 40.6857 32.0337 38.166 30.7545C36.3843 29.85 34.8635 29.0779 32.9995 29.0779C30.9558 29.0779 29.2215 30.0061 27.3282 31.0194C25.0527 32.2372 22.5476 33.5779 18.9997 33.5779Z" fill="black"/>
<ellipse cx="43" cy="21.9169" rx="2.99996" ry="2.99996" fill="white"/>
<ellipse cx="49.5" cy="23.4175" rx="1.49998" ry="1.49998" fill="white"/>
<ellipse cx="26.5" cy="40.4175" rx="1.49998" ry="1.49998" fill="white"/>
</svg>
