<svg width="66" height="66" viewBox="0 0 66 66" fill="none" xmlns="http://www.w3.org/2000/svg">
<g clip-path="url(#clip0_1840_7817)">
<path d="M42.2095 24.7268C43.5166 24.0068 42.6945 27.2169 42.0999 27.403C41.5053 27.5891 40.9025 25.4467 42.2095 24.7268Z" fill="white"/>
<path fill-rule="evenodd" clip-rule="evenodd" d="M52.7428 11.1762C52.7428 11.1762 53.0762 5.37454 47.5767 2.14119L25.6564 39.8462L25.6559 39.846L47.5762 2.14102C42.0453 -1.03828 37.1686 2.12209 37.1686 2.12209C37.1686 2.12209 34.0013 -0.192609 30.1908 0.97507C27.3083 1.85836 26.489 4.78093 25.6924 7.62264C24.8686 10.5612 24.069 13.4133 21.0374 13.8346C22.4157 17.116 20.9932 20.4773 19.6249 23.7107C17.7282 28.1924 15.9355 32.4285 21.8485 35.8661C21.7991 36.5446 22.0137 37.2656 22.4177 37.9626L22.3762 37.9385C24.5307 42.021 22.6081 42.5648 20.3804 43.1949C18.2915 43.7858 15.9344 44.4526 16.4189 48.1839C17.3376 55.2588 14.5228 58.0486 9.64301 57.9534C8.7948 61.2974 9.8919 64.1284 10.8829 65.2538L10.8827 65.2542L10.8833 65.2554C12.3511 65.5604 15.3554 65.1135 17.8425 62.721C15.3453 58.5275 16.377 54.7011 22.9797 51.9989C26.4621 50.5737 25.8752 48.1954 25.3551 46.0878C24.8005 43.8401 24.3218 41.9003 28.9356 41.7526L28.8939 41.7284C29.7001 41.7348 30.4334 41.5645 30.9989 41.1857C36.9119 44.6233 39.7061 40.9694 42.6623 37.1037C44.7952 34.3147 47.0124 31.4154 50.5459 30.9896C49.412 28.1466 51.4949 26.0406 53.641 23.8708C55.7163 21.7725 57.8507 19.6144 57.1921 16.6725C56.3214 12.7833 52.7428 11.1762 52.7428 11.1762ZM21.0366 50.8271C22.0186 50.4916 22.9398 50.1769 23.3495 49.4722C24.139 48.1141 23.6781 46.3732 22.32 45.5836C20.962 44.7941 19.221 45.255 18.4315 46.6131C18.0218 47.3178 18.2041 48.274 18.3985 49.2934C18.5787 50.2384 18.7692 51.2377 18.5079 52.141C19.1635 51.4669 20.1262 51.1381 21.0366 50.8271Z" fill="black"/>
<path fill-rule="evenodd" clip-rule="evenodd" d="M38.0565 6.59745L35.5611 15.8723L33.5814 3.82744C34.7899 3.854 35.8055 4.21934 36.4684 4.53803L38.0565 6.59745ZM40.3604 3.88285L35.5201 22.0003L42.5208 19.0003L49.7225 9.52403C49.2207 7.99157 48.1693 6.17911 45.9802 4.89152C43.8959 3.69389 41.9071 3.61472 40.3604 3.88285ZM51.654 13.4964L51.1562 13.9136L45.9995 18.0003L52.8976 14.9135C52.5134 14.3283 52.0701 13.8596 51.654 13.4964ZM53.8386 17.3019L46.2222 21.3671L42.1452 27.682L42.5007 30.0005L47.84 27.7082C48.0153 26.0736 49.3642 24.6855 50.7439 23.2657C52.456 21.5038 54.2156 19.693 53.8386 17.3019ZM40.9004 35.3224L38.5006 23.0003L36.9986 23.5003L36.9986 34.0003L35.5006 29.5003L35.0006 27.5003L33.6441 39.166C36.9374 40.1016 38.9313 37.8884 40.9004 35.3224ZM32.1974 38.5885L34.0026 19.0003L31.5026 26.0003L26.1646 37.494C26.3619 37.6436 26.5685 37.7842 26.7823 37.9139C28.4451 38.8397 30.4523 39.0899 31.6272 38.2782C31.8212 38.391 32.0112 38.4943 32.1974 38.5885ZM24.1641 34.8208L32.5006 20.0003L27.0006 21.5003L25.5006 22.5003L23.2892 33.387C23.5284 33.5551 23.7876 33.7207 24.068 33.8837C24.0413 34.1896 24.0764 34.5048 24.1641 34.8208ZM22.0006 32.2569L22.0006 27.5003L21.2466 26.4635C20.5784 28.5416 20.4513 30.5069 22.0006 32.2569ZM22.2422 23.9063L23.705 25.256L23.0005 22.1064C22.8004 22.6034 22.5884 23.0982 22.3778 23.5895C22.3325 23.6952 22.2873 23.8009 22.2422 23.9063ZM23.8913 19.3915L29.5006 18.2258L25.0006 16.5003L24.1049 17.024C24.1586 17.8102 24.0699 18.6009 23.8913 19.3915ZM32.3408 3.92335L31.5006 12.5003L30.1764 16.6311L27.9976 8.69229C28.6297 6.67116 29.4637 4.80018 31.4967 4.13605C31.7833 4.04245 32.0651 3.97272 32.3408 3.92335ZM41.3803 21.5994L43.6181 20.535L40.9994 24.5001L40.0159 23.3461L41.3803 21.5994ZM32.0005 15.5002L33.0005 12.0002L34.0005 15.0002L33.5005 18.5002L32.0005 15.5002Z" fill="white"/>
<path d="M39.0009 3L46.5 2.5L52 9.5L52.5 11.5C43.5 13 37.5 9.5 37 2.5L39.0009 3Z" fill="black"/>
<circle cx="44.4471" cy="6.53154" r="3" transform="rotate(-11.335 44.4471 6.53154)" fill="#F04B09"/>
<path fill-rule="evenodd" clip-rule="evenodd" d="M43.4442 8.53007C43.1421 7.76379 43.155 6.87705 43.5536 6.08295C43.9521 5.28888 44.6554 4.74868 45.4504 4.53304C45.7525 5.29932 45.7396 6.18606 45.341 6.98016C44.9425 7.77424 44.2392 8.31443 43.4442 8.53007Z" fill="black"/>
</g>
<defs>
<clipPath id="clip0_1840_7817">
<rect width="66" height="66" fill="white"/>
</clipPath>
</defs>
</svg>
