<svg width="66" height="66" viewBox="0 0 66 66" fill="none" xmlns="http://www.w3.org/2000/svg">
<path d="M52.0002 23.5C49.9997 35.5 43.2697 43 32.5002 43C21.7306 43 15.0003 36 13.0002 23.5C11.0001 11 21.2304 3 32 3C42.7696 3 54.0006 11.5 52.0002 23.5Z" fill="black"/>
<path d="M10 41.5C7.99972 49.5 21.5008 47.5 14.0008 31L26.0013 27.5C30.001 35.8333 23.8713 49.826 12.4999 47.5C-9.50013 43 14.1521 24.8938 10 41.5Z" fill="black"/>
<path d="M26.4996 57.5C37.9998 63 19.9992 51.5 21.4992 38L32.9996 33V46C29.4996 46 37.6072 64 26.0003 64C15.9988 64 17.2111 53.0577 26.4996 57.5Z" fill="black"/>
<path d="M55.4987 41.5C59.1178 51.152 40.9984 46 51.9984 30.5L35.4986 43.5C39.4986 47 47.5584 52.5915 57.0001 46.5C70.9997 37.4678 50.0619 27 55.4987 41.5Z" fill="black"/>
<path d="M56.9983 50C48.6809 59.6994 44.6963 50 49.1963 32L29.0007 45C40.0007 45 39.6838 51.7278 52.5 56C67.4994 61 63.001 43 56.9983 50Z" fill="black"/>
<path d="M10.6267 50C18.9441 59.6994 22.9287 50 18.4287 32L38.6243 45C27.6243 45 27.9412 51.7278 15.125 56C0.125575 61 4.62401 43 10.6267 50Z" fill="black"/>
<path d="M41.9999 57.5C30.9995 64 44.6953 50 49.1953 32L33.0001 37.5V46C36.5008 45.5 29.9992 60.5 41.9991 63.5C50.8523 65.7133 51.633 51.8079 41.9999 57.5Z" fill="black"/>
<path d="M9.64626 25.9998C10.2827 33.0002 17.761 37.7757 22.1455 36.4999C26.53 35.224 26.6453 23.5008 22.1463 19.0001C17.1484 14.0003 8.82809 16.9999 9.64626 25.9998Z" fill="#F04B09"/>
<ellipse cx="5.68961" cy="7.63687" rx="5.68961" ry="7.63687" transform="matrix(-0.952471 0.304628 0.304628 0.952471 19.8379 17)" fill="black"/>
<circle cx="13.082" cy="25" r="3" fill="white"/>
<path d="M56.3615 25.9998C55.7252 33.0002 48.2468 37.7757 43.8623 36.4999C39.4779 35.224 39.3625 23.5008 43.8615 19.0001C48.8594 14.0003 57.1797 16.9999 56.3615 25.9998Z" fill="#F04B09"/>
<ellipse cx="49.7451" cy="26.0071" rx="5.68961" ry="7.63687" transform="rotate(17.7358 49.7451 26.0071)" fill="black"/>
<circle cx="3" cy="3" r="3" transform="matrix(-1 0 0 1 48 22)" fill="white"/>
</svg>
