<svg width="66" height="66" viewBox="0 0 66 66" fill="none" xmlns="http://www.w3.org/2000/svg">
<g clip-path="url(#clip0_1848_7334)">
<path d="M29.9348 30.6138C26.5587 19.9538 25.1118 26.4425 26.5587 33.8581C34.4366 38.4929 49.2279 44.9816 45.3695 33.8581C40.5464 19.9537 43.4403 45.9086 40.0641 32.9312C36.688 19.9538 37.6526 38.0295 34.2764 28.7599C30.9003 19.4903 33.311 41.2738 29.9348 30.6138Z" fill="#F04B09"/>
<path d="M8.4709 35.7175C4.54091 25.9932 14.8572 21.6177 11.4184 30.3693C7.13025 41.2824 16.8223 27.4521 16.8223 17.7285C16.8223 2.65625 19.9197 20.0523 21.2436 14.8111C23.9538 4.08199 24.6338 6 27 10.0002C28.7191 12.9064 31.4019 16.6277 34.9992 14.8112L25.1737 21.1318L16.4996 63.9954C16.6415 64.4921 16.6994 65.1557 16 65.0002C10.5 63.778 7.9998 59.0002 6.76128 52.5002C3.23622 34.0002 12.6381 46.0287 8.4709 35.7175Z" fill="#F04B09"/>
<path d="M55.9284 34.967C54.0004 49.5 61.4999 33.5 59.4993 50C58.3218 59.7111 53 66 50.6247 63.5C48.4157 57.1112 45.2015 36.2935 41.9462 22.4325L27.9643 15.6831L27 9.89802C28.4464 13.2727 30.3749 -9.86752 35.1963 5.07699C37.9105 13.4899 40.0178 -4.08295 44.8392 15.201C46.1385 20.3979 46.2855 21.9502 47.7319 18.5758C49.5916 14.2369 51.589 15.2013 50.6247 25.3249C49.7659 34.3416 57.5768 22.5414 55.9284 34.967Z" fill="#F04B09"/>
<path fill-rule="evenodd" clip-rule="evenodd" d="M27.1325 64.0626C23.1072 65.5682 18.6217 67.2459 13.2582 64.0791C1.69719 57.2529 13.2585 25.1899 33.0378 5.50732C52.5856 26.63 65.0205 58.8202 51.6933 64.5903C46.4212 66.873 42.5237 65.3968 38.9448 64.0412C36.9377 63.281 35.0308 62.5588 33.0378 62.5588C31.1533 62.5588 29.2038 63.2879 27.1325 64.0626ZM33 35C36.3137 35 39 32.3137 39 29C39 25.6863 36.3137 23 33 23C29.6863 23 27 25.6863 27 29C27 32.3137 29.6863 35 33 35Z" fill="black"/>
<path fill-rule="evenodd" clip-rule="evenodd" d="M27.8554 60.7781C29.3813 60.2415 31.185 59.7018 33.087 59.7018C34.9523 59.7018 36.6523 60.1747 38.1143 60.6795C38.7529 60.8999 39.3953 61.1448 39.9944 61.3731C40.0803 61.4059 40.1654 61.4383 40.2495 61.4703C40.9395 61.7327 41.5865 61.9745 42.2382 62.1869C44.7181 62.9953 47.1497 63.3511 50.3192 61.9705C52.2809 61.116 53.5881 59.2541 53.9215 55.791C54.2622 52.2537 53.494 47.5205 51.6398 42.0445C48.2297 31.9729 41.4287 20.2093 33.0041 10.4199C24.6007 19.5391 17.9718 30.8982 14.5431 40.8732C12.6774 46.3013 11.8275 51.1238 12.029 54.8436C12.2316 58.5852 13.4359 60.6578 15.0785 61.6335C18.1102 63.4343 20.671 63.2053 23.3973 62.375C24.3487 62.0853 25.1678 61.776 26.0553 61.4408C26.6119 61.2306 27.1954 61.0102 27.8554 60.7781ZM31.0027 8.16556C12.7516 27.8307 2.53742 57.6735 13.5464 64.2128C18.8451 67.3602 23.2764 65.6928 27.2531 64.1965C29.2994 63.4265 31.2253 62.7018 33.087 62.7018C35.056 62.7018 36.9399 63.4196 38.9227 64.1752C42.4584 65.5224 46.3088 66.9896 51.5172 64.7209C64.2228 59.1868 53.2273 29.2 35.0876 8.24248C34.4299 7.48259 33.7628 6.73456 33.0871 6C32.3814 6.7064 31.6864 7.42884 31.0027 8.16556Z" fill="white"/>
<path fill-rule="evenodd" clip-rule="evenodd" d="M28.1871 61.7215C29.6917 61.1924 31.3624 60.7018 33.087 60.7018C34.7872 60.7018 36.3635 61.1329 37.788 61.6247C38.4103 61.8396 39.0363 62.0782 39.6366 62.3069C39.723 62.3398 39.8088 62.3725 39.894 62.4049C40.585 62.6677 41.2516 62.9171 41.9283 63.1377C44.5503 63.9924 47.2506 64.3978 50.7186 62.8873C53.1236 61.8398 54.5619 59.5735 54.9169 55.8869C55.2767 52.1508 54.463 47.2644 52.587 41.7238C49.0334 31.2285 41.8681 18.9666 33.0303 8.92688C24.1717 18.2811 17.1739 30.1429 13.5974 40.5481C11.7085 46.0435 10.8194 51.0021 11.0304 54.8976C11.2422 58.8078 12.521 61.2775 14.5678 62.4933C17.9265 64.4883 20.8054 64.2097 23.6886 63.3317C24.664 63.0346 25.5383 62.7049 26.453 62.3599C27.0058 62.1514 27.5735 61.9373 28.1871 61.7215ZM31.6892 7.43465C13.0096 27.0827 2.40013 57.5919 13.5464 64.2128C18.8451 67.3602 23.2764 65.6928 27.2531 64.1965C29.2994 63.4265 31.2253 62.7018 33.087 62.7018C35.056 62.7018 36.9398 63.4196 38.9227 64.1752C42.4584 65.5224 46.3088 66.9896 51.5172 64.7209C64.3761 59.12 52.9585 28.4727 34.4279 7.48781C33.9849 6.98619 33.5379 6.4901 33.0871 6C32.6163 6.47125 32.1503 6.94964 31.6892 7.43465Z" fill="black"/>
<path fill-rule="evenodd" clip-rule="evenodd" d="M33 37C37.4183 37 41 33.4183 41 29C41 24.5817 37.4183 21 33 21C28.5817 21 25 24.5817 25 29C25 33.4183 28.5817 37 33 37ZM33 38C37.9706 38 42 33.9706 42 29C42 24.0294 37.9706 20 33 20C28.0294 20 24 24.0294 24 29C24 33.9706 28.0294 38 33 38Z" fill="white"/>
<path d="M16 48.8379C25.9167 48.3645 31.5833 34.3536 50 49.4999C32.5278 53.76 33.9444 62.5645 16 48.8379Z" fill="#F04B09"/>
<circle cx="33" cy="49" r="7" fill="black"/>
<path d="M35 49C35 50.205 33 53 33 53C33 53 31 50.205 31 49C31 47.795 33 45 33 45C33 45 35 47.795 35 49Z" fill="white"/>
<path d="M46.5395 56.6732C42.2538 61.3275 37.7738 53.9721 43.196 54.7228C41.1658 57.9275 42.3817 59.0736 44.3316 55.7301C49.9931 46.0223 54.9527 60.6845 46.4919 59.4718C50.6494 57.0715 51.9909 50.7531 46.5395 56.6732Z" fill="white"/>
<path d="M18.6558 57.5805C22.9415 62.2347 27.4215 54.8793 21.9993 55.6301C24.0295 58.8347 22.8136 59.9808 20.8637 56.6373C15.2023 46.9296 10.2426 61.5918 18.7034 60.379C14.5459 57.9787 13.2044 51.6603 18.6558 57.5805Z" fill="white"/>
<path d="M20.4763 34.4735C22.2954 42.5229 19.6394 41.1024 17.8694 36.3675C15.657 42.9964 21.8518 42.1984 22.2954 37.3145C29.8166 42.5229 17 42.0287 17 42.0287C19.3916 47.4641 30.7015 40.6289 21.3618 34L20.4763 34.4735Z" fill="white"/>
<path d="M41.5242 41.4415C46.8049 32.8004 49.2052 38.5611 42.9644 41.9215C44.7794 42.0421 47.6832 44.0167 48.118 44.5382L48.3348 42.1477C47.432 41.821 45.2721 42.1903 45.2721 42.1903C53.6797 36.3662 45.3646 35.6159 42.9644 37.601C43.9245 36.6409 45.3647 34.2406 45.3646 33.2801L41.7392 35.6159C41.7392 35.6159 41.7649 37.98 40.6629 41.3028L41.5242 41.4415Z" fill="white"/>
<path d="M12.6625 19.2607C13.3097 16.692 12.4819 13.3782 10.9407 14.5412C8.66211 16.2607 12.2557 22.2314 12.6625 19.2607Z" fill="#F04B09"/>
<path d="M57.5042 22.1487C56.0088 25.2649 54.8246 23.7383 54.5906 21.2299C54.3566 18.7215 59.5761 18.8302 57.5042 22.1487Z" fill="#F04B09"/>
<path d="M46.4222 11.7621C47.1021 12.5 50.4558 7.89462 48.0007 6.00009C46.3625 4.73584 45.3751 10.6255 46.4222 11.7621Z" fill="#F04B09"/>
</g>
<defs>
<clipPath id="clip0_1848_7334">
<rect width="66" height="66" fill="white"/>
</clipPath>
</defs>
</svg>
