<svg width="66" height="66" viewBox="0 0 66 66" fill="none" xmlns="http://www.w3.org/2000/svg">
<path fill-rule="evenodd" clip-rule="evenodd" d="M57.0909 46.4189C55.7011 45.1635 54.7058 42.4032 53.5059 39.0754C51.2315 32.7678 48.2221 24.4218 40.3978 20.422C39.5512 18.6518 39.5529 16.6558 39.5548 14.5758C39.5569 12.1467 39.5591 9.60303 38.2102 7.17069C33.5535 -1.22671 20.9918 -1.75804 15.565 7.17077C14.0423 9.67623 14.0685 11.144 14.1043 13.1424C14.142 15.254 14.1904 17.958 12.4332 23.1048C9.89783 30.531 14.4712 38.5997 22.1583 43.1367C22.8489 45.2334 22.3332 47.1587 21.5354 49.0899C17.8271 48.0433 10.118 48.2809 16.6378 54.842C16.5946 52.3851 18.4083 46.8958 21.1658 50.7414C16.7286 49.9816 17.0807 54.4853 19.6072 58.3156C19.5053 52.4127 22.7754 51.0722 26.8586 51.3646L27.2599 50.6546C24.9588 50.4027 22.5232 48.8068 25.1484 44.6513C26.4036 45.1893 27.7173 45.6368 29.0762 45.9799C30.2781 48.1553 29.9748 50.2782 29.3458 52.4438C25.5456 51.807 17.9082 52.8821 25.1032 58.6947C24.7929 56.2571 25.9985 50.6031 29.1581 54.1257C24.6645 53.8533 25.5047 58.2919 28.433 61.8245C27.6893 55.9678 30.7941 54.2794 34.8848 54.1257L35.2066 53.3763C32.8633 53.3763 30.2331 52.0223 32.5359 47.4743C33.9278 48.7049 36.0946 50.8359 38.5064 53.2078L38.5066 53.208C43.7805 58.3945 50.2255 64.7329 52.3006 65.3282C53.5609 60.7534 52.3006 51.9482 50.9825 47.9357C52.3222 48.0989 55.6936 47.8259 57.0909 46.4189Z" fill="black"/>
<path d="M38.5673 12.0592C39.4429 18.472 33.3205 23.7783 26.8483 23.7783C20.376 23.7783 14.5232 18.6829 15.1292 12.0592C15.7352 5.43555 25.9973 4.41025 26.8483 13.8527C27.4329 4.1804 37.5905 4.90505 38.5673 12.0592Z" fill="white"/>
<path d="M26.7752 17.6245C24.6391 17.6246 25.5617 19.8895 26.7751 21.8069C27.9336 20.4446 29.2604 17.6245 26.7752 17.6245Z" fill="black"/>
<path fill-rule="evenodd" clip-rule="evenodd" d="M25.2536 13.3032C25.2552 13.2554 25.2559 13.2074 25.2559 13.1592C25.2559 10.6933 23.2569 8.69434 20.791 8.69434C18.3252 8.69434 16.3262 10.6933 16.3262 13.1592C16.3262 15.6251 18.3252 17.6241 20.791 17.6241C21.6603 17.6241 22.4716 17.3757 23.1577 16.9459C23.6217 17.6163 24.1185 18.3554 24.4032 19.2584C24.9562 16.9043 25.207 15.6155 25.2539 13.3027L25.2536 13.3032ZM32.8868 17.6241C35.3526 17.6241 37.3516 15.6251 37.3516 13.1592C37.3516 10.6933 35.3526 8.69434 32.8868 8.69434C30.4209 8.69434 28.4219 10.6933 28.4219 13.1592C28.4219 13.211 28.4228 13.2626 28.4245 13.314L28.418 13.3027C28.4648 15.6155 28.7157 16.9043 29.2687 19.2584C29.5538 18.3543 30.0515 17.6144 30.5159 16.9433C31.2029 17.3747 32.0157 17.6241 32.8868 17.6241Z" fill="black"/>
<circle cx="20.784" cy="13.159" r="2.2" fill="#F04B09"/>
<circle cx="32.8834" cy="13.1593" r="2.32093" fill="#F04B09"/>
<path d="M37.75 25.7393C41.0113 25.7393 45.0167 29.8847 45.0167 32.5711C42.7129 32.5711 37.75 29.3376 37.75 25.7393Z" fill="white"/>
<path d="M42.582 34.6313C45.8434 34.6313 47.742 38.637 48.7588 42.0943C45.1998 40.7724 43.3695 38.942 42.582 34.6313Z" fill="white"/>
<path d="M35.207 31.5972C38.4684 31.5972 41.3816 36.4367 41.3816 39.1231C39.0778 39.1231 35.207 35.1955 35.207 31.5972Z" fill="white"/>
</svg>
