<svg width="66" height="66" viewBox="0 0 66 66" fill="none" xmlns="http://www.w3.org/2000/svg">
<path d="M26.5 4.99972C27 1.50002 39 1.50002 39.5 5.00017L38 11H28L26.5 4.99972Z" fill="#F04B09"/>
<path d="M23 34L42 29L54 35L42 51H23V34Z" fill="#CED5CF"/>
<path fill-rule="evenodd" clip-rule="evenodd" d="M33 9H23.623V10C30.5334 15.8358 32.6694 22.8693 26.5001 18.5C6.49989 2.5 -15.9995 26.5 29.123 57.5C29.4528 60.0858 27.9914 60.8893 22.6219 61V63H33H43.3781V61C38.0086 60.8893 36.5472 60.0858 36.877 57.5C81.9995 26.5 59.5001 2.5 39.4999 18.5C33.3306 22.8693 35.4666 15.8358 42.377 10V9H33ZM42.1222 21.9999C36 28.5049 29.5002 27.7094 23.6222 21.9999C7.15025 6.00012 4.00011 20.9995 8.50007 27.9998C12.582 34.3498 19.7754 32.297 28.033 29.9406C36.9743 27.3891 47.1632 24.4815 56.0003 31.4999C63.5 20.5001 57.499 5.6615 42.1222 21.9999ZM40.5 31L41.5819 38.4181L49 39.5L41.5819 40.5819L40.5 48L39.4181 40.5819L32 39.5L39.4181 38.4181L40.5 31ZM29.7071 45.2929L29 41L28.2929 45.2929L24 46L28.2929 46.7071L29 51L29.7071 46.7071L34 46L29.7071 45.2929Z" fill="black"/>
</svg>
