<svg width="66" height="66" viewBox="0 0 66 66" fill="none" xmlns="http://www.w3.org/2000/svg">
<path fill-rule="evenodd" clip-rule="evenodd" d="M23.7627 9.42432C18.8386 4.49995 18.7622 12.9243 25.2624 20.9243C26.7466 22.7509 25.649 21.9228 23.5894 20.3689C18.4728 16.5086 7.41895 8.16887 15.2625 24.9243C15.6719 25.7989 14.6715 24.9525 13.416 23.8902C11.8005 22.5232 9.76252 20.7989 9.76252 21.9243C9.76252 23.3686 10.6034 25.8347 11.13 27.3792C11.5349 28.5668 11.7541 29.2096 11.2625 28.4243C8.26036 23.6288 6.76265 26.9243 9.26302 36.9243L33.2629 26.9243C33.3121 26.9182 33.5125 26.888 33.8252 26.8408C35.8096 26.5419 42.3156 25.5616 43.3987 25.7213L46.8778 27.6404C47.5539 28.0439 48.2881 28.4861 49.0442 28.9414C53.0292 31.3411 57.6208 34.1061 57.5 33.5C54.6005 18.9475 53.0883 21.2171 51.7606 23.2098C51.2567 23.9662 50.7794 24.6826 50.2628 24.4243C49.9436 24.2647 50.0562 23.705 50.2111 22.9356C50.5412 21.2953 51.0633 18.7018 48 17C44.4971 15.0539 45.789 18.397 46.6815 20.7063C47.3577 22.4561 47.8046 23.6125 45.7623 21.4245C45.4403 21.0795 44.7406 19.7844 43.8915 18.2128C41.497 13.7808 37.9143 7.14944 38.2629 13.4243C39.1491 29.3763 26.262 19.9242 39.7623 5.42449C41.2623 3.81346 27.2623 -1.57563 30.7623 11.9244C32.193 17.443 25.2626 10.9243 23.7627 9.42432ZM26.145 16.9976C22.977 14.8446 27.2537 12.7992 28.5209 14.8445C29.4009 16.265 29.3127 19.6888 26.145 16.9976Z" fill="#F04B09"/>
<path d="M21 27.0003C20.8038 26.0197 19.5 28.0003 19.5 32.5003C19.5 35.0003 24.159 27.0003 32.9994 27.0003C32.9994 26.667 32.5 23.4004 32.5 23.0004C32.5 22.5004 29.0301 28.5358 29.0301 25.0002C29.0301 24.0004 25 23.0004 22.5301 29.0002C22.1606 29.8978 21.5002 29.5003 21 27.0003Z" fill="#F04B09"/>
<path d="M46.0005 26.4997C49.532 25.617 47.9999 35.4997 46.4998 33.9997C43.6744 29.7378 38.5 26.9997 33.0001 26.9997V25.4997C33.0001 24.9997 45.1435 22.2748 39.5 25.4997C36 27.4998 42 25.249 43.5005 27.4998C50.5 37.9998 44 26.9997 46.0005 26.4997Z" fill="#F04B09"/>
<path d="M44.4998 13C42.4998 11 41.9998 7.49997 43.9998 7.99997C45.9998 8.49997 46.4995 15.4999 44.4998 13Z" fill="#F04B09"/>
<path d="M4.94443 26.1805C2.94443 24.1805 4.44434 23.6804 6.44434 24.1804C8.44434 24.6804 6.94419 28.6804 4.94443 26.1805Z" fill="#F04B09"/>
<path d="M49.7229 15.7846C47.7229 13.7846 50.4228 11.8845 51.2228 13.7845C51.7783 15.104 51.7226 18.2845 49.7229 15.7846Z" fill="#F04B09"/>
<path d="M59.5725 30.0024C57.9885 32.1554 60.1269 34.2008 60.7604 32.1555C61.2004 30.735 61.1563 27.3112 59.5725 30.0024Z" fill="#F04B09"/>
<path fill-rule="evenodd" clip-rule="evenodd" d="M22.5 25C24.6002 25 26.6087 25.4162 28.4563 26.175C24.2021 27.453 21.6052 30.1287 20.5485 32.5853C23.6526 29.1494 28.0824 27 33 27C37.9176 27 42.3474 29.1494 45.4515 32.5853C44.3948 30.1287 41.7979 27.453 37.5437 26.175C39.3913 25.4162 41.3998 25 43.5 25C52.6127 25 60 32.835 60 42.5C60 51.844 53.0953 59.4775 44.4021 59.9743C46.6573 57.5143 48.6295 54.2518 48.9535 50.5591C47.4179 54.8419 44.3014 58.3366 40.3328 60.2928C41.1082 58.8565 42.1896 56.2774 42.5 51C41.6178 54.0878 38.7898 60.2887 35.3893 61.7066C34.4701 60.7465 33.981 57.4987 33.3028 52.9954C33.2063 52.3547 33.1059 51.6886 33 51C32.5925 56.2973 31.8529 60.2663 30.7813 61.5537C27.5286 59.8893 24.8536 53.9875 24 51C24.3345 56.686 25.5639 59.2397 26.3413 60.6066C22.0523 58.7253 18.668 55.0816 17.0465 50.5591C17.3706 54.2518 19.3427 57.5143 21.5979 59.9743C12.9047 59.4775 6 51.844 6 42.5C6 32.835 13.3873 25 22.5 25Z" fill="black"/>
<path fill-rule="evenodd" clip-rule="evenodd" d="M35.5725 35.4988C33.9885 34.4223 36.1269 33.3996 36.7604 34.4223C37.2004 35.1325 37.1563 36.8444 35.5725 35.4988ZM37.9992 42.4998C35.1357 41.0681 36.4998 37.9998 39.4998 40.4998C42.4998 42.9998 41.5 40.5 40 37.5C38.5 34.5 42.4992 35 45.9992 39C46.6292 39.72 46.4696 38.7015 46.2937 37.5795C46.0781 36.2039 45.838 34.6728 46.9992 35.9999C48.9955 38.2813 50.0158 37.7976 50.8024 37.4247C51.3949 37.1438 51.8548 36.9257 52.4992 37.9998L52.4968 38.001L52.5 38C52.5 42.9255 50.0739 47.3659 38.5298 42.7171C38.3465 42.6571 38.1695 42.5849 37.9992 42.4998ZM16.9988 39.2786C13.9988 36.7786 12.9989 38.2787 15.9992 42.2786C19.9983 45.7786 27.4988 43.2786 28.4988 42.2786C27.9988 40.2785 16.4993 33.7784 17.9993 36.7784C19.4993 39.7784 19.9988 41.7786 16.9988 39.2786Z" fill="white"/>
</svg>
