<svg width="66" height="66" viewBox="0 0 66 66" fill="none" xmlns="http://www.w3.org/2000/svg">
<path fill-rule="evenodd" clip-rule="evenodd" d="M14.7781 45.2245C11.0528 38.9522 3.85503 26.8331 24.5504 8.19092C24.5504 8.19092 33.7479 24.3893 36.0508 29.8348H37.6937C35.7222 23.8411 39.0628 17.3479 40.9796 14.8506C41.7108 15.8694 42.503 16.9296 43.3201 18.0229C49.8461 26.7554 57.9548 37.6059 49.1941 46.4839H15.5144C15.2945 46.094 15.0452 45.6743 14.7781 45.2245ZM32.0285 42.2291C26.9357 40.5571 20.6665 29.3443 26.9357 24.6731C31.4238 21.3291 39.2095 34.7052 32.0285 42.2291Z" fill="#F04B09"/>
<path d="M34.2347 15C29.6081 14.1667 29.6081 8.33333 31.3264 5C34.2347 6.69026 36.7603 10.8333 34.2347 15Z" fill="#F04B09"/>
<path fill-rule="evenodd" clip-rule="evenodd" d="M58.3469 46.1807H7C12.1246 55.0397 21.703 61 32.6735 61C43.6439 61 53.2223 55.0397 58.3469 46.1807Z" fill="black"/>
</svg>
