<svg width="66" height="66" viewBox="0 0 66 66" fill="none" xmlns="http://www.w3.org/2000/svg">
<rect x="19" y="28" width="30" height="20" fill="white"/>
<path d="M31 10H38V23H30L31 10Z" fill="#F04B09"/>
<path d="M20 6H27L28 23H20V6Z" fill="#F04B09"/>
<path d="M40 6H47L48 23H40V6Z" fill="#F04B09"/>
<path d="M20.0005 9C19.5009 13 17.5002 13 20.3485 14.7797C21.7023 15.6256 20.596 10.482 20.0005 9Z" fill="#F04B09"/>
<path d="M47.0008 10C47.4994 13 49.5 13.5 47.4992 15C46.6389 15.645 46.5986 10.988 47.0008 10Z" fill="#F04B09"/>
<rect x="22" y="4" width="2" height="2" fill="black"/>
<rect x="33" y="8" width="2" height="2" fill="black"/>
<rect x="42" y="4" width="2" height="2" fill="black"/>
<path fill-rule="evenodd" clip-rule="evenodd" d="M14.5594 17L51.4718 17.0005C51.4718 22.7825 53.1916 25.6749 60 32.1809C60 40.5641 57.8053 42.1695 54.9883 44.2301C51.9144 46.4786 48.0996 49.2691 45.5872 62H44H42.3775H42V57H39V62H35V57H32V62H28V57H25V62H23H21.5139C18.4165 48.8714 14.6951 46.2597 11.6471 44.1205C8.90494 42.1961 6.70773 40.654 6 32.1809C12.9545 27.3011 14.5594 22.7822 14.5594 17ZM27.1074 34.6675C27.1074 36.8766 25.3166 38.6675 23.1074 38.6675C20.8983 38.6675 19.1074 36.8766 19.1074 34.6675C19.1074 32.4583 20.8983 30.6675 23.1074 30.6675C25.3166 30.6675 27.1074 32.4583 27.1074 34.6675ZM48.1074 34.6675C48.1074 36.8766 46.3166 38.6675 44.1074 38.6675C41.8983 38.6675 40.1074 36.8766 40.1074 34.6675C40.1074 32.4583 41.8983 30.6675 44.1074 30.6675C46.3166 30.6675 48.1074 32.4583 48.1074 34.6675ZM32.1074 37H35.1074L38.1074 46.5H37.1074L34.1074 42.5H33.1074L30.1074 46.5H29.1074L32.1074 37Z" fill="black"/>
</svg>
