<svg width="66" height="66" viewBox="0 0 66 66" fill="none" xmlns="http://www.w3.org/2000/svg">
<path d="M42 28.2C42 33.8333 37.9296 35 33.3913 35C28.853 35 24 33.8333 24 28.2C24 22.5667 28.4617 18 33 18C37.5383 18 42 22.5667 42 28.2Z" fill="black"/>
<ellipse cx="33" cy="37.5" rx="8" ry="3.5" fill="black"/>
<path d="M57.5 32.5C60.5 40 55.0007 41.5 39.0007 36L39 38.5C45 39.5 56.5704 46.3561 64.0704 33.5C60.2316 29 57.5709 17.5 64.0704 21C65.5001 20.4999 67.071 8.99991 53.0707 8.49991C60.5707 12.4998 64.5127 19.4816 60.0707 19.9999C51.5 21 54.5 25 57.5 32.5Z" fill="black"/>
<path d="M8.47266 32.5C5.47266 40 10.9719 41.5 26.9719 36L26.9727 38.5C20.9727 39.5 9.40224 46.3561 1.90224 33.5C5.74111 29 8.40172 17.5 1.90224 21C0.472569 20.4999 -1.09839 8.99991 12.902 8.49991C5.40197 12.4998 1.45992 19.4816 5.90197 19.9999C14.4727 21 11.4727 25 8.47266 32.5Z" fill="black"/>
<path d="M17 48.5C12.5 42 25 38.75 31 41L29 38C27.5526 38.3125 12.4211 38.4375 7.5 45C13.5 51.5 7.5 49.5 1 56C8 64.5 18 56.2289 27 63C23 56.9999 19.5 55.5 8.5 59.5C7.5 46.5 21.5 55 17 48.5Z" fill="black"/>
<path d="M48.5 48.5C53 42 40.5 38.75 34.5 41L36.5 38C37.9474 38.3125 53.0789 38.4375 58 45C52 51.5 58 49.5 64.5 56C57.5 64.5 47.5 56.2289 38.5 63C42.5 56.9999 46 55.5 57 59.5C58 46.5 44 55 48.5 48.5Z" fill="black"/>
<path d="M25.5002 44.5C22.5002 41.5 28.1581 40.8085 32.5002 41.7128V39C31.4147 39.2261 24.6908 39.2527 21 44C25.8748 49.7527 17 53.5 23.5 58C25.0002 54.6915 28.5 52.5 31.5002 53C27.5 50 23.6778 53.9654 22.3752 54.1915C25.8489 51.4787 27.8402 46.84 25.5002 44.5Z" fill="black"/>
<path d="M39.9998 44.5C42.9998 41.5 37.3419 40.8085 32.9998 41.7128V39C34.0853 39.2261 40.8092 39.2527 44.5 44C39.6252 49.7527 48.5 53.5 42 58C40.4998 54.6915 37 52.5 33.9998 53C37.5 50 41.8222 53.9654 43.1248 54.1915C39.6511 51.4787 37.6598 46.84 39.9998 44.5Z" fill="black"/>
<path d="M17 27.9996C12.0927 31.7051 20.5 36.25 30.5 34V38C23 38 12.5 37 12.5 23.9999C17.5 18.4999 23.5 15.4996 15 7.49961C15 7.49961 22 3.49951 31.5 3.49951C2 17.9995 41.5 9.49961 17 27.9996Z" fill="black"/>
<path d="M48.5 27.9996C53.4073 31.7051 45 36.25 35 34V38C42.5 38 53 37 53 23.9999C48 18.4999 42 15.4996 50.5 7.49961C50.5 7.49961 43.5 3.49951 34 3.49951C63.5 17.9995 24 9.49961 48.5 27.9996Z" fill="black"/>
<path d="M31.0494 41H34.05C42.05 41 31.0508 58 33.5508 44.5C35.5508 51 37.5498 45.5 32.5496 42.5C27.5496 45.5 29.5509 51 31.5508 44.5C33.5509 58 23.0494 41 31.0494 41Z" fill="black"/>
<path d="M29.0161 51.9258C27.7163 51.7357 26.4618 52.1008 25.9805 52.3672C29.8465 60.6266 35.1289 61.6992 40.1289 52.6992C39.2344 52.1992 37.8179 51.8138 37.0044 51.8842C36.0044 59.8842 32.4433 61.1036 29.0161 51.9258Z" fill="#F04B09"/>
<path d="M29.0204 51.9249C27.9208 51.7836 27.0961 51.9248 25.9883 52.3581C27.4883 62.8581 35.625 70.1914 40.125 52.6914C39.1517 52.1602 37.8028 51.8755 36.995 51.8755C37.995 60.3755 27.0204 69.4247 29.0204 51.9249Z" fill="#F04B09"/>
<path fill-rule="evenodd" clip-rule="evenodd" d="M33 26.9998C34.6569 26.9998 36 25.6567 36 23.9998C36 23.5859 35.9162 23.1917 35.7646 22.833C37.112 23.7288 38 25.2606 38 26.9998C38 29.7612 35.7614 31.9998 33 31.9998C30.2386 31.9998 28 29.7612 28 26.9998C28 25.2606 28.888 23.7288 30.2354 22.833C30.0838 23.1917 30 23.5859 30 23.9998C30 25.6567 31.3431 26.9998 33 26.9998Z" fill="#F04B09"/>
</svg>
