<svg width="66" height="66" viewBox="0 0 66 66" fill="none" xmlns="http://www.w3.org/2000/svg">
<g clip-path="url(#clip0_1795_7186)">
<path d="M5.53558 34.6381C-5.65771 30.2425 8.55997 40.6774 24.9435 40.6322C32.0041 40.6128 30.6458 34.3143 37.732 30.2426C44.6921 27.5366 52.7054 36.5962 57.5007 32.9998C60.6975 32.2006 59.5 26.5 56.279 27.5365C55.3146 28.1448 54.5044 31.8649 57.5007 22.5C61.5 10 46.5 32.5 50.5 20C58.8872 -6.20995 40.9997 25.4472 43.0007 13.4593C47.5007 -13.5002 35.8042 23.8768 34.5011 11.4996C31.5007 -17.0002 31.0702 31.349 26 13.4595C19.2048 -10.5166 24.9981 31.0281 14.7218 14.2582C4.1923 -2.92486 22.1473 37.5812 6.20413 24.2486C-5.26424 14.658 18.5642 39.7543 5.53558 34.6381Z" fill="#F04B09"/>
<path d="M54.9072 34.5154C63.6882 23.3263 37.3258 14.5349 19.7422 37.7119C31.0525 49.7001 34.4252 22.1247 46.5159 35.3144C59.7028 49.7001 17.5 40.4122 34 62L35 62.0878C34.6004 59.6902 32.5307 53.2965 34.5287 49.7001C37.8675 43.6902 61.7018 60.0898 51.3121 42.8112C49.0286 39.0137 52.8208 37.1739 54.9072 34.5154Z" fill="black"/>
<path d="M19.5243 33.2373C5.24486 25.8489 8.89876 30.4358 18.2276 36.5211C24.5736 40.6606 16.6411 39.3943 10.6935 40.6258C7.00429 41.3896 18.9293 43.1424 24.502 41.4998C29.7721 40.2938 32.001 36.4998 38.5618 29.9681C44.4913 24.065 51.002 38.9998 51.002 38.9998C53.502 34.9998 57.9211 35.3006 61.002 32.4998C63.7868 29.9681 58.1802 29.0188 58.7836 27.9013C64.0284 18.1864 65.1797 17.67 57.5998 24.2071C52.8403 28.3117 55.0116 21.88 55.6167 18.4602C60.7728 -10.6826 48.8741 36.1106 49.6673 15.1765C50.7867 -14.3655 46.9068 29.1472 41.3382 15.1765C28.2495 -17.6606 44.2471 34.3701 32.2158 18.4602C10.798 -9.86201 39.7513 38.5734 23.4896 25.4385C0.881977 7.17768 31.8645 39.6224 19.5243 33.2373Z" fill="black"/>
<path d="M30.5666 50.5615C35.5 46 34.517 48.9999 33.5161 52.5003C32.2345 56.9824 33.0001 62.5002 30.0001 55.0002C29.0747 52.6867 25.2808 51.4095 19.6917 56.657C17.3951 58.8133 14.2425 57.8147 10.9721 55.9343C1.63652 50.5665 5.49205 51.6575 8.46186 52.498L8.47012 52.5003C12.0031 53.5001 9.47012 51.5951 8.47012 48.0001C6.75165 41.8222 13.9992 56.0003 13.0015 46.5002C12.1889 38.7631 16.8738 53.9305 19.004 47.4051C22.8163 35.7268 19.4929 53.5188 24.5031 48.0001C28.0031 44.1449 24.862 55.836 30.5666 50.5615Z" fill="black"/>
<path d="M45.5006 53C31.5206 43.969 30.5006 49 34.0006 62H35C34.0006 50.5 39.7797 47.5 44.502 55C53.002 68.5 67.502 60 60.002 46L59.002 48C65.002 53.5 60.2179 62.5073 45.5006 53Z" fill="black"/>
<path d="M57.0004 37.5C51.4994 47 57.5 46 58.9992 48C58.9992 48 59.9346 46.2495 59.9998 46C58.9992 43.5 64.9998 41 57.0004 37.5Z" fill="black"/>
<path d="M42.0014 45.0946C37.5033 40.5946 37.5033 38.5946 42.0014 42.0946C45.0392 34.805 40 35 35.5001 37.9955C30.6439 41.2283 28.6723 46.9169 35.5003 44.2461C41.001 42.0946 41.3476 45.1187 35.0001 47.4999C38.1543 47.2837 39.9139 47.2714 42.0014 45.0946Z" fill="black"/>
</g>
<defs>
<clipPath id="clip0_1795_7186">
<rect width="66" height="66" fill="white"/>
</clipPath>
</defs>
</svg>
