<svg width="67" height="66" viewBox="0 0 67 66" fill="none" xmlns="http://www.w3.org/2000/svg">
<path d="M51.9999 39.5002C16.5003 29.0323 -20.5013 52.4263 16 62C52.5013 71.5737 87.4996 49.968 51.9999 39.5002Z" fill="black"/>
<path d="M17.5006 26.0001C9.99883 14 -1.50161 34.5002 19.998 45L22 43.9999C22.8333 42.9999 23.2875 36.9188 26.9993 22.9997C32.9993 0.500007 15.4993 6.49966 17.5006 26.0001Z" fill="#F04B09"/>
<path d="M59.5004 16C51.8378 -12.7272 13 10.5 18.5623 49.9039L51.5611 49.9039C24.0004 1.00005 72.5004 -3.99995 46.5004 25.4654C46.5004 25.4654 63.5014 31 59.5004 16Z" fill="black"/>
<path d="M41.2207 32.689C39.4319 41.5094 34.0554 35.3172 31.8167 50.1686L30.8366 49.9698C32.7386 35.5604 39.3394 39.4499 40.2407 32.4902L41.2207 32.689Z" fill="white"/>
<path d="M33.4897 21.8495C34.1533 32.4235 35.6417 31.5923 30.9065 48.4395L31.8692 48.7101C36.7554 35.0215 35.6572 30.7687 34.5877 21.6387L33.4897 21.8495Z" fill="white"/>
<path d="M25.1582 48.5003C16.0011 45.5001 13.9244 33.9944 13.0368 28.4214C22.2737 35.9884 25.1022 44.8569 25.1582 48.5003Z" fill="white"/>
<path d="M15.9336 35.7306L12.7891 31.8425L11.8403 33.9294L15.9336 35.7306Z" fill="#F04B09"/>
<path d="M15.5395 33.3065C18.3096 40.895 21.9668 45.9914 23.4491 47.591L24.1933 46.7187C22.406 44.6914 18.9514 38.7295 15.5395 33.3065Z" fill="black"/>
<path d="M26.9231 20.1251C23.7405 26.8034 17.895 39.0692 24.4581 50.7236C27.0994 46.7555 31.296 35.0682 26.9524 20.0637L26.9231 20.1251Z" fill="white"/>
<path d="M27 33L29 29L30 31.5L27 33Z" fill="black"/>
<path d="M26.0296 27.1858C23.3879 37.4182 23.5502 45.6224 23.9615 48.4455L25.4104 48.0572C24.9875 44.5471 25.6853 35.5603 26.0296 27.1858Z" fill="black"/>
<path d="M48 43C43 49 24 49 18 43L17 50C25.5 57 47 55 51 49L48 43Z" fill="#F04B09"/>
<ellipse cx="5.1079" cy="5" rx="5.1079" ry="5" transform="matrix(-0.999957 -0.00928714 -0.00928714 0.999957 38.3086 46.0947)" fill="white"/>
<ellipse cx="2.5" cy="4.72665" rx="2.5" ry="4.72665" transform="matrix(-0.999957 -0.00928714 -0.00928714 0.999957 35.6895 46.3345)" fill="black"/>
</svg>
