<svg width="66" height="66" viewBox="0 0 66 66" fill="none" xmlns="http://www.w3.org/2000/svg">
<path fill-rule="evenodd" clip-rule="evenodd" d="M23.0253 7L46.9174 31.4115C49.5159 34.5875 44.7315 39.529 38.3634 42.7563C45.8642 40.5937 53.1971 34.0552 49.5144 30.3726L45.3554 26.2135C54.0503 23.4193 60.9552 23.4557 62.9441 26.9006C65.9774 32.1544 56.4277 43.3466 41.6142 51.8992C26.8008 60.4517 12.3332 63.1259 9.29988 57.872C6.88057 53.6817 12.4658 45.7137 22.3419 38.3203L20.2867 16.9224L26 19V17.5L7.96289 10.1164V7H23.0253Z" fill="black"/>
<path d="M49 5L49.6141 9.91291C49.8411 11.7287 51.2713 13.1589 53.0871 13.3859L58 14L53.0871 14.6141C51.2713 14.8411 49.8411 16.2713 49.6141 18.0871L49 23L48.3859 18.0871C48.1589 16.2713 46.7287 14.8411 44.9129 14.6141L40 14L44.9129 13.3859C46.7287 13.1589 48.1589 11.7287 48.3859 9.91291L49 5Z" fill="#F04B09"/>
<path d="M23.5 27.5L12.5 31L17.5 32.5L26 30.5L23.5 27.5Z" fill="white"/>
<path fill-rule="evenodd" clip-rule="evenodd" d="M3 27.4998C4.50044 27.2629 5.93852 26.9512 7.36742 26.6415C14.9856 24.9901 22.3429 23.3953 37.5 33.4998L37 34.5C36.8533 34.4266 36.7111 34.3552 36.5728 34.2856C32.9401 32.4589 31.9451 31.9586 20 33.4998C17.9628 33.7627 15.8691 33.5902 13.8668 33.1478C15.9018 31.7963 18.8714 30.3611 22.8024 28.9999C18.4543 29.7383 15.1109 30.6321 11.8851 32.6167C10.4141 32.154 9.02567 31.5661 7.78577 30.9268C10.0354 29.8087 13.4401 28.76 18 28C13.3628 28 9.79184 28.3554 6.0885 29.9654C4.72786 29.1187 3.65426 28.2475 3 27.4998Z" fill="#F04B09"/>
</svg>
