<svg width="66" height="66" viewBox="0 0 66 66" fill="none" xmlns="http://www.w3.org/2000/svg">
<path d="M49 4C42.6372 8.22306 39.8898 9.49637 36 15.9167L44.8636 17L49 4Z" fill="black"/>
<path d="M60.1145 5C53.3439 6.70642 47.1934 12.7248 45.5007 15C43.2479 14.179 44.2462 14.6231 42 13.5C38 11.5 35 11.5 34 13C33.5 11.5 30.5 10.5 29 12C23.8201 10.9434 7.59583 7.59848 3 7V10L9.5 27.5L10.4639 22.633L13.5 27L15.0007 22.633L18 26.5L19.5007 22.633L22.0007 26C40.5007 20 45.5007 46.5 21.0007 28.5V32.5L16.5007 30V33.5L11.5 30.5L16.106 40.8349C25.1258 41.0564 29.6807 40.5955 35.0007 37.5L35.5007 38C25.5 44 21.0007 51 8.77127 53C17.5007 61.5 33.8126 59.2018 37.5 53C36 57.5 35.7235 57.9302 35.5007 62.5C37.8133 61 48.0007 55.5 48.5007 53L52.5 62.5C56.7317 55.1905 60.5007 47 59.0007 39L64 44C63.5 32 56.5007 22 54.5007 20.5L60.1145 5Z" fill="black"/>
<circle cx="38.5" cy="17.5" r="2.5" fill="#F04B09"/>
<path d="M60 5.50029C56.5 8 51.5 14.5 50.1686 17.5894L54.4999 20.5003C55.9999 16.5003 58.4485 10.3029 60 5.50029Z" fill="#F04B09"/>
</svg>
