<svg width="40" height="40" viewBox="0 0 40 40" fill="none" xmlns="http://www.w3.org/2000/svg">
<path fill-rule="evenodd" clip-rule="evenodd" d="M4.41068 6.50534L5.98769 8.08229C11.182 -2.20193 39.1803 1.62659 35.0683 33.4947L33.4913 31.9177C28.297 42.2019 0.298704 38.3734 4.41068 6.50534ZM26.0254 26.9517H28.5251L26.8897 25.3164C25.837 21.9104 24.8331 19.0222 23.8812 16.5864C23.8749 16.5753 23.8685 16.5642 23.8621 16.5531C21.5771 12.5543 18.1748 33.693 23.488 35.1768C26.6053 35.664 27.6594 28.9129 26.0254 26.9517ZM14.9408 21.682C14.1871 19.6383 13.4027 17.3156 12.5893 14.6836L10.9539 13.0483H13.4536C11.7614 11.0172 12.9521 3.84912 16.3319 4.90337C21.3195 7.59825 18.7829 30.0327 14.9408 21.682Z" fill="#F04B09"/>
<path fill-rule="evenodd" clip-rule="evenodd" d="M20 3C9 3 5 12 5 20C5 28 9 37 20 37C31 37 35 28 35 20C35 12 31 3 20 3ZM25.547 12.5217C30.259 17.2281 32.7322 22.3915 31.0711 24.0545C29.41 25.7176 24.2437 23.2505 19.5317 18.5441C14.8198 13.8377 12.3466 8.6743 14.0076 7.01126C15.6687 5.34822 20.8351 7.81532 25.547 12.5217ZM25.0711 33.0545C26.7322 31.3915 24.259 26.2281 19.547 21.5217C14.8351 16.8153 9.6687 14.3482 8.00763 16.0113C6.34656 17.6743 8.81979 22.8377 13.5317 27.5441C18.2437 32.2505 23.41 34.7176 25.0711 33.0545Z" fill="black"/>
<path fill-rule="evenodd" clip-rule="evenodd" d="M20.6653 27H15V21.8085C17.4467 26.9436 19.3472 19.6115 19.0782 13H24V16.8921C23.9603 16.7894 23.9207 16.6875 23.8812 16.5864L23.8621 16.5531C22.4781 14.131 20.6842 20.9311 20.6653 27Z" fill="#F04B09"/>
</svg>
