<svg width="40" height="40" viewBox="0 0 40 40" fill="none" xmlns="http://www.w3.org/2000/svg">
<path d="M3.04895 10.5171L32.0577 3.88843C25.9405 16.3966 22.0278 13.9318 18.9341 11.9829C16.033 10.1553 13.8522 8.78149 11.2492 20.6332C49.8047 2.85159 44.0504 40.8935 6.00599 36.6701L13.5209 27.0276C32.0577 41.4901 39.0716 19.3151 8.51095 24.1359L3.04895 10.5171Z" fill="#F04B09"/>
<path fill-rule="evenodd" clip-rule="evenodd" d="M35.0641 5.81673L34.5627 13.0478C27.4383 12.0684 21.8752 10.6425 17.7876 9.5947C8.21043 7.1398 6.73355 6.76124 12.2541 19.0686C45.814 -2.08324 46.72 51.9459 3 31.3932C3 31.2325 15.5248 24.162 15.5248 24.162C45.0835 42.937 35.0636 15.4844 7.50894 24.162L7.00795 24.1358H6.50716C6.48147 23.9875 6.45505 23.836 6.4281 23.6814C4.87821 14.7915 1.57867 -4.1342 35.0641 5.81673Z" fill="black"/>
<path fill-rule="evenodd" clip-rule="evenodd" d="M9.87511 8.95727L14.9304 11.2158C16.1791 10.2474 17.4641 11.0569 18.9341 11.9829C22.0278 13.9318 25.9405 16.3966 32.0576 3.88843L9.87511 8.95727ZM32.9417 30.3515L29.4277 28.8145C29.6854 32.161 23.1615 34.5493 13.5209 27.0276L6.00598 36.6701C18.7713 38.0872 27.9013 34.7458 32.9417 30.3515Z" fill="#F04B09"/>
</svg>
