<svg width="40" height="40" viewBox="0 0 40 40" fill="none" xmlns="http://www.w3.org/2000/svg">
<path fill-rule="evenodd" clip-rule="evenodd" d="M2.56719 20.3024C1.06705 6.80237 25.0674 -8.19768 36.5672 13.3026L23.0674 15.8023C18.0672 9.80233 5.06738 9.30225 4.06738 20.8022C8.06738 15.3022 37.0492 13.8022 36.5672 27.3024C36.0979 40.447 5.01185 42.3024 2.56719 20.3024ZM8.06752 21.3018C5.92938 15.7588 30.4796 23.6914 32.0676 31.3021C33.202 36.7384 10.4873 27.5749 8.06752 21.3018Z" fill="#F04B09"/>
<path d="M33.9483 24.5896C35.3539 35.0144 17.5128 42.1139 9.53243 33.3518C1.55211 24.5898 5.10442 12.8159 7.1345 10.3136C12.8891 1.29795 27.4332 0.298352 36.5674 11.3155L32.5082 16.8237C12.209 6.30769 5.1576 5.57913 10.6858 18.8269L10.7157 18.8979C19.768 11.8359 32.5111 13.9309 33.9483 24.5896L25.3964 25.7118C29.4382 9.31631 18.7983 19.8374 13.7889 26.4367C16.7608 34.3164 20.3409 43.0782 25.3964 25.7118L33.9483 24.5896Z" fill="black"/>
<path fill-rule="evenodd" clip-rule="evenodd" d="M32.013 32.1515C30.4543 35.6097 10.3367 27.1849 8.06749 21.3021C6.70487 17.7695 16.1815 19.71 23.6463 23.5523L24.9633 17.2966C16.5715 15.8627 6.32838 17.6935 4.06736 20.8025C4.13876 19.9813 4.27134 19.2214 4.45781 18.5203L2.50879 19.5262C2.51909 19.7854 2.53845 20.0443 2.56716 20.3026C4.57104 38.3359 25.8191 40.3407 33.6746 33.238L32.013 32.1515Z" fill="#F04B09"/>
</svg>
