<svg width="40" height="40" viewBox="0 0 40 40" fill="none" xmlns="http://www.w3.org/2000/svg">
<path d="M5 13.9999C15.5 18.4999 30 6.5 35 6V8.5C30.5 10.5 11.5 16.9999 11.5 36.9996H25.5C25.5 20.4997 33.5 12.0001 36 10.5001V3H33H3L5 13.9999Z" fill="black"/>
<path d="M5 2.99976C29 3.00045 42 -2.00049 27.5 37H14.6286C24.7921 20.0161 31.2111 11.5081 12.4889 30.1195C12.4889 30.1195 7.67461 20.0161 7.67461 18.9526C21.0476 16.8256 25.8619 17.5346 28.0016 13.6351C34.1289 2.46823 27.4667 6.72227 5 16.8256V2.99976Z" fill="#F04B09"/>
<path fill-rule="evenodd" clip-rule="evenodd" d="M35 7.57847V8.50004C34.6897 8.63795 34.3104 8.79727 33.8732 8.98094C27.9699 11.4607 11.5 18.3791 11.5 36.9997H25.5C25.5 20.4997 33.5 12.0002 36 10.5002V7.14709L35 7.57847Z" fill="black"/>
</svg>
