<svg width="40" height="40" viewBox="0 0 40 40" fill="none" xmlns="http://www.w3.org/2000/svg">
<path fill-rule="evenodd" clip-rule="evenodd" d="M13.1906 15.3473C3.24427 5.83585 11.748 -2.30557 26.7342 7.32027C42.6674 17.5543 37.6501 28.2346 25.7004 23.2027C37.0334 33.5236 28.477 42.848 13.0601 32.474C-2.46539 22.027 1.90124 11.0405 13.1906 15.3473ZM21.897 20.9997C16.972 19.5001 16.0669 3.71939 20.8968 5.49969C26.3221 7.49943 26.8222 22.4994 21.897 20.9997ZM16.897 33.0002C11.972 31.5006 11.0669 15.7199 15.8968 17.5002C21.3221 19.4999 21.8222 34.4999 16.897 33.0002Z" fill="#F04B09"/>
<path fill-rule="evenodd" clip-rule="evenodd" d="M4.00035 11C6.19566 7 14.5003 4 22.0003 4L22.1579 4.06836C22.1595 4.02395 22.1098 4 22.0003 4C33 4 39.5 8 36.0003 14C34.18 16.7304 30.2889 19.0466 23.95 21.3257V21.9723C34.2286 21.0778 38.4259 25.0486 35.9498 30C33.7545 34 25.45 37 17.95 37L17.7924 36.9316C17.7908 36.976 17.8405 37 17.95 37C6.95032 37 0.450353 33 3.95 27C5.77028 24.2696 9.66138 21.9534 16.0003 19.6743V19.0277C5.72168 19.9222 1.52421 15.9514 4.00035 11ZM29.3966 5.81741C22.2333 3.90667 4.54206 16.3585 9.78207 17.567C15.0226 18.7756 35.9051 7.55346 29.3966 5.81741ZM10.2216 34.9531C17.3849 36.8638 35.0762 24.412 29.8362 23.2035C24.5957 21.9949 3.7131 33.217 10.2216 34.9531Z" fill="black"/>
<path fill-rule="evenodd" clip-rule="evenodd" d="M12.2498 14.3936L17.7409 12.0548C17.4948 8.13059 18.4746 4.60688 20.8968 5.49969C22.3436 6.03296 23.4401 7.49072 24.1769 9.31355L27.5682 7.8691C27.2968 7.68607 27.0189 7.5031 26.7342 7.32027C12.2516 -1.98207 3.82316 5.30869 12.2498 14.3936ZM28.3354 26.0139L20.2719 28.2927C20.0897 31.3235 18.9773 33.6336 16.897 33.0002C15.8098 32.6692 14.9185 31.6423 14.2416 30.262L11.5649 31.4219C12.0413 31.7728 12.5395 32.1237 13.0601 32.474C27.0573 41.8927 35.3994 35.0738 28.3354 26.0139Z" fill="#F04B09"/>
</svg>
