<svg width="40" height="40" viewBox="0 0 40 40" fill="none" xmlns="http://www.w3.org/2000/svg">
<path fill-rule="evenodd" clip-rule="evenodd" d="M37 8C36.8282 9.03089 36.3956 10.6144 35.8768 12.5139C33.8791 19.8273 30.602 31.8247 36 35V36H4V35L5.66268 33.6315C-3.66281 13.2874 13.2224 -3.16256 29.7768 25.608C29.4892 16.7633 27.3166 7 18 7V5H37V8ZM27.9999 34C7.42743 29.4359 2.60917 21.9861 6.2301 19.6934C9.6686 17.5162 19.6738 19.9894 27.9999 34Z" fill="#F04B09"/>
<path fill-rule="evenodd" clip-rule="evenodd" d="M3.5 35.9994C10.5 9.99969 44.8085 -21.0444 34 32.9997C33.5968 35.0159 32.8848 35.9023 31.9915 35.9861L32 36C26.8831 36.225 23.5276 30.0357 18.2982 20.3897C17.9633 19.7719 17.6207 19.1399 17.2694 18.4945C16.8313 22.4461 17.0035 28.1523 18 35.9997H14L3.5 35.9994ZM20.4039 11.4106C15.9985 14.7113 20.8296 17.8897 20.9956 17.9972C20.9985 17.999 21 18 21 18V18C31 24.5 38.1464 28.8128 32 20C27.7265 13.8727 23.3175 10.028 20.4039 11.4106Z" fill="black"/>
<path fill-rule="evenodd" clip-rule="evenodd" d="M35.8768 12.5139C36.3956 10.6144 36.8282 9.03089 37 8V5H18V7C25.1997 7 28.1331 12.8306 29.2271 19.5621L33.4321 23.1272C33.9882 19.4278 35.0438 15.5636 35.8768 12.5139ZM35.2795 34.4815L34.7273 36H36V35C35.7401 34.8471 35.5003 34.6738 35.2795 34.4815ZM21.3276 36L18.6237 31.3875C6.00183 26.991 3.24157 21.5857 6.2301 19.6934C7.14795 19.1122 8.5337 18.8624 10.2305 19.0749L5.50297 13.5252C2.41243 17.7316 1.87097 25.3597 5.66268 33.6315L4 35V36H21.3276Z" fill="#F04B09"/>
</svg>
