<svg width="40" height="40" viewBox="0 0 40 40" fill="none" xmlns="http://www.w3.org/2000/svg">
<path d="M3 19.6603C3 4.30216 19 -4.50049 34.5 10.9997L22.5 15.9997C17 3.28935 6.49737 1.06174 13.5 20.1557C23.3433 46.9953 25.5 30.5001 27 19.0001L37 19.6607C37 25.0001 31.2463 36.5001 19 36.5001C10.8806 36.5001 3 31.0554 3 19.6603Z" fill="#F04B09"/>
<path d="M24.7093 20C12.7237 31.5 1.98377 37.8695 12.7237 18.5005C20.2093 5.00044 19 2.5 29 18L37 3L5.70926 7.5C-6.29071 36.5 24.849 46.4742 35.2237 26.1173L24.7093 20Z" fill="black"/>
<path fill-rule="evenodd" clip-rule="evenodd" d="M10.0027 5.25097L12.8265 6.25944C15.1868 5.40306 19.5587 9.20236 22.5 15.9996L34.5 10.9996C25.3905 1.88991 16.1082 1.17461 10.0027 5.25097Z" fill="#F04B09"/>
</svg>
