<svg width="40" height="40" viewBox="0 0 40 40" fill="none" xmlns="http://www.w3.org/2000/svg">
<path fill-rule="evenodd" clip-rule="evenodd" d="M25.9988 12.186C14.9996 -8.00061 19.5 17 27.9994 20.9994V21.9994H23.5137C24.8863 25.2698 25.4353 29.2401 24.5004 31.4992C20.7759 40.4993 11.0006 36.9998 3 30.9996L13.0012 27.813C24.0004 47.9996 19.5 22.999 11.0006 18.9996V17.9996H15.4863C14.1137 14.7293 13.5647 10.759 14.4996 8.49987C18.2241 -0.500309 27.9994 2.99926 36 8.99942L25.9988 12.186Z" fill="#F04B09"/>
<path d="M7.00012 5.49995C7.00012 16.4999 6.50012 26.4999 12.0001 36.9999H28.0001V36C7.22116 19 17.0001 4.60711 27.0001 30L31.0001 17C7.03613 15 2.50012 -5 38.0001 17L35.0001 3L7.00012 5.49995Z" fill="black"/>
<path fill-rule="evenodd" clip-rule="evenodd" d="M21.3455 12.6511C18.2142 5.47998 18.5971 -1.39817 25.9988 12.186L36 8.99942C27.9994 2.99926 18.2241 -0.500309 14.4996 8.49987C14.3709 8.81072 14.2704 9.15398 14.1962 9.52335L21.3455 12.6511ZM24.316 24.316L18 18H13V17.9996H11.0006V18.9996C19.5 22.999 24.0004 47.9996 13.0012 27.813L3 30.9996C11.0006 36.9998 20.7759 40.4993 24.5004 31.4992C25.2222 29.7549 25.0594 26.9907 24.316 24.316Z" fill="#F04B09"/>
</svg>
