<svg width="40" height="40" viewBox="0 0 40 40" fill="none" xmlns="http://www.w3.org/2000/svg">
<path fill-rule="evenodd" clip-rule="evenodd" d="M4 3H21.0321V10.3667C21.0321 12.8066 20.3877 15.253 20 17H23H34V16C27.556 16 23.0683 9.88515 23.0683 3H34.9393H36V15.4667V16.6V17.7333V20C36 24.6227 33.2851 27.014 30.0831 29.8343C28.1824 31.5084 26.1101 33.3337 24.3321 35.8667H25.3929C28.0446 32.4667 32.8179 30.2 36 30.2V37H29.6357H25.3929H24.3321H23.2714H22.2107V35.8667C26.6812 28.4096 30.0482 18 21.0321 18H18L18.0471 19H19.9714C18.666 22.6897 16.3429 24.6745 14.3515 26.6586C11.9336 29.0677 9.71386 31.2792 9.40171 35.8667H10.4833C11.0109 30.7667 15.0576 27 19.9714 27H21.0321V37H7.77322V18.8667C7.96553 12.9132 8.77321 4.13333 5.06071 4.13333L4 4V3Z" fill="#F04B09"/>
<path d="M20 21.0002C28.6516 15.221 28.5 5.99971 25 4.99988V2.99971L37 2.99988L32 37.0002C32 37.0002 24.5909 37.0004 23 37.0002C39.5 8.5 10.5 24.5001 12.5455 37.0002L3 37.0006C3.5303 35.4008 10.3636 5.06642 4 4V3C4 3 18.4091 2.99928 20 2.9997C20 2.9997 4.28139 31.5001 20 21.0002Z" fill="black"/>
<path fill-rule="evenodd" clip-rule="evenodd" d="M36 17V17.7333V20C36 24.6227 33.2851 27.014 30.0831 29.8343C28.1824 31.5084 26.1101 33.3337 24.3321 35.8667H25.3929C28.0446 32.4667 32.8179 30.2 36 30.2V37H29.6357H25.3929H24.3321H23.2714H22.2107V35.8667C26.5126 28.6909 29.7927 18.781 22 18.0437V17H23H34H36Z" fill="#F04B09"/>
</svg>
