<svg width="40" height="40" viewBox="0 0 40 40" fill="none" xmlns="http://www.w3.org/2000/svg">
<path fill-rule="evenodd" clip-rule="evenodd" d="M37 20C37 29.3888 29.3888 37 20 37C10.6112 37 3 29.3888 3 20C3 10.6112 10.6112 3 20 3C29.3888 3 37 10.6112 37 20ZM34 24.5C34 29.7467 29.7467 34 24.5 34C19.2533 34 15 29.7467 15 24.5C15 19.2533 19.2533 15 24.5 15C29.7467 15 34 19.2533 34 24.5ZM20 24C22.2091 24 24 22.2091 24 20H25C25 22.2091 26.7909 24 29 24V25C26.7909 25 25 26.7909 25 29H24C24 26.7909 22.2091 25 20 25V24Z" fill="#F04B09"/>
<path fill-rule="evenodd" clip-rule="evenodd" d="M8.68693 34.538C14.9362 39.4019 25.0682 36.836 31.3175 28.8069C37.5667 20.7779 37.5667 10.326 31.3175 5.46203C25.0682 0.598084 14.9362 3.16395 8.68694 11.193C2.43769 19.2221 2.43769 29.674 8.68693 34.538ZM22.7155 4.77505C14.3967 4.77505 10.6821 35.2249 17.3377 35.2249C23.9932 35.2249 30.1169 4.77505 22.7155 4.77505Z" fill="black"/>
<path fill-rule="evenodd" clip-rule="evenodd" d="M24 20C24 22.2091 22.2091 24 20 24V25C22.2091 25 24 26.7909 24 29H25C25 26.7909 26.7909 25 29 25V24C26.7909 24 25 22.2091 25 20H24Z" fill="#F04B09"/>
</svg>
