<svg width="40" height="40" viewBox="0 0 40 40" fill="none" xmlns="http://www.w3.org/2000/svg">
<path fill-rule="evenodd" clip-rule="evenodd" d="M7.28613 18.9796C15.0052 25.3251 30.0944 32.2988 34.5001 17.907C41.0228 -3.40075 17.2903 3.34831 8.03478 8.10008C8.54918 6.62742 9.32885 5.20898 10.5 4H5V13.9686V37H18.5V35C12.0695 32.2441 8.2115 29.4881 7.28613 18.9796ZM21.8703 10.3932C28.7397 12.6681 33.7254 16.2729 33.0062 18.4447C32.287 20.6165 26.1352 20.5328 19.2658 18.2578C12.3964 15.9829 7.41069 12.3781 8.12992 10.2063C8.84915 8.03458 15.0009 8.11823 21.8703 10.3932Z" fill="#F04B09"/>
<path fill-rule="evenodd" clip-rule="evenodd" d="M34 4.99985C20.5 1.4998 3 3.00008 3 14V16C3.43676 16.3083 3.86843 16.6105 4.29479 16.9064C9.66773 21.3512 8.77605 31.3437 8 36V37H33V34C18.6558 33.2031 12.2497 27.2784 10.4923 21.0092C44.6234 42.3952 38.215 16.2399 34 4.99985ZM10.0515 10.7402C39.6107 6.58631 38.3404 17.5329 31.8513 19.9136C23.6461 22.9238 -8.58241 13.9302 10.0515 10.7402Z" fill="black"/>
<path fill-rule="evenodd" clip-rule="evenodd" d="M7.78942 22.6737L5 21V37H18.5V35C12.8984 32.5993 9.2489 30.1987 7.78942 22.6737ZM5 12.5V4H10.5C9.32885 5.20898 8.54918 6.62742 8.03478 8.10008C17.2903 3.34831 41.0228 -3.40075 34.5001 17.907C34.4956 17.9216 34.4911 17.9363 34.4866 17.9509L33.0106 17.5483C32.4214 15.374 27.8625 12.3776 21.8703 10.3932C15.0009 8.11823 8.84915 8.03458 8.12992 10.2063C7.91185 10.8648 8.21824 11.655 8.94258 12.5H5Z" fill="#F04B09"/>
</svg>
