<svg width="40" height="40" viewBox="0 0 40 40" fill="none" xmlns="http://www.w3.org/2000/svg">
<rect x="24" y="9" width="4" height="3" fill="black"/>
<rect x="14" y="28" width="3" height="3" fill="black"/>
<path d="M29.9999 14.4999L36.9999 7.00003C6.99988 -7.49977 -11.5001 18.9999 18 24.5C38.3916 28.3019 25.61 45.2412 12.9999 26.9999L2.99988 31.9999C33.4999 47.4999 50.2687 21.9999 23.5002 15.9999C-4.99977 9.61187 18.4577 -3.22417 29.9999 14.4999Z" fill="#F04B09"/>
<path d="M19.0001 3C5.93604 2.99982 -1.86591 14.8362 10.7223 20.8244C19.5001 25 36.0268 25.2204 34.0001 28.5C30.5001 34.1638 13.0001 24.5 8.00008 21C-3.99986 34.5 10.7223 43 15.5001 29C10.7223 43.5 33.767 36.7083 35.7779 27.7526C37.0001 22.3093 30.5086 21.204 21.1112 17.8556C14.5001 15.5 4.61128 11.8965 7.6668 8.94826C10.7223 6 31.0001 20 33.0001 21C43.0001 5.5 32.0001 1 25.5001 11C30.0001 4.07691 23.0402 3.00006 19.0001 3Z" fill="black"/>
<path fill-rule="evenodd" clip-rule="evenodd" d="M15.2287 29.8732C14.4898 29.0315 13.7446 28.077 13 27L3 32C6.45657 33.7566 9.73678 34.9866 12.7972 35.7781L15.2287 29.8732ZM35.4752 22.5719C33.8029 20.1569 30.5946 17.9708 25.5944 16.5333L25.5 18L35.4752 22.5719ZM26.165 9.99185L30.1044 4.29504C32.3187 4.95995 34.6233 5.85136 37 7.00012L30 14.5C28.823 12.6925 27.5221 11.2029 26.165 9.99185Z" fill="#F04B09"/>
</svg>
