<svg width="40" height="40" viewBox="0 0 40 40" fill="none" xmlns="http://www.w3.org/2000/svg">
<path d="M17.0001 37C0.397587 37 -0.466054 16.582 7.34688 5.56459L5 4V3H30V4C16.5 6 10 35 17.0001 35.5C22.486 35.8918 27 21.5 21 13V12C23.5279 12.5269 30.2744 15.1372 32 16L36 18V19L33.3294 19.6677C35.409 27.6837 32.5397 37 17.0001 37Z" fill="#F04B09"/>
<path d="M8.00004 36.5C1.42894 34.7477 4.00004 13.5 8.00004 5L21.0001 11C-11.4999 31.5 17.9999 35.5 25.4999 5H37.0001C36.8149 5.85666 36.0001 37 36.0001 37C36.0058 36.7825 21.0001 37 21.0001 37C24.0001 31 27.5001 8.5 27.5001 8.5C27.5001 8.39781 26.4999 8.5 26.4999 8.5C20.4524 28 15.4999 38.5 8.00004 36.5Z" fill="black"/>
<path fill-rule="evenodd" clip-rule="evenodd" d="M21.3396 12.0771C24.0848 12.7429 30.3467 15.1735 32 16.0002L36 18.0002V19.0002L33.3294 19.6678C35.4013 27.654 32.561 36.9308 17.1731 36.9998L17.3455 35.5054C22.6716 35.288 26.8735 21.321 21 13.0002V12.1844L21.3396 12.0771Z" fill="#F04B09"/>
</svg>
