<svg width="40" height="40" viewBox="0 0 40 40" fill="none" xmlns="http://www.w3.org/2000/svg">
<path fill-rule="evenodd" clip-rule="evenodd" d="M33.9999 3H22C26.755 16.4007 25.9041 16.7207 22.0322 18.1772C21.4257 18.4053 20.745 18.6614 20 19C19.2552 18.6614 18.5745 18.4054 17.9679 18.1772L17.9679 18.1772C14.096 16.7207 13.2451 16.4007 18.0001 3H6.00021C-1.88872 15.6222 7.33674 17.3534 14.7748 18.7492C16.0763 18.9934 17.3231 19.2274 18.4139 19.5076C17.458 19.7696 16.3823 20.0085 15.2549 20.2589L15.2549 20.2589C7.74393 21.9272 -2.05947 24.1047 6.00015 37H18C13.0151 22.9514 14.1913 22.4574 18.5504 20.6266C19.0007 20.4375 19.485 20.2341 20 20C20.0001 20 20.0001 20 20.0001 20C20.5151 20.2341 20.9994 20.4375 21.4497 20.6266C25.8088 22.4574 26.985 22.9514 22.0001 37H34C42.0596 24.1047 32.2562 21.9272 24.7452 20.2589C23.6179 20.0085 22.5422 19.7696 21.5863 19.5076C22.677 19.2274 23.9238 18.9934 25.2253 18.7492C32.6634 17.3534 41.8888 15.6222 33.9999 3Z" fill="#F04B09"/>
<path d="M13.5 3H3C3 12.7207 10.1666 17.7555 15.4664 21.4788C19.1626 24.0755 21.9508 26.0344 20.767 28.5C19.7919 30.5308 17.4451 28.3814 14.7657 25.9274C9.52713 21.1297 3.01704 15.1673 3 37H14.5245C14.5245 34.3949 16.0887 33.5543 17.7909 32.6395C19.3558 31.7986 21.0374 30.8949 21.7274 28.5C21.971 27.6545 22.041 26.7518 21.9783 25.8029C21.9855 25.8198 21.9928 25.8368 22 25.8537V25H23C23 28.9938 24.5754 32.5938 25.9784 35.8C26.1562 36.2063 26.3313 36.6063 26.5 37H37C37 27.2793 29.8334 22.2445 24.5336 18.5212C20.8374 15.9245 18.0492 13.9656 19.233 11.5C20.2081 9.46922 22.5549 11.6186 25.2343 14.0726C30.4729 18.8703 36.983 24.8327 37 3H25.4755C25.4755 5.60508 23.9113 6.44568 22.2091 7.36045C20.6442 8.20142 18.9626 9.10508 18.2726 11.5C18.029 12.3455 17.959 13.2482 18.0217 14.1971L18 14.1463V15H17C17 11.0062 15.4246 7.40615 14.0216 4.2C13.8438 3.79367 13.6687 3.39367 13.5 3Z" fill="black"/>
<path fill-rule="evenodd" clip-rule="evenodd" d="M11.0668 21.2765C4.77813 23.068 -0.599336 26.4409 6.00015 37H18C14.3591 26.739 14.0049 23.709 15.7771 22.1077L11.0668 21.2765ZM27.3898 18.3307C34.27 16.9231 41.1351 14.4162 33.9999 3H22C25.2338 12.1134 25.8748 15.1771 24.7361 16.6627L27.3898 18.3307Z" fill="#F04B09"/>
</svg>
