<svg width="40" height="40" viewBox="0 0 40 40" fill="none" xmlns="http://www.w3.org/2000/svg">
<path fill-rule="evenodd" clip-rule="evenodd" d="M4.41068 6.50534L5.98769 8.08229C11.182 -2.20193 39.1803 1.62659 35.0683 33.4947L33.4913 31.9177C28.297 42.2019 0.298704 38.3734 4.41068 6.50534ZM26.0254 26.9517H28.5251L26.8897 25.3164C25.837 21.9104 24.8331 19.0222 23.8812 16.5864C23.8749 16.5753 23.8685 16.5642 23.8621 16.5531C21.5771 12.5543 18.1748 33.693 23.488 35.1768C26.6053 35.664 27.6594 28.9129 26.0254 26.9517ZM14.9408 21.682C14.1871 19.6383 13.4027 17.3156 12.5893 14.6836L10.9539 13.0483H13.4536C11.7614 11.0172 12.9521 3.84912 16.3319 4.90337C21.3195 7.59825 18.7829 30.0327 14.9408 21.682Z" fill="black"/>
</svg>
