<svg width="40" height="40" viewBox="0 0 40 40" fill="none" xmlns="http://www.w3.org/2000/svg">
<path fill-rule="evenodd" clip-rule="evenodd" d="M4.00028 11C6.1956 7 14.5003 4 22.0003 4L22.1578 4.06836C22.1594 4.02395 22.1097 4 22.0003 4C32.9999 4 39.4999 8 36.0002 14C34.18 16.7304 30.2889 19.0466 23.9499 21.3257V21.9723C34.2286 21.0778 38.4259 25.0486 35.9497 30C33.7544 34 25.4499 37 17.9499 37L17.7924 36.9316C17.7908 36.976 17.8405 37 17.9499 37C6.95026 37 0.450292 33 3.94994 27C5.77021 24.2696 9.66132 21.9534 16.0003 19.6743V19.0277C5.72162 19.9222 1.52415 15.9514 4.00028 11ZM29.3966 5.81741C22.2332 3.90667 4.54199 16.3585 9.782 17.567C15.0225 18.7756 35.9051 7.55346 29.3966 5.81741ZM10.2215 34.9531C17.3849 36.8638 35.0761 24.412 29.8361 23.2035C24.5956 21.9949 3.71304 33.217 10.2215 34.9531Z" fill="black"/>
</svg>
