<svg width="40" height="40" viewBox="0 0 40 40" fill="none" xmlns="http://www.w3.org/2000/svg">
<path fill-rule="evenodd" clip-rule="evenodd" d="M20 3H16.4H14H11.6V6.64286H14C14 5.30159 15.0745 4.21429 16.4 4.21429H20V4.7V8.1V35.7857H19.4C14.821 35.7857 10.9468 32.7325 9.65695 28.5283C10.499 29.2671 11.5979 29.7143 12.8 29.7143C15.451 29.7143 17.6 27.5397 17.6 24.8571C17.6 22.1746 15.451 20 12.8 20C10.149 20 8 22.1746 8 24.8571V25.4643C8 31.6316 12.7829 36.6686 18.8 36.9843V37H19.4H20H21.2C27.1647 37 32 32.1071 32 26.0714V3H22.4H20Z" fill="black"/>
</svg>
