<svg width="40" height="40" viewBox="0 0 40 40" fill="none" xmlns="http://www.w3.org/2000/svg">
<path fill-rule="evenodd" clip-rule="evenodd" d="M37 20C37 29.3888 29.3888 37 20 37C10.6112 37 3 29.3888 3 20C3 10.6112 10.6112 3 20 3C29.3888 3 37 10.6112 37 20ZM34 24.5C34 29.7467 29.7467 34 24.5 34C19.2533 34 15 29.7467 15 24.5C15 19.2533 19.2533 15 24.5 15C29.7467 15 34 19.2533 34 24.5ZM20 24C22.2091 24 24 22.2091 24 20H25C25 22.2091 26.7909 24 29 24V25C26.7909 25 25 26.7909 25 29H24C24 26.7909 22.2091 25 20 25V24Z" fill="black"/>
</svg>
