<svg width="40" height="40" viewBox="0 0 40 40" fill="none" xmlns="http://www.w3.org/2000/svg">
<path fill-rule="evenodd" clip-rule="evenodd" d="M19.9059 3.64505C20.2846 3.23391 20.818 3 21.377 3H29C29.5523 3 30 3.44772 30 4C30 3.99984 30 4.00016 30 4V22H37V22.1716C37 22.702 36.7893 23.2107 36.4142 23.5858L32.5858 27.4142C32.2107 27.7893 31.702 28 31.1716 28H30V37.0001H29.8097C29.2904 37.0001 28.7914 36.7981 28.4184 36.4369L24.6087 32.7476C24.2196 32.3709 24 31.8525 24 31.3109V28H16.8284C16.298 28 15.7893 27.7893 15.4142 27.4142L11.2929 23.2929C11.1054 23.1054 10.851 23 10.5858 23H3V22.3904C3 22.1393 3.0944 21.8975 3.26445 21.7129L19.9059 3.64505ZM13.5984 20.305L27.6288 4.01171C28.1403 4.10283 28.3925 4.72913 28.0398 5.15248L24.4635 9.44423C24.164 9.80365 24 10.2567 24 10.7246V22H9C9 21.4477 9.44772 21 10 21H12.0829C12.6651 21 13.2185 20.7463 13.5984 20.305Z" fill="black"/>
</svg>
