<svg width="40" height="40" viewBox="0 0 40 40" fill="none" xmlns="http://www.w3.org/2000/svg">
<path fill-rule="evenodd" clip-rule="evenodd" d="M3 5H3.51562H5.0625H20.5312V11.7167C20.5312 13.9413 20.3124 15.8072 19.9355 17.4H21.5625H22.5938H34.9688V16.3667H33.9375C27.6725 16.3667 22.5938 11.2776 22.5938 5H34.9688H36V16.3667V17.4V18.4333V20.5C36 24.7148 33.3605 26.8951 30.2475 29.4666C28.3996 30.993 26.3848 32.6572 24.6562 34.9667H25.6875C28.2656 31.8667 32.9062 29.8 36 29.8V36H29.8125H25.6875H24.6562H23.625H22.5938V34.9667C26.94 28.1676 30.3281 18.4333 21.5625 18.4333H20.5312H19.6582H17.4375V19.4667H19.3084C18.0391 22.8308 15.9723 24.762 14.0362 26.5711C11.6854 28.7676 9.52737 30.784 9.22388 34.9667H10.2754C10.7884 30.3167 14.7227 26.7 19.5 26.7H20.5312V36H11.25H10.2188H9.1875H7.64063V19.4667C7.82759 14.0385 7.64062 6.03333 4.03125 6.03333H3V5Z" fill="black"/>
</svg>
