<svg width="40" height="40" viewBox="0 0 40 40" fill="none" xmlns="http://www.w3.org/2000/svg">
<path fill-rule="evenodd" clip-rule="evenodd" d="M17.8 3H20.0667H25.7333H28V5.19353V11.7741V12.8709H26.8667V11.7741L26.8667 10.6777C26.8667 7.04389 23.8231 4.09764 20.0683 4.09676H17.8V3ZM14.4 15.0644H16.6667H28V16.1612V27.1288C28 32.5803 23.4333 36.9997 17.8 36.9997H16.6667V37H12.1333V36.9997H11V35.9029H12.1359C14.8189 35.5694 16.6667 34.8054 16.6667 31.5162V18.3547V17.2579H18.9333V16.1612H16.6667H14.4V15.0644ZM20.6333 12.8709C22.1981 12.8709 23.4667 11.6433 23.4667 10.129C23.4667 8.61465 22.1981 7.38706 20.6333 7.38706C19.0685 7.38706 17.8 8.61465 17.8 10.129C17.8 11.6433 19.0685 12.8709 20.6333 12.8709Z" fill="black"/>
</svg>
