<svg width="40" height="40" viewBox="0 0 40 40" fill="none" xmlns="http://www.w3.org/2000/svg">
<path fill-rule="evenodd" clip-rule="evenodd" d="M11.2701 5.82565C10.7656 5.92048 10.4 6.36209 10.4 6.87667V7.05854V10.565C10.4 11.0253 10.1062 11.4339 9.67067 11.5795L4.72933 13.2308C4.29378 13.3764 4 13.785 4 14.2453V32.7226C4 33.3132 4.47756 33.792 5.06667 33.792H12.32C12.4378 33.792 12.5333 33.6962 12.5333 33.5781V14.1429V8.12791C12.5333 7.53733 13.0109 7.05858 13.6 7.05858V13.9424V15.6132V17.7519V33.5781C13.6 33.6962 13.6955 33.792 13.8133 33.792H15.52C15.6378 33.792 15.7333 33.6962 15.7333 33.5781V28.4453V13.5414V10.2666C15.7333 9.67601 16.2109 9.19725 16.8 9.19725V13.3409V33.792V35.9307C16.8 36.5212 17.2776 37 17.8667 37H35.7867C35.9045 37 36 36.9043 36 36.7861V20.6316C36 20.1859 35.7242 19.7869 35.3079 19.6304L28.1588 16.9428C27.7425 16.7863 27.4667 16.3873 27.4667 15.9415V11.3359V5.9892V4.06966C27.4667 3.40011 26.8599 2.89525 26.2034 3.01864L11.2701 5.82565Z" fill="black"/>
</svg>
