<svg width="40" height="40" viewBox="0 0 40 40" fill="none" xmlns="http://www.w3.org/2000/svg">
<path d="M14 2.99951C26.5 18.9995 17 22.9995 8 10.4998C7.03088 11.7918 6.06176 13.2926 4.9578 15.0022C4.35305 15.9387 3.70784 16.9379 3 17.9998H10.7757C5.92102 29.2515 14.0846 41.2398 34 35.3596L29.7451 26.6798C23.1778 37.8441 18.0521 37.2447 21.4886 27H21.5C24.7302 18 28.7698 14.5 32 24C32.75 22.75 33.375 21.625 34 20.5C34.625 19.375 35.25 18.25 36 17H26.3231C29.9106 11.4185 34 3.88809 34 3L14 2.99951Z" fill="black"/>
</svg>
