<svg width="40" height="40" viewBox="0 0 40 40" fill="none" xmlns="http://www.w3.org/2000/svg">
<path d="M13.5 3H3C3 12.7207 10.1666 17.7555 15.4664 21.4788C19.1626 24.0755 21.9508 26.0344 20.767 28.5C19.7919 30.5308 17.4451 28.3814 14.7657 25.9274C9.52713 21.1297 3.01704 15.1673 3 37H14.5245C14.5245 34.3949 16.0887 33.5543 17.7909 32.6395C19.3558 31.7986 21.0374 30.8949 21.7274 28.5C21.971 27.6545 22.041 26.7518 21.9783 25.8029C21.9855 25.8198 21.9928 25.8368 22 25.8537V25H23C23 28.9938 24.5754 32.5938 25.9784 35.8C26.1562 36.2063 26.3313 36.6063 26.5 37H37C37 27.2793 29.8334 22.2445 24.5336 18.5212C20.8374 15.9245 18.0492 13.9656 19.233 11.5C20.2081 9.46922 22.5549 11.6186 25.2343 14.0726C30.4729 18.8703 36.983 24.8327 37 3H25.4755C25.4755 5.60508 23.9113 6.44568 22.2091 7.36045C20.6442 8.20142 18.9626 9.10508 18.2726 11.5C18.029 12.3455 17.959 13.2482 18.0217 14.1971L18 14.1463V15H17C17 11.0062 15.4246 7.40615 14.0216 4.2C13.8438 3.79367 13.6687 3.39367 13.5 3Z" fill="black"/>
</svg>
