<svg width="40" height="40" viewBox="0 0 40 40" fill="none" xmlns="http://www.w3.org/2000/svg">
<path d="M15.3548 21.8125H8.64516C34.9677 -14.1317 28.7742 7.63795 26.7097 35.482C27.7419 31.9374 28.7902 29.9006 30 29.9124C30.824 29.9204 35.4839 29.9124 36 29.9124C36 29.9124 34.5503 35.04 33.9355 37H14.3226L4 36.9999L6.06452 29.9124H10C12.0645 29.9124 12.7742 29.9124 11.7419 35.4818C23.2179 8.14421 15.3548 8.14331 15.3548 21.8125Z" fill="#F04B09"/>
<path d="M19.5 3.15966C14.5971 2.179 7.5 5.65957 5 15.1598L12 19.1597C13.5 15.1598 18 4.59888 20.5 5.65977C23 6.72066 17 27.9998 15 37H25.5C30.5 27.4997 32 5.65989 19.5 3.15966Z" fill="black"/>
<path fill-rule="evenodd" clip-rule="evenodd" d="M15 21.8125H8.64514C11.0189 18.5711 13.1282 15.799 15 13.4584V21.8125Z" fill="#F04B09"/>
</svg>
