<svg width="40" height="40" viewBox="0 0 40 40" fill="none" xmlns="http://www.w3.org/2000/svg">
<path d="M6.78817 17.7525L14.0327 18.2539C26.6884 4.91393 35.7505 23.696 4.56689 25.2085L3.58145 31.9172C3.53278 31.9101 3.55838 31.9204 3.64722 31.9452C22.1627 39.6968 32.0152 33.8381 37.6156 30.1627C36.7076 27.4023 31.329 18.5433 30.8882 18.4786C27.3234 23.5842 21 29.5006 16 34.0006L15.2928 33.2933C46.8439 4.7981 7.12229 -7.32421 6.78817 17.7525Z" fill="#F04B09"/>
<path d="M15 35.843C55 13.8432 21.5 -12.0902 4 13.8432L14.5 16.8429C20.5 0.842907 45 -1.52368 7.5 28.9097C4.25023 31.547 3 35.843 3 36.8432L36 36.9097V23.9097H35C34 25.9097 22.4919 35.3252 19.5 35.843H15Z" fill="black"/>
<path fill-rule="evenodd" clip-rule="evenodd" d="M17.665 35.6396C27.5143 36.4857 33.6376 32.7736 37.6155 30.1629C37.0415 28.4177 34.6806 24.235 32.9102 21.378L24 33L17.665 35.6396ZM25.3656 7.39869C20.1463 1.22129 6.97991 3.36016 6.78815 17.7527L13.9358 18.2474L25.3656 7.39869ZM6.74728 25.0704C6.04341 25.126 5.31677 25.1724 4.56687 25.2088L4.23724 27.4528L6.74728 25.0704Z" fill="#F04B09"/>
</svg>
