<svg width="40" height="40" viewBox="0 0 40 40" fill="none" xmlns="http://www.w3.org/2000/svg">
<path fill-rule="evenodd" clip-rule="evenodd" d="M9.57071 16.1508C8.5708 8.65088 13.5712 3.56686 22.0712 2.15051C29.3473 0.938108 40.0709 7.15097 30.5709 17.1508H18.571C35.5711 6.65069 19.5712 -5.34912 20.0711 12.151L9.57071 16.1508ZM3.07096 20.6509C2.07078 31.1509 11.817 36.1511 21.3841 36.1509C30.93 36.1506 44.5708 28.6509 30.5596 17.1509H18.5708C29.3468 28.6509 26.3892 34.0175 22.5708 34.6509C18.7525 35.2842 16.5708 29.1509 19.4063 24.9287L3.07096 20.6509Z" fill="#F04B09"/>
<path d="M3.54102 14.9347L14.2246 14.9347C25.8892 1.60274 44.7748 4.93549 15.8912 18.2676L15.8912 21.6003H15.8923L15.8923 23.4468C45.3302 37.7075 23.1119 39.9293 14.2246 26.7796H3.5421C3.54197 39.7912 37.0171 41.7779 36.9999 29.5563C36.9999 24.0033 32.5547 21.5992 18.1128 21.5992L18.1128 20.4894C33.1101 21.0438 36.9988 17.711 36.9988 12.1581C37.016 -0.0635252 3.54088 1.92318 3.54102 14.9347Z" fill="black"/>
<path fill-rule="evenodd" clip-rule="evenodd" d="M28.4526 34.9287L25.9775 31.2161C26.3399 29.008 25.4123 25.7085 22 21.1875L33.3501 19.7688C40.1183 27.1982 35.0923 32.6256 28.4526 34.9287ZM25.463 4.09852C23.6321 2.04923 19.8233 3.47369 20.0712 12.151L9.57079 16.1508C8.57088 8.65088 13.5712 3.56686 22.0713 2.15051C25.1561 1.63649 28.8606 2.45716 31.3809 4.33523L25.463 4.09852Z" fill="#F04B09"/>
</svg>
