<svg width="40" height="40" viewBox="0 0 40 40" fill="none" xmlns="http://www.w3.org/2000/svg">
<path fill-rule="evenodd" clip-rule="evenodd" d="M16.5137 36.1459H26.5137C27.743 32.1121 28.7156 28.5004 29.4583 25.2782L35.0137 25.1459L36.0137 18.6459C34.0937 18.3716 32.3918 18.2917 30.8008 18.3598C35.2546 -11.1392 13.4326 5.18934 3.51365 21.146C0.808778 25.1868 9.39786 25.8918 15.0137 25.6227C15.0222 25.6223 15.0307 25.6219 15.0392 25.6215L19.7374 25.5096C18.5786 29.0186 17.4472 32.645 16.5137 36.1459ZM19.18 20.9452C18.1589 21.1698 16.6511 21.4924 15.0137 21.812C13.5786 22.0921 12.5135 22.1352 12.5135 21.6456C12.5135 20.1456 23.8826 2.84799 26.0135 3.345C27.2545 3.63447 25.1843 9.62515 22.4487 17.5413C22.1461 18.4169 21.8354 19.3161 21.5201 20.2337C21.1202 20.3544 20.7133 20.4784 20.2979 20.6051C19.9323 20.7166 19.5601 20.8302 19.18 20.9452Z" fill="#F04B09"/>
<path fill-rule="evenodd" clip-rule="evenodd" d="M19.9059 4.64505C20.2846 4.23391 20.818 4 21.377 4H29C29.5523 4 30 4.44772 30 5C30 4.99984 30 5.00016 30 5V23H37V23.1716C37 23.702 36.7893 24.2107 36.4142 24.5858L32.5858 28.4142C32.2107 28.7893 31.702 29 31.1716 29H30V38.0001H29.8097C29.2904 38.0001 28.7914 37.7981 28.4184 37.4369L24.6087 33.7476C24.2196 33.3709 24 32.8525 24 32.3109V29H16.8284C16.298 29 15.7893 28.7893 15.4142 28.4142L11.2929 24.2929C11.1054 24.1054 10.851 24 10.5858 24H3V23.3904C3 23.1393 3.0944 22.8975 3.26445 22.7129L19.9059 4.64505ZM13.5984 21.305L27.6288 5.01171C28.1403 5.10283 28.3925 5.72913 28.0398 6.15248L24.4635 10.4442C24.164 10.8037 24 11.2567 24 11.7246V23H9C9 22.4477 9.44772 22 10 22H12.0829C12.6651 22 13.2185 21.7463 13.5984 21.305Z" fill="black"/>
<path fill-rule="evenodd" clip-rule="evenodd" d="M16.5137 36.146C16.966 34.4498 17.4647 32.7242 17.9905 30.9968L18 31.0001L21.4542 20.2536L21.5201 20.2337C21.8352 19.3166 22.1458 18.418 22.4482 17.5428L22.4487 17.5414C24.9289 10.3642 26.8622 4.76983 26.2766 3.57214L26.7006 2.06445C30.4319 2.64791 32.4768 7.25907 30.8008 18.3599C30.8152 18.3592 30.8295 18.3586 30.8439 18.358C30.4344 21.2 30.0075 23.314 29.5312 25.2765L29.4583 25.2783C29.1429 26.6466 28.786 28.0852 28.3857 29.5965C28.2608 30.049 28.1323 30.5148 28 31L28.0069 31.0005C27.5586 32.6337 27.0617 34.3479 26.5137 36.146H16.5137Z" fill="#F04B09"/>
</svg>
