<svg width="40" height="40" viewBox="0 0 40 40" fill="none" xmlns="http://www.w3.org/2000/svg">
<path fill-rule="evenodd" clip-rule="evenodd" d="M37 21C37 4.00013 21.2526 -3.16049 8.64224 5.49971C-3.9681 14.1599 4.78469 38.0938 32.6421 14.9999C34.0971 22.2167 36.1426 40.9997 25.1426 26.4997L9.64258 30.9997C23.6426 43.4997 37 34.4802 37 21ZM6.14258 10.9996C14.7656 7.10068 40.4452 8.50426 32.4146 14.1494C24.3839 19.7944 -2.48041 14.8986 6.14258 10.9996Z" fill="#F04B09"/>
<path d="M12.0739 13.0969C10.4103 17.37 7.86927 27.5 26.9378 11.5822C27.7979 12.3436 33.5566 16.332 33.3788 18.6507C33.2009 20.9693 24.3391 24.5464 18.0152 23.497C-5.47462 19.5994 5.03646 -3.75042 26.0225 4.91263C42.5491 11.7348 36.6324 41.8715 17.0288 36.3219C12.5692 35.0594 8.11006 32.2824 5.63275 29.2531L12.0739 24.2042C29.4149 36.8264 35.856 34.8069 26.0225 15.1165C16.9751 -3 14.6421 6.5 12.0739 13.0969Z" fill="black"/>
<path fill-rule="evenodd" clip-rule="evenodd" d="M35.2425 11.985C36.3629 14.5595 37 17.5807 37 20.9999C37 25.0508 35.7938 28.6988 33.7264 31.4811L32.7447 31.1205C34.687 28.5031 33.5497 19.5014 32.6421 14.9998C25.4308 20.978 19.4997 23.8048 14.8881 24.561L12 23.5001L9.25875 24.3657C3.86959 22.8376 1.91918 17.2942 3.56897 12.1891C3.85336 12.2221 4.17307 12.2508 4.52512 12.2756C3.07126 15.8283 25.2462 19.1883 32.4146 14.1493C33.5617 13.3429 34.021 12.623 33.9404 11.9928C34.3822 11.9892 34.8166 11.9865 35.2425 11.985ZM22.3627 27.3067L27.317 29.1266C26.6562 28.4117 25.9331 27.5416 25.1426 26.4996L22.3627 27.3067Z" fill="#F04B09"/>
</svg>
