<svg width="40" height="40" viewBox="0 0 40 40" fill="none" xmlns="http://www.w3.org/2000/svg">
<path fill-rule="evenodd" clip-rule="evenodd" d="M26.0001 3C26.4229 6.59415 22.7334 10.9929 18.7496 15.7426C17.8635 16.7991 16.9628 17.8729 16.0895 18.9592C23.802 13.4936 31.7177 15.4168 34.5 18.0003C40.5711 23.6375 36.9624 36.7426 8.49996 36.9989L7.0036 36.999L7 37H3V28C9.00002 23 18 10 4.5 10V9L25 3H26.0001ZM9.5 28.5C24.1033 28.83 37.0127 22.6076 33.0753 20.1492C29.1379 17.6908 13.5517 22.1267 9.5 28.5Z" fill="#F04B09"/>
<path fill-rule="evenodd" clip-rule="evenodd" d="M18.0588 17.0003C35.5 17.0001 45.5 -3.99976 7 5.50022V5.5L3 34H3.00008L3 34.0003C52 46.5001 39 16.9999 18 18.0005V17.0003H18.0588ZM7.00016 22.9999C7.00025 16.9997 32.8034 27.4629 32.5001 32.4999C32.1733 37.9282 7.00009 28.4999 7.00016 22.9999ZM8.5 16.5C4.72925 16.1202 20.7663 2.56026 27 5.00022C31.3057 6.68556 15.5 17.2051 8.5 16.5Z" fill="black"/>
<path fill-rule="evenodd" clip-rule="evenodd" d="M22.6397 10.9321C24.8028 8.02978 26.2758 5.34382 26.0001 3H25L4.5 9V10C9.97118 10 11.7468 12.1352 11.5243 15.0077L22.6397 10.9321ZM29.5581 15.7415L28.4416 19.5096C30.4561 19.3594 32.1133 19.5485 33.0753 20.1492C35.5449 21.6911 31.3871 24.7137 24.3409 26.6716L23 28.75L28.4943 33.5575C38.276 29.2167 38.6557 21.8589 34.5 18.0003C33.468 17.0421 31.73 16.1748 29.5581 15.7415Z" fill="#F04B09"/>
</svg>
