<svg width="40" height="40" viewBox="0 0 40 40" fill="none" xmlns="http://www.w3.org/2000/svg">
<path fill-rule="evenodd" clip-rule="evenodd" d="M19 3H35V34L37 36V37H35H34.5092V37.0003L9.77134 37.0001C-7.25683 16.4969 11.5613 1.63901 30.3974 19.544L30.5 19.5L31 19C30.5 11.5 24.5 5 19 5V3ZM29.0813 34.1211C29.0813 26.07 9.51639 13.2919 7.28327 16.5086C4.08129 21.121 29.0813 42.1723 29.0813 34.1211Z" fill="#F04B09"/>
<path fill-rule="evenodd" clip-rule="evenodd" d="M15.0581 37C40.1791 36.9999 39 12.5 31.4998 4.00023C30.4949 3.99982 14.0123 3.99998 11.5 4.0005C10.3471 4.00018 7.67826 4.00013 5.46326 4.00008C4.50357 4.00006 3.62907 4.00004 3 4L4.5 14C11.0315 11.1552 15.0581 16.5171 10.0339 37H15.0581ZM13 6C19.3235 31.7553 27.1063 32.2323 29.052 30.3245C31.9705 27.4628 28.5656 19.3546 13 6Z" fill="black"/>
<path fill-rule="evenodd" clip-rule="evenodd" d="M28.9089 37.0002L34.5092 37.0003V37H35H37V36L35 34V26.95L28.9089 37.0002ZM19.4913 12.552C6.67034 8.13995 -2.30128 18.5587 6.84805 33.0065L9.85154 22.9949C7.62506 20.2282 6.41334 17.7617 7.28327 16.5086C8.3388 14.9882 13.2665 17.0412 18.1701 20.4795L19.4913 12.552Z" fill="#F04B09"/>
</svg>
