<svg width="40" height="40" viewBox="0 0 40 40" fill="none" xmlns="http://www.w3.org/2000/svg">
<path fill-rule="evenodd" clip-rule="evenodd" d="M37 2.99995C-6.00001 2.5 0.809744 24.8508 9.99961 33.4999C18.4997 41.4997 29.5004 38.3779 38 29.3784L28.5 19.4999C25.4261 38.9679 24.6854 37.7285 22.4527 33.9927C21.4169 32.2596 20.06 29.9891 18 28.9999C14.9424 27.2931 12.358 25.4816 10.353 23.7016C17.7763 25.4102 23.1095 25.3539 26.0002 21.4999L17 14C17 18.5284 14.5394 27.1576 6.64683 19.4603C2.80304 13.0631 9.14272 8.85912 31.9998 14.9999L37 2.99995Z" fill="#F04B09"/>
<path fill-rule="evenodd" clip-rule="evenodd" d="M3 21.9999C3 6.22725 25.8443 -0.2995 33.8132 4.59544C39.8372 8.29572 40.169 20.5432 8.81135 21.881C14.761 28.9039 35.2846 39.7127 23.5 23.9999H35.5C22.5 43.4999 3 39.4999 3 21.9999ZM15 18.9815C15 11.5206 24.6811 2.82624 28 4.49965C32.958 6.99951 23.1161 19.5505 15 18.9815Z" fill="black"/>
<path fill-rule="evenodd" clip-rule="evenodd" d="M24.0878 37.7973C28.9337 36.872 33.7758 33.8511 38 29.3784L28.5 19.4999C26.4233 32.6523 25.4115 36.3533 24.2852 36.2186L24.0878 37.7973ZM14 24.4168C19.5406 25.2782 23.6073 24.6903 26.0002 21.4999L17 14C17 16.6005 16.1885 20.5533 14.0029 21.99L14 22V24.4168Z" fill="#F04B09"/>
</svg>
