<svg width="40" height="40" viewBox="0 0 40 40" fill="none" xmlns="http://www.w3.org/2000/svg">
<path fill-rule="evenodd" clip-rule="evenodd" d="M28.2595 6.74049L32 3L34 7L30.12 7.64666C32.4511 8.98709 34 10.7999 34 13C34 18 27 21 19 21C17.3044 21 15.6089 20.8722 14 20.6109L14.0001 27C24.5 17.5 34.9882 21.9478 34.4882 29.4478C33.9882 36.9477 23 38.5 11 35.5C11 35.1 21.5032 28.4478 21.5032 28.4478C25.5032 33.4478 33.488 34 33.488 29.4478C33.488 23.4478 21.5019 26.5 8.99996 32H4.99996L11.8298 20.1615C7.35937 19.0182 4 16.681 4 13C4 7.5 12 5 19 5C22.1585 5 25.5206 5.61078 28.2595 6.74049ZM18.1394 16.2116C12.1593 14.6092 6.36353 12.3187 7.03964 9.79543C7.71575 7.27215 14.279 8.29319 19.8605 9.78874C25.4419 11.2843 31.5749 13.911 30.9603 16.2049C30.3456 18.4988 24.5183 17.9208 18.1394 16.2116Z" fill="#F04B09"/>
<path d="M20.2095 23C41.7095 34.5 19.7761 37.264 11.9998 19C5.95263 4.79723 16.4998 -3.05176e-05 26.9998 18.0004L34.4998 6.49962C21.6906 3.26351 9.34476 0.999806 5.00012 11.5C-4.30964 33.9999 27.7095 50 37.2091 22.5L20.2095 18.0004V23Z" fill="black"/>
<path fill-rule="evenodd" clip-rule="evenodd" d="M32.5342 4.06849L30.8857 4.11429L32 3L32.5342 4.06849ZM33.9149 7.01418L33.9535 6.90698L34 7L33.9149 7.01418ZM30.9053 15.3742L32.8697 9.91736C33.5882 10.8342 34 11.8656 34 13C34 18 27 21 19 21C18.8114 21 18.6229 20.9984 18.4344 20.9953L12.8243 18.3378L17.4519 16.0241C17.6806 16.0876 17.9099 16.1501 18.1394 16.2116C24.5183 17.9208 30.3456 18.4988 30.9603 16.2049C31.0334 15.9319 31.011 15.6542 30.9053 15.3742ZM33.3445 30.431C32.2518 33.8851 25.1873 33.0529 21.5032 28.4478C21.5032 28.4478 11 35.1 11 35.5C22.3362 38.3341 32.7695 37.1055 34.3105 30.638L33.3445 30.431Z" fill="#F04B09"/>
</svg>
