<svg width="40" height="40" viewBox="0 0 40 40" fill="none" xmlns="http://www.w3.org/2000/svg">
<path fill-rule="evenodd" clip-rule="evenodd" d="M19.55 3H21.8167H27.4833H29.75V5.19353V11.7741V12.8709H28.6167V11.7741L28.6167 10.6777C28.6167 7.04389 25.5731 4.09764 21.8183 4.09676H19.55V3ZM16.15 15.0644H18.4167H29.75V16.1612V27.1288C29.75 32.5803 25.1833 36.9997 19.55 36.9997H18.4167L13.8833 37L12.75 36.9997V35.9029H13.8859C16.5689 35.5694 18.0664 34.8054 18.0664 31.5162V17.2579H20.6833V16.1612H18.4167H16.15V15.0644ZM22.3833 12.8709C23.9481 12.8709 25.2167 11.6433 25.2167 10.129C25.2167 8.61465 23.9481 7.38706 22.3833 7.38706C20.8185 7.38706 19.55 8.61465 19.55 10.129C19.55 11.6433 20.8185 12.8709 22.3833 12.8709Z" fill="#F04B09"/>
<path d="M6.75 11V3H32.75C8.82286 44.161 20.1465 36.2022 24.75 28L33.25 26C24.5383 45.09 4.75 38 11.75 15C14.5313 5.86139 17.25 -0.5 6.75 11Z" fill="black"/>
<path fill-rule="evenodd" clip-rule="evenodd" d="M21.8167 3H19.55V4.09676H21.8184C25.5731 4.09764 28.6167 7.04389 28.6167 10.6777L28.6167 11.7741V12.8709H29.75V11.7741V5.19353V3H27.4834H21.8167ZM18.4167 15.0644H16.15V16.1612H18.4167H20.6834V17.2579H18.0657V18.3547V31.5162C18.0657 31.9922 18.064 32.5138 18.0353 33H19.75L21.25 29L29.75 24.9348V16.1612V15.0644H18.4167ZM25.2167 10.129C25.2167 11.6433 23.9482 12.8709 22.3834 12.8709C20.8186 12.8709 19.55 11.6433 19.55 10.129C19.55 8.61465 20.8186 7.38706 22.3834 7.38706C23.9482 7.38706 25.2167 8.61465 25.2167 10.129Z" fill="#F04B09"/>
<rect x="18.0156" y="17.2578" width="1.73912" height="16.3203" fill="#F04B09"/>
</svg>
