<svg width="40" height="40" viewBox="0 0 40 40" fill="none" xmlns="http://www.w3.org/2000/svg">
<path fill-rule="evenodd" clip-rule="evenodd" d="M16.127 18.9206C20.3274 8.5662 33.4507 -5.63225 32.8593 13.2675C27.6543 12.1122 20.2638 15.3223 17.3988 19.2889C46.2698 7.8285 44.5196 41.2719 13.8838 35.2732C19.8816 28.6847 28.2303 15.6404 16.4711 20.8681C17.0234 23.4972 17.8587 25.7153 18.7807 27.3267H8.98686C4.08995 21.214 -2.03119 8.98858 16.9444 5.32097C15.6377 10.2141 15.5513 14.9331 16.127 18.9206Z" fill="#F04B09"/>
<path d="M23 3.9996L32 8C26 15 21.9999 17 17.9999 17V18C20.9999 18 27.6736 23.1736 37 32.5C35.5 32.9998 31.5 35 25.5 37C22 30 7.99996 0.5 15.4999 37C15.4999 37 7.49994 35 3.49994 33.5C3.49994 27 3.99994 13 7.50002 3H15C10 21.5 15.4999 19.5 23 3.9996Z" fill="black"/>
<path fill-rule="evenodd" clip-rule="evenodd" d="M15.4179 35.5448C44.5702 40.1503 45.78 8.0229 17.3988 19.2889C20.2638 15.3223 27.6543 12.1122 32.8593 13.2675C33.4507 -5.63225 20.3274 8.5662 16.127 18.9206C16.1264 18.9158 16.1257 18.9111 16.125 18.9063L15 22L16.8809 22.5643C16.7316 22.0208 16.5943 21.4547 16.4711 20.8681C25.9831 16.6394 22.3382 24.3664 17.4232 30.9613L15.4179 35.5448Z" fill="#F04B09"/>
</svg>
