<svg width="40" height="40" viewBox="0 0 40 40" fill="none" xmlns="http://www.w3.org/2000/svg">
<path fill-rule="evenodd" clip-rule="evenodd" d="M12.7295 28.5467C6.30701 8.00502 27.826 13.398 15.5459 35.0575L13.7611 37.9534L13.7603 37.9547H13.7603V39L29.2219 36.9094V33.7734H26.8598C49.9539 4.91693 9.63723 -7.84422 9.63723 22.2748V22.2749H8.60654L8.60654 18.6162L8.60649 16.0029C-1.70121 16.0029 -1.70111 33.8121 9.63733 33.8121L13.7603 33.7734H14.7911L16.8526 25.4108H13.7603V28.5467H12.7295Z" fill="#F04B09"/>
<path d="M24.479 37C2.92993 -6.5 0.5 21 19.4791 35.5V37H4.97909C0.929932 25.5 3.42994 11 9.42978 5C19.2713 9.2178 27.1605 19.6126 30.9789 27.5C30.9789 23 28.4299 9.5 20.4299 5V4H36.4297C36.938 18.29 34.4297 26.5 33.4789 37H24.479Z" fill="black"/>
<path fill-rule="evenodd" clip-rule="evenodd" d="M9.83686 18.7553C9.70622 19.8564 9.63723 21.0289 9.63723 22.2749V22.2749H8.60654L8.60654 18.6162L8.60649 16.0029C-1.70121 16.0029 -1.70111 33.8122 9.63733 33.8122L13.7603 33.7734H14.7911L16.8526 25.4108H13.7603V28.5468H12.7295C11.8056 25.5918 11.4599 23.1734 11.5087 21.263L9.83686 18.7553ZM17.3251 31.5202C16.8338 32.6454 16.2446 33.8251 15.5459 35.0575L13.7611 37.9535L13.7603 37.9547H13.7603V39L21.3579 37.9727L17.3251 31.5202Z" fill="#F04B09"/>
</svg>
