<svg width="40" height="40" viewBox="0 0 40 40" fill="none" xmlns="http://www.w3.org/2000/svg">
<path fill-rule="evenodd" clip-rule="evenodd" d="M12 28C8.64516 28 3 23.6364 3 16C3 8.36364 8.64516 4 12 4H28C31.3548 4 37 8.36364 37 16C37 21.5008 34.0708 25.3033 31.1785 27H37V36H15L14 33L33 29V28H12ZM18 5C12.3387 5 11.7097 12.6087 11.7097 16C11.7097 19.3913 12.3387 27 18 27H22C27.6613 27 28.2903 19.3913 28.2903 16C28.2903 12.6087 27.6613 5 22 5H18Z" fill="#F04B09"/>
<path fill-rule="evenodd" clip-rule="evenodd" d="M23.707 33.3483C18.1763 36.6522 11.8916 36.9718 7.55418 33.5958C1.39727 28.8038 1.4955 18.3801 7.7736 10.3139C14.0517 2.24775 24.1323 -0.406418 30.2892 4.38566C36.4461 9.17774 36.3479 19.6014 30.0698 27.6676C29.6574 28.1974 29.2287 28.7038 28.7857 29.1863L35.9248 34.9868V35.9868H24.9248L23.707 33.3483ZM21.3789 28.304C19.9107 31.6607 18.1255 33.9867 16.2996 33.9867C9.74244 33.9867 13.4022 3.98667 21.598 3.98667C26.1297 3.98667 25.5151 15.5728 22.8266 24.3445L19.9248 21.9868L18.9248 22.9868L21.3789 28.304Z" fill="black"/>
<path fill-rule="evenodd" clip-rule="evenodd" d="M37 29H33V28H20.0741L20.1482 27H22C27.6613 27 28.2903 19.3913 28.2903 16C28.2903 12.6087 27.6613 5 22 5H21.7778L21.8519 4H28C31.3549 4 37 8.36364 37 16C37 21.5008 34.0708 25.3033 31.1785 27H37V29Z" fill="#F04B09"/>
</svg>
