<svg width="40" height="40" viewBox="0 0 40 40" fill="none" xmlns="http://www.w3.org/2000/svg">
<path fill-rule="evenodd" clip-rule="evenodd" d="M35 3C18 4.5 13.5 16.0428 11 27H10V22L3 23V23.5292C3 23.8388 3.0719 24.1443 3.21005 24.4214L9.48 37H10H11H12V36C12 19.9718 23.7954 19.5135 35.928 19.0421C36.2851 19.0282 36.6426 19.0143 37 19V18L35 3Z" fill="#F04B09"/>
<path fill-rule="evenodd" clip-rule="evenodd" d="M12.5 18.9998C42.5 34.4998 37.5 13.5 35 3.49998C12 1.49963 3.00004 6 3.00004 15.4999L3.00003 15.5L3 15.5V15.5009V37H15V36C-4 16.5 5.5 15.5 20.5 37L34 33L11.887 19.8172L12.5 18.9998ZM6.4998 9.99966C11.3919 6.08594 42.3881 9.26914 34.5 16.4997C28.5 21.9995 1.49968 13.9998 6.4998 9.99966Z" fill="black"/>
<path fill-rule="evenodd" clip-rule="evenodd" d="M18.2019 22.351C22.7611 19.5537 29.2941 19.2998 35.928 19.0421C36.2851 19.0282 36.6426 19.0143 37 19V18L35 3C21.7491 4.1692 16.0928 11.44 13.0584 19.7792L18.2019 22.351ZM11.1484 26.3593L11.5 28L12.8025 29.6281C12.7075 29.9548 12.6204 30.292 12.5415 30.64L6.5 23.5L6.62727 22.4818L10 22V27H11C11.0487 26.7866 11.0981 26.573 11.1484 26.3593Z" fill="#F04B09"/>
</svg>
