<svg width="40" height="40" viewBox="0 0 40 40" fill="none" xmlns="http://www.w3.org/2000/svg">
<path d="M16.5727 15C20.922 25.9552 32.1306 39.8789 30.1108 29.0876C28.3655 19.7627 22.0313 7.6529 18.3015 3H36.5L31 37H29.5C4.11831 34.751 12.3881 24.8633 15.1747 21.5315C15.6703 20.939 15.9925 20.5538 15.921 20.4558C15.7883 20.2739 14.2976 21.083 10.0381 23.3947C9.41874 23.7308 8.74081 24.0987 8 24.5L3 15H16.5727Z" fill="#F04B09"/>
<path d="M16.5 3C4 39 17.5 19 25.5 3.00021L37.5001 3L14 36.9998C13 35.9996 4 3 4 3H16.5Z" fill="black"/>
<path fill-rule="evenodd" clip-rule="evenodd" d="M11.6979 22.4944C14.6956 20.8719 15.8072 20.2997 15.921 20.4557C15.9924 20.5536 15.6703 20.9388 15.1746 21.5314L15.1746 21.5314C12.3881 24.8631 4.11824 34.7508 29.4999 36.9998H30.9999L33.4264 21.9998H28.1487C29.0023 24.4286 29.6899 26.839 30.1108 29.0875C32.0101 39.2354 22.2113 27.5273 17.4193 16.9849L11.6979 22.4944Z" fill="#F04B09"/>
</svg>
