<svg width="40" height="40" viewBox="0 0 40 40" fill="none" xmlns="http://www.w3.org/2000/svg">
<path d="M11.9999 3C14.9999 8 22.8576 19 15.0001 30C9.99994 37 7.00013 29 13.9999 16.5L4.00015 3C1.49994 26.5 5.00017 34 20.0001 37C34.9998 34 39.5001 25.5 36.0001 3L25.9999 16.5C32.9999 29 30.0597 36.9568 25.0001 30C16.9999 19 24.9999 8 27.9999 3H11.9999Z" fill="#F04B09"/>
<path fill-rule="evenodd" clip-rule="evenodd" d="M20 3C11.5 29 -4.5 34 16.5 3H5.99997C-0.99995 19 5.2312 33 9.99988 37L14.8828 27.9317C16.4676 29.7182 22.4566 36.4645 23 37C29.318 30.3519 33.2306 24.7232 37.5 16L31 3C27 30.5 11.5 38.5 24 11L23.9988 11.0021L23.9999 11L20 3Z" fill="black"/>
<path fill-rule="evenodd" clip-rule="evenodd" d="M15.0521 29.927C15.0349 29.9513 15.0176 29.9757 15.0002 30C10 37 7.00022 29 14 16.5L4.00024 3C1.98131 21.9763 3.87503 30.5196 12.577 34.6852L15 30.5L15.0521 29.927ZM29.8421 31.2437L30.6348 32.6622C36.9646 27.7322 38.4629 18.8318 36.0002 3L26 16.5C29.8325 23.3438 30.6854 28.8257 29.8421 31.2437Z" fill="#F04B09"/>
</svg>
