<svg width="40" height="40" viewBox="0 0 40 40" fill="none" xmlns="http://www.w3.org/2000/svg">
<path d="M28.4999 3C12.9999 26.4998 1.49985 19.9998 18.4998 8.49984L7.99994 3C1.99995 21 13.4999 27 33.4999 13.5L33.9999 14C23 40.5 5 37 11.5 25L17.5 32.5L22.5 25.5L3.5 22.5C5 35.4998 21.5 41.5 30 34.5C39.0001 26.5002 38.4999 8.49984 28.4999 3Z" fill="#F04B09"/>
<path d="M37 4C36.9898 4.02767 36.9796 4.0553 36.9693 4.0829V12.7925C36.9725 13.1885 36.9759 13.5812 36.9793 13.9704C37.0846 25.972 37.1609 34.6766 27.1723 36.6893C18.2078 38.4957 7.64069 32.156 3 28L22 23C27.3863 33.7725 40.5673 37.5232 31.2706 13.3731C20.8118 24.4199 3.91189 21.8941 7.48812 4H19.5698C-1.19769 19.3137 20.0581 23.1422 26.0695 4H37Z" fill="black"/>
<path fill-rule="evenodd" clip-rule="evenodd" d="M9.3617 23.4255L3.5 22.5C5 35.4998 21.5 41.5 30 34.5C31.5313 33.1389 32.7876 31.4883 33.7688 29.659L28.0991 24.7992C17.9131 38.8242 6.53605 35.1664 11.1984 25.5864L9.3617 23.4255ZM11.0047 20.0646L11.8341 18.8501C8.48659 19.2804 9.4946 14.5916 18.4998 8.49984L7.99994 3C4.99892 12.0031 6.37587 18.0041 11.0047 20.0646Z" fill="#F04B09"/>
</svg>
