<svg width="40" height="40" viewBox="0 0 40 40" fill="none" xmlns="http://www.w3.org/2000/svg">
<path fill-rule="evenodd" clip-rule="evenodd" d="M3 3H15.8261C17.8913 3 19.9058 3.63938 21.593 4.83032L36 15V16L20 21C2.67319 25.847 2.71951 26.5212 36 26V37H23.1739C21.1087 37 19.0942 36.3606 17.407 35.1697L3 25V24L19 20C36.3268 15.153 36.2805 13.4788 3 14V3Z" fill="#F04B09"/>
<path d="M1.99976 3C15.1744 3.7832 20.6128 3.8263 33.9998 3L34 6C29.0001 7.49998 25.1141 12.9024 20 20.9996C10.5 36.4996 13 41.5 32.0002 22L37.0002 37C23.8255 36.2168 18.3872 36.1737 5.00021 37L4.99998 34C9.9999 32.5 13.8859 27.0976 19 19.0004C28.5 3.5004 26 -1.5 6.99976 18L1.99976 3Z" fill="black"/>
<path fill-rule="evenodd" clip-rule="evenodd" d="M14.7841 33.3181L3 25V24L16.2 20.7L17.2711 21.771C5.69546 25.0842 4.51014 26.1168 20.5254 26.1472L15.5 33L14.7841 33.3181ZM22.6667 20.1666L36 16V15L22.485 5.45996L19.033 13.9571C34.5476 14.2498 33.1532 15.8857 21.5343 19.2769L22.6667 20.1666Z" fill="#F04B09"/>
</svg>
