<svg width="150" height="150" viewBox="0 0 150 150" fill="none" xmlns="http://www.w3.org/2000/svg">
<path fill-rule="evenodd" clip-rule="evenodd" d="M133.999 35.8972C137.216 45.8911 137.85 58.565 135.884 74.0544L136 74.0005C133.5 92.5005 132.276 109.914 132.276 120.414C129.471 117.89 126.879 114.361 124.76 110.588C112.691 131.915 92.0864 142 63.9241 142C42.6178 142 28.0724 136.227 20.1469 124.181C26.7115 122.217 35.8811 124.05 44.1583 128.612C37.135 121.263 23.1078 113.459 15.6463 114.618C12.3433 104.307 12.1404 90.9885 14.992 74.5C15.023 74.3209 15.0542 74.1422 15.0856 73.9638L14.9991 74.0005C19.0003 53.5 19.0003 38.5001 19.0003 28.0001C21.9631 30.666 24.6875 34.4525 26.8687 38.4636C38.8958 17.1015 58.2442 7 85.3978 7C106.701 7 121.45 13.2176 129.567 26.2123C122.99 29.6602 112.419 28.0016 103.002 22.8118C110.564 30.7252 126.248 39.1658 133.11 36.376C133.447 36.2393 133.742 36.0793 133.999 35.8972ZM103.717 45.5784C94.0669 41.3401 84.6232 40.4497 77.0826 41.7084C78.3957 42.936 79.706 44.2085 81.0083 45.5205L81 45.5C84.1118 47.9634 87.1899 51.0657 90.4088 54.3099C99.603 63.5763 109.946 74 125.5 74V75H104.224L90 75V74.9998H85C78 74.9998 74.9998 72 74.9998 65L75 60H74L73.9998 65.0002C73.9998 71.8013 71.1679 74.8262 64.5864 74.9925C49.7215 74.4561 29.2653 45.2997 35.5861 29.3863C36.6659 27.2756 38.087 25.7747 39.7882 24.8186C52.9959 16.6891 86.8409 29.6075 103.717 45.5784ZM84.4372 76.0086C99.3424 76.5925 121.16 106.671 114.442 119.989C113.274 121.854 111.703 123.152 109.806 123.94C95.5045 130.689 60.3129 120.938 44.0001 105.5C52.95 109.431 63.1464 109.916 71.4299 108.376C68.226 105.687 65.0504 102.738 61.9792 99.582C61.0262 98.6402 60.0651 97.6716 59.0912 96.69C49.897 87.4237 39.5544 77 24 77V76L31 76H59H64.1053C71.0302 76.0301 73.9998 79.0353 73.9998 86L74 91H75L74.9998 86C75 80.1633 77.8389 76.2191 84.4372 76.0086Z" fill="black"/>
</svg>
