<svg width="150" height="150" viewBox="0 0 150 150" fill="none" xmlns="http://www.w3.org/2000/svg">
<path fill-rule="evenodd" clip-rule="evenodd" d="M40 95L6 94.9999V94.0004C18.6928 92.7519 25.6705 77.1287 33.5637 59.4555L33.5638 59.4553C35.1865 55.8219 36.8479 52.1019 38.6057 48.4023C33.5431 48.2563 28.7632 47.1066 26.4394 45.7003C31.2448 44.2459 39.9393 36.3271 49.6153 27.5143L49.6153 27.5143L49.6153 27.5143L49.6186 27.5113C50.7588 26.4728 51.9127 25.4219 53.0754 24.3677C61.8919 13.7312 73.5368 6.39934 90.5 6.99994H137.5L116.191 76H141L133 97H130C130 89.3703 125.907 79.0119 115.552 78.0693L111.276 91.9167C108.135 106.059 109.129 123.861 110.999 129C107.56 128.509 104.26 126.402 101.524 123.494L95.5 143H58.5C61.7515 136.912 64.6966 131.245 67.4229 126L67.423 126C84.4009 93.3333 92.8898 76.9999 114 76.9999V75.9999H89.9198C82.9771 76.0304 80 80.0229 79.9998 86L80 91H79L78.9998 86C78.9998 80.0728 76.849 77.0133 71.94 76.2148C62.5713 77.5563 55.8311 85.0511 49.5 94.9999L40 95ZM58.6435 75H64V74.9998H68.9998C76 74.9998 78.9998 72 78.9998 65.0002L79 60H80L79.9998 65C79.9998 71.6171 82.6808 74.6596 88.887 74.9727C96.3987 74.5092 102.426 68.1843 106.67 59.6708C111.46 48.8496 107.698 37.5967 103.501 31.9999C107.82 31.9999 111.069 33.3183 113.448 35.4258C116.431 6.55529 100.894 -13.783 58.6435 75Z" fill="black"/>
</svg>
