<svg width="150" height="150" viewBox="0 0 150 150" fill="none" xmlns="http://www.w3.org/2000/svg">
<path fill-rule="evenodd" clip-rule="evenodd" d="M22.9991 24L19.9991 79L40.4991 83C47.2802 75.5408 54.5211 73.5996 66.2755 73.1227C71.6548 73.7501 73.9989 76.8124 73.9989 83.0002L73.9991 94H74.9991L74.9989 83.0002C74.9991 77.0002 77.9991 73 84.9991 73H86.4991C135.141 73 61.2078 165.343 51.1892 133.699C49.3248 125.471 55.9482 113.051 60.4981 108.5C57.2257 108.5 54.2771 108.946 51.7331 109.767C52.852 103.742 54.5745 96.6911 56.9991 88.4999H12.4999C-4.50471 140.406 70.2417 158.225 113.162 128.014C113.401 132.863 114.188 136.93 115.35 138.639C116.042 135.823 118.913 131.237 122.373 125.71C126.698 118.8 131.945 110.419 135.003 102.19H134.991C139.401 92.7297 141.831 81.5289 141.5 68.4998L128.999 56.4998C112.264 67.8516 98.1869 71.1673 85.7215 72H84.9991C77.9991 72 74.9989 69.0002 74.9989 62.0002L74.9991 50.5H73.9991L73.9989 62.0005C73.9989 69.0002 70.9991 72 63.9989 72H62.9955V71.9995C47.4986 71.9995 39.499 64.0002 35.9991 60.4997C35.7334 63.5555 35.8208 65.8699 36.2519 67.6212C14.186 57.6868 30.0751 34.8394 56.9991 42C57.9477 42.2523 58.8898 42.5008 59.8251 42.745C76.3155 47.7417 97.2732 54.2312 107.261 58.7259C106.153 55.1573 104.046 51.9575 101.372 49.1611C121.006 48.1579 135.071 37.5498 142.999 7L63.9936 18.1924C66.9598 15.2504 69.3077 11.8384 70.499 7.99964C60.4991 12.5 39.5015 19 23.0018 23.9993L23.002 23.9996L22.9991 24Z" fill="black"/>
</svg>
