<svg width="150" height="150" viewBox="0 0 150 150" fill="none" xmlns="http://www.w3.org/2000/svg">
<path fill-rule="evenodd" clip-rule="evenodd" d="M143 73.4998C152.433 6.24029 106.023 -1.75402 63.9238 14.366C49.4804 19.2122 29.3641 23.3826 22.9996 23.4994C24.6681 25.2866 29.8336 27.5318 35.8838 29.1851C-7.92366 60.4098 -4.13889 136.34 108 81.9998C127.391 110.686 117.427 122.318 97.0781 123.32C79.4314 122.02 68.1672 113.959 64.5 108C64.5 112.318 65.217 116.066 66.5043 119.209C54.8724 116.066 42.7906 111.322 32.0018 105.568L7 129.569C39.827 151.062 98.2776 148.504 127.045 112.129C128.589 116.85 130.473 120.665 132.078 122.024C131.979 118.737 133.738 112.408 135.827 104.889C137.721 98.0741 139.886 90.2825 141.185 82.8944C141.935 79.8849 142.544 76.754 143 73.4998ZM26.8313 64.9597C31.0136 67.8336 35.7181 70.2217 40.7722 72.1689C39.867 68.806 39.6513 65.2074 40.2368 62.0004C45.0016 68.5047 60.498 79.0002 76.9996 79.0002L76.8337 79.0769C120.006 80.925 161.783 63.4817 129.42 45.7118C126.411 44.06 123.02 42.6213 119.34 41.385C120.349 44.8742 120.612 48.651 120 52.0005C115.235 45.4963 98 35.4998 81.4984 35.4998L81.6184 35.448C41.0806 34.2581 0.170342 46.6394 26.8313 64.9597ZM100 56.5H91C84 56.5 81 60.5002 80.9998 66.5002L81 71.5H80L79.9998 66.5002C79.9998 59.5002 77 56.5 69.9998 56.5H61V55.5H69.9998C77 55.5 79.9998 52.5002 79.9998 45.5005L80 40H81L80.9998 45.5002C80.9998 52.5002 84 55.5 91 55.5H100V56.5Z" fill="black"/>
</svg>
