<svg width="150" height="150" viewBox="0 0 150 150" fill="none" xmlns="http://www.w3.org/2000/svg">
<path fill-rule="evenodd" clip-rule="evenodd" d="M88.0002 6.99902L88.0776 7.16312C88.3086 7.64124 88.5394 8.12021 88.77 8.59999C92.7733 16.7331 98.8376 25.9661 111.5 33.0001C107.511 34.4503 103.653 34.3226 100.236 33.4754C106.192 46.9005 111.842 60.3893 116.973 73.0878L116.999 72.9996C120.999 83.4996 130.499 100.5 142.998 106.5C138.046 108.3 133.853 108.378 130.511 107.738C138.475 128.803 143.374 143 143.374 143L90.8073 143V141.5C94.9145 140.358 104.508 129.124 104.248 107.391C102.75 96.6524 96.5192 88.0852 88.4987 88.0001L86.9713 88.0001L86.9213 88.0001C76.4602 88.0033 72.9714 89.016 72.9714 99.0001V118H71.9714V99.0001C71.9714 89.17 68.1062 88.0366 59.4258 88.001C51.909 88.1064 44.5279 92.1771 43.4865 103.021C43.4905 103.014 43.4945 103.006 43.4985 102.999C42.4985 113.999 53.7446 120.999 60.7463 122.999C55.8446 125.354 49.3775 124.784 45.9924 123.584C48.7592 133.187 52.8945 140.608 57.9987 142V143L6.76562 143C6.76562 124.829 19.1944 101.686 32.6171 78.7286C28.8245 79.2633 24.452 79.1192 19.9981 77.5001C28.6797 73.5528 39.5436 63.9986 46.6859 54.7388C57.1168 36.5208 65.4987 19.6554 65.4987 7.00001L87.9987 7L88.0026 7.00799L88.0002 6.99902ZM80.4987 40.5C82.1042 43.055 83.6116 45.5604 85.0258 48.0164L84.9987 48.0001C86.2777 50.7001 87.4759 53.2387 88.5814 55.622C86.2608 55.3061 83.3005 55.3387 79.497 56.0001C86.1193 57.8917 93.3471 65.1509 96.0744 74.3928C98.2781 83.0557 95.6202 86.7799 85.4406 86.9905C73.9157 86.7728 72.9714 82.8308 72.9714 77.0001V55.0001H71.9714V77.0001C71.9714 84.8779 68.0926 86.9376 59.3801 86.9986C49.5842 86.868 41.5248 83.4137 47.9987 62.0001L47.9071 62.1589C54.6168 40.1271 66.6842 18.5149 80.4987 40.5Z" fill="black"/>
</svg>
