<svg width="150" height="150" viewBox="0 0 150 150" fill="none" xmlns="http://www.w3.org/2000/svg">
<path fill-rule="evenodd" clip-rule="evenodd" d="M51.5 70H55C63 70 65 74 65 83V87.9553C54.3461 87.9936 43.1813 94.4186 36.2014 105.967C32.2802 102.274 29.498 96.689 29.498 90.5C16.998 103 13.7031 120.5 13.7031 143H68.7031L68.703 143H78.3125H127.25C140.131 123.678 140.365 104.424 129.865 90.4005C133.269 90.3796 136.953 89.8068 141 88.5C136.048 86.0909 132.493 83.8968 129.271 81.9081L129.271 81.9079L129.271 81.9078C121.042 76.8288 114.984 73.0892 93.3649 70.5293C90.4594 70.014 87.4206 69.6232 84.2518 69.3657C93.5221 68.5254 101.891 66.8969 109.116 64.5258C129.866 59.5583 149.499 45.518 139.65 22C139.65 25.7205 138.967 28.439 137.881 30.4555C137.146 23.4536 133.98 15.611 128 7H103.5C74.0436 12.7043 37.25 16.25 12.5 9.5C16.8329 23.0728 22.501 27.4635 34.7339 33.0047C25.7738 36.6971 17.2024 44.3406 13.6211 56.7501C17.2154 55.0228 20.8506 53.9098 24.472 52.8009C26.5027 52.1792 28.529 51.5587 30.5414 50.832C26.0531 62.2057 18.5876 71.2375 8 72.75C39.3577 77.6859 49.3665 60.2138 59.6201 42.3142C59.8145 41.975 60.0089 41.6356 60.2035 41.2962C64.5753 35.742 65 42.9704 65 48.5V55.5C65 68 61 69 55 69H51.5H50V70H51.5ZM66 83V87.9705C73.5679 88.2295 80.8014 91.7535 86 99C61.5 80.5 39 141 81.5 141C97.1617 141 105.967 131.358 108.845 119.181C104.354 121.671 99.9249 123.084 98 123C101.766 120.793 109.922 111.463 108.423 98.1799C104.596 83.3077 93.4855 70.2275 76.5378 70.0029C66.969 70.1262 66 74.1406 66 83ZM97.5 9.5C89.1161 10.7269 82.7121 13.8948 77.5018 18.2036C71.5378 23.6525 66 36.5393 66 49V55C66 64.9785 66.9032 68.6351 75.5758 68.9737C79.5923 68.8382 83.1934 68.1847 86.4047 67.1163C104.695 62.6064 110.513 49.9329 112.277 41.0944C109.508 43.8544 105.973 46.2455 102 47.5C110.794 33.8205 105.744 20.6183 103.176 14.4238C101.646 11.7374 99.6428 9.24791 97.5 9.5Z" fill="black"/>
<path d="M90 70C80.5 69 85 69.5 91 68.5L91.5 67.5L81 69V70L91.5 71L90 70Z" fill="black"/>
</svg>
