<svg width="150" height="150" viewBox="0 0 150 150" fill="none" xmlns="http://www.w3.org/2000/svg">
<path fill-rule="evenodd" clip-rule="evenodd" d="M23.7825 30.9534C47.1732 4.16642 92.4974 -5.61645 143.001 30.5L112.5 62.9999C109.416 58.1321 106.52 51.566 103.64 44.6806C101.004 48.6603 97.721 52.107 94 54C96.4105 42.9117 97.8913 26.2452 88.1337 13.4129C80.7494 4.66811 72.0085 6.02622 60.0421 32.6505C66.3561 29.8959 73.1413 28.1185 79.6701 27.0868C68.5602 37.0163 46.4176 77.8062 37.0618 102.024L36.9996 102.253C27.3542 137.673 42.9391 135.971 61.6081 124.767C56.1528 123.17 50.9696 120.809 46.5 118C59.6556 117.849 79.9928 113.502 104.987 90.0125L105 89.9999L105 90L137.79 102.252C134.784 110.767 128.766 118.595 120.882 125.065C124.339 126.085 127.483 127.417 130 128.999C126.832 130.017 123.509 131.317 119.941 132.713C107.757 137.481 92.7027 143.371 71.0881 143.001C45.7199 143.152 20.5876 129.949 9.99876 95C8.06912 88.6311 7.11787 82.223 7.05771 75.9263L7 76.0001C7 58.5442 8.95631 45.2211 10.5841 34.1354C11.7538 26.1695 12.7538 19.3588 12.7365 13.0002C17.8216 17.7931 21.4394 24.1223 23.7825 30.9534ZM75 106.5V87.5C75 77.5 71 76.5 62 76.5L55 76.5V75.5L62 75.5C71 75.5 75 73.5 75 65.5V44H76L76 65.5C76 71.5 77 75.5 89.5 75.5H94V76.5H90C79.5 76.5 76 77.5 76 87.5V106.5H75Z" fill="black"/>
</svg>
