<svg width="150" height="150" viewBox="0 0 150 150" fill="none" xmlns="http://www.w3.org/2000/svg">
<path fill-rule="evenodd" clip-rule="evenodd" d="M74.3736 74.955C41.9493 74.3664 30.3054 67.9812 31.0069 54.7333L31.0088 54.4692C31.0733 45.8432 31.2457 22.7785 20.3867 14.38C30.7464 14.38 39.0304 20.1011 42.496 25.5158C45.6581 19.8724 49.3502 13.707 53.4163 7H90.6995C99.3652 8.53823 104.993 9.59491 109.041 10.355C113.462 11.1851 116 11.6616 118.554 12.0254C121.994 12.5155 125.464 12.8011 133.609 13.4714C135.475 13.625 137.588 13.7989 140.001 14L140.001 14.0002C141.907 14.5423 141.055 33.8716 135.813 43C135.813 37.9137 135.022 35.5037 134.132 32.7971L134.132 32.797C134.062 32.5831 133.991 32.3673 133.92 32.1483C129.139 42.4221 125.053 53.2018 135.515 54.6964C97.6044 60.6637 101.629 47.5471 105.826 33.8696C108.993 23.5494 112.257 12.91 97.6795 9.90832C92.7353 9.32665 84.1753 16.1194 79.0095 23.8682C78.284 24.9564 77.4449 26.1795 76.5322 27.51L76.5318 27.5105C75.973 28.325 75.3866 29.1798 74.7818 30.0684C78.7832 30.6132 82.946 31.9985 86.4771 34.4324C69.669 35.9508 64.8633 44.3244 61.4066 54.7491C58.2395 65.2792 60.9351 74 79.4993 74H85H86.5C92.5 74 96.5 73 96.5 60.5V47H97.5V60C97.5 70.5 98.5 74 108.5 74H114.072V75H108.5C98.5 75 97.5 79 97.5 88V104H96.5V88C96.5 80.1548 94.9803 76.1088 89.2916 75.1997H85.9446C80.6291 75.1997 76.0974 76.1385 72.2619 77.7943C62.4018 82.7984 57.4238 94.2874 61.3454 110.415C58.4192 108.242 56.2202 105.313 54.7559 102.177C52.6945 113.008 54.1899 124.797 57.3671 132.803C57.4183 132.932 57.4811 133.11 57.5577 133.327C58.3466 135.561 60.6012 141.946 66.7628 141.946C69.7953 141.946 72.2033 141.44 74.1821 140.561C76.7962 139.001 78.911 137.143 80.5078 135.039C81.1106 134.175 81.6714 133.26 82.2177 132.314C85.7531 125.346 84.4618 116.299 77.8306 106.564C84.355 108.435 89.8553 113.196 92.9722 117.895C99.6304 113.125 110.822 110.638 132.578 114.535C120.146 116.556 118.099 127.473 116.528 135.852C116 138.665 115.527 141.191 114.732 143C91.5524 143 60.0027 143 60.0027 143H29.2602C25.9613 137.594 23.4905 132.537 21.7844 127.819C20.0353 130.764 18.4751 133.966 17.2089 137.202C14.2805 127.794 15.3984 114.234 19.518 106.064C19.6399 105.506 19.7778 104.956 19.9314 104.413C15.5302 102.934 11.0024 100.181 7.375 95.8677C15.3293 97.5896 22.8183 93.1169 30.9052 88.2872L30.9052 88.2871C37.3365 84.4461 44.146 80.3793 51.8684 79.0229C58.5924 77.1164 66.1542 75.7706 74.3736 74.955Z" fill="black"/>
</svg>
