<svg width="150" height="150" viewBox="0 0 150 150" fill="none" xmlns="http://www.w3.org/2000/svg">
<path fill-rule="evenodd" clip-rule="evenodd" d="M96.4993 7H104.499V8.02931C99.9142 10.5682 97.5643 16.2212 96.7923 24.6332C99.0258 21.9725 102.644 19.4684 107.737 16.9825C105.234 21.1335 102.995 28.6524 100.982 35.4109C99.3443 40.908 97.8567 45.9021 96.4993 48.1718V48.1726C96.4992 48.1725 96.4991 48.1725 96.4989 48.1724C96.4989 48.1725 96.4988 48.1727 96.4987 48.1728L96.4987 48.1723C83.5016 42.7886 72.9667 43.4137 65.5152 46.7791C67.8497 47.9699 69.755 50.0803 70.4955 53.3191C66.0117 50.2426 55.5749 50.1633 53.0262 61.8717C52.6999 64.6956 53.3247 67.3817 54.9815 69.5049L56.3265 70.9072C58.5429 72.8 61.8786 73.9866 66.4221 74C66.7091 74 67.1907 74 67.9987 74C69.9987 74 73.9987 72 73.9987 64V55H74.9987V64C74.9987 70 77.9987 74 80.9987 74L82.9987 74V74.0001C87.0321 74.0002 90.6446 74.7296 93.7971 76.0248C99.6113 77.8309 104.171 80.5512 107.791 82.7107C110.14 84.112 112.093 85.2772 113.736 85.8031C111.296 86.5213 108.305 86.8473 105.729 86.7941C112.309 99.1202 108.314 117.199 90.238 126.305L90.2378 128.914H97.4985C97.4985 137.783 101.999 141.435 104.499 141.957V143H90.2369H55.237H53.2361H45.237V141.957C49.8215 139.383 52.1714 133.652 52.9433 125.125C50.7099 127.822 47.0921 130.361 41.9986 132.88C44.5012 128.673 46.7408 121.051 48.754 114.2C50.3913 108.627 51.8788 103.565 53.2361 101.264V101.263L53.2366 101.263L53.2369 101.263L53.237 101.264C66.239 106.723 76.753 106.078 84.1723 102.652C81.8583 101.441 79.9726 99.3083 79.237 96.0461C83.7371 99.1761 93.9986 99.659 96.4987 87.6596L96.5025 87.6606C97.3899 81.0006 93.2134 75.0001 82.9978 75.0001L80.9985 75.0001V75C77.9986 75.0001 74.9987 78.0002 74.9987 86V93H73.9987V86C73.9987 76.0613 70.0475 75.0126 68.0357 75.0001H66.5001C66.4714 75.0001 66.4427 75.0001 66.4141 75H65.9987V74.9964C62.1384 74.939 58.6763 74.2182 55.6463 72.9791C49.9713 71.198 45.5038 68.5687 41.945 66.4743C39.5962 65.0919 37.6431 63.9425 36 63.4236C38.3959 62.7279 41.3235 62.4053 43.8672 62.4436C37.3242 50.3028 41.3996 32.4628 59.4974 23.469L59.4976 20.8957H52.2369C52.2369 12.1466 47.7369 8.54397 45.2369 8.02931V7H59.4985H62.4986H94.4987H96.4993Z" fill="black"/>
</svg>
