<svg width="150" height="150" viewBox="0 0 150 150" fill="none" xmlns="http://www.w3.org/2000/svg">
<path fill-rule="evenodd" clip-rule="evenodd" d="M143.981 49.3539C146.925 65.5707 143.788 85.9125 130.656 107.471C128.871 110.401 126.978 113.12 124.994 115.636C129.183 115.377 132.489 115.961 137.641 118.038C130.162 119.909 123.721 123.526 117.425 127.062C112.896 129.605 108.444 132.106 103.734 133.884C80.8896 146.581 54.0067 144.486 35.4556 136.886C29.7282 134.54 24.4581 130.368 20.0506 124.87C18.687 128.067 16.9059 131.214 14.9727 134.106C14.7033 127.245 12.8768 120.223 11.0939 113.368C9.29127 106.436 7.53315 99.6766 7.47418 93.4283C5.33016 75.1109 10.2467 53.9322 26.5294 35.1784C27.5761 33.9729 28.6324 32.8132 29.6974 31.6981C26.4672 30.9495 23.1816 29.5736 19.8827 28.1922L19.8827 28.1922L19.8827 28.1922L19.8825 28.1921L19.8823 28.1921C18.9223 27.7901 17.9612 27.3876 17 27C26.2165 25.6834 34.843 22.0548 43.0857 18.5877C45.8644 17.4188 48.5994 16.2684 51.2988 15.231C80.3323 0.109162 110.745 8.56748 125.696 18.7256C127.229 19.7666 128.702 20.9494 130.103 22.2648C131.5 17.8822 133.858 13.4534 136.5 9.5C136.769 16.3611 138.596 23.3836 140.379 30.2387L140.379 30.2389C142.102 36.8663 143.785 43.3371 143.981 49.3539ZM72.8243 117.659C55.6629 132.52 38.9908 138.859 29.9834 132.277C16.7227 122.587 25.0959 88.5618 48.6856 56.2792C52.3905 51.2089 56.2505 46.4831 60.1767 42.1563C60.0875 47.0459 61.234 52.351 64 56.5C66.3814 45.0692 72.846 30.4626 80.8009 23.4844C94.9064 13.4203 107.854 9.85058 115.409 15.3713C128.67 25.0611 120.296 59.0866 96.7068 91.3693C95.8118 92.5942 94.9077 93.799 93.9958 94.9829C93.5703 91.3713 92.1368 87.8578 90 84.5C87.5258 94.3968 83.0927 106.742 72.8243 117.659ZM96.5 76.5H87.5C77.5 76.5 76.5 80.5 76.5 89.5V99.5H75.5V89.5C75.5 80.5 73.5 76.5 65.5 76.5H54V75.5H65.5C71.5 75.5 75.5 74.5 75.5 62V52H76.5V61.5C76.5 72 77.5 75.5 87.5 75.5H96.5V76.5Z" fill="black"/>
</svg>
