<svg width="150" height="150" viewBox="0 0 150 150" fill="none" xmlns="http://www.w3.org/2000/svg">
<path fill-rule="evenodd" clip-rule="evenodd" d="M83.8764 64.2936C73.0764 71.1941 61.6567 75.9997 53 75.9997L51.5 75.9998C41.737 75.9998 40.5525 72.6637 40.5018 62.7346C40.5737 57.4094 42.8071 52.2003 46.4586 47.3146C59.3708 32.8885 70.3248 34.4643 80.2614 35.8938C80.509 35.9294 80.756 35.9649 81.0024 36.0001C77.2482 32.4554 73.125 30.0311 69.2037 28.631C85.8639 19.2394 104.921 14.359 112 17.9998C120.861 22.5568 117.295 32.9367 108.121 43.6752C108.124 43.601 108.125 43.528 108.125 43.456C98.5 54.9999 78.0533 57.8983 69.6244 51.456C71.9849 58.9969 78.1307 62.6485 83.8764 64.2936ZM79.6313 76.9997L92.5 76.9997C93.2313 76.9997 93.9561 76.9903 94.6745 76.9716L94.6654 76.9997C111.667 77.4998 124.165 75.9995 130.666 74.4997C127.63 72.902 124.497 71.7608 121.506 71.0137C157.354 54.0706 153.092 7 71.5 7H9.5V10C9.5 46.662 16.4811 39.9245 23.7081 32.9499C31.4419 25.486 39.4573 17.7504 39.4998 62.6403C39.4699 75.0073 35.4774 75.9998 29.5 75.9998H18.5V76.9998H29.5C37.5 76.9998 39.5 80.9998 39.5 89.9998L39.5 90.9998C39.5 124 39.5 164 25.5 122.5L12 134C12 134 20.5 143.5 46 143.5C86.5351 143.5 74.793 132.393 59.9535 118.357C58.6634 117.137 57.3499 115.894 56.0453 114.635C61.1996 114.179 67.1745 112.948 69.4992 112C68.6699 111.71 67.8199 111.416 66.9558 111.117C57.6401 107.898 46.6871 104.113 42.3212 97.9753C41.1735 95.6254 40.5034 93.2956 40.5 91.0174V89.9998C40.5 80.9998 41.5 76.9998 51.5 76.9998H56.0061C66.003 77.5008 71.7625 79.5032 76.5 93.9995C77.3681 92.0643 77.9106 90.1715 78.1952 88.3734C81.375 94.3906 82.4585 102.122 83.5433 109.863C85.862 126.409 88.1872 143 111 143H142.5V142C130.474 138.618 127.699 128.457 124.594 117.089C122.308 108.72 119.844 99.6965 113.378 92.2436C115.492 92.2411 117.715 92.0174 120 91.5002C117.677 90.6706 115.629 89.4556 113.283 88.0636C108.681 85.3328 102.931 81.9208 91.7031 79.4018C88.1265 78.3888 84.1228 77.5763 79.6313 76.9997Z" fill="black"/>
</svg>
