<svg width="150" height="150" viewBox="0 0 150 150" fill="none" xmlns="http://www.w3.org/2000/svg">
<path fill-rule="evenodd" clip-rule="evenodd" d="M9 6.99805L31.9842 6.99805L92 6.99805L91.9961 7L118.66 7.00001L141.645 7.00001C135.353 13.3179 131.478 16.0114 123.003 17.4999C127.183 33.5176 127.5 43.4999 123.003 55.9999C119.198 47.2571 115.537 38.9992 112.093 31.9223C109.808 35.4425 106.853 38.1931 103.5 38.4993C104.886 36.1886 107.554 20.6367 100.055 11.9784C91.6166 3.14095 86.0662 13.5974 85.4727 63.09V65.039C85.4727 71.039 86.4726 75.0391 98.9726 75.0391H102.473V76.0391H99.4726C89.5858 76.0391 85.9053 76.9257 85.5092 85.3777C85.6201 93.9029 85.8352 103.258 86.1605 113.5C86.6527 129 94.7831 139.745 104.5 141.5V143L85.4841 143H65.1605L46.1445 143V141.5C55.8614 139.745 63.9919 128.998 64.4841 113.498C64.8409 102.262 65.0652 92.093 65.1647 82.9165C64.0729 76.7461 60.0404 76.0391 52.4727 76.0391H48.4727V75.0391H52.4727C60.1609 75.0391 64.2004 73.5796 65.2146 68.1671C64.9328 11.857 58.7838 1.88623 49.3769 13.353C43.2142 22.1871 45.6842 36.3072 47 38.5002C43.6872 38.1977 40.7629 35.5087 38.4894 32.0489C35.0634 39.0972 31.4237 47.308 27.6416 55.998C24 42.4999 23.3028 31.8686 27.6416 17.498C20.2513 16.4527 16.1174 13.9183 9 6.99805Z" fill="black"/>
</svg>
