<svg width="150" height="150" viewBox="0 0 150 150" fill="none" xmlns="http://www.w3.org/2000/svg">
<path fill-rule="evenodd" clip-rule="evenodd" d="M35.9976 143L35.9943 142.993C20.3171 122.817 11.3447 99.5641 8.5 85.0005C11.5899 86.5468 15.4137 88.9679 19.0537 91.9136C9.52913 46.7523 12.9439 7.00002 12.9439 7.00002L66.4991 7C66.4991 7 52.6359 12.981 45.6013 37.4746C48.9195 36.3561 52.8492 35.5172 57.502 35.0003C49.5007 44.5 39.5007 65.5 43.5007 95.5C43.4848 95.4808 43.4688 95.4615 43.4528 95.4421C44.7883 105.49 46.9074 116.638 49.9977 129C61.4977 175 96.5007 60 110.501 7C117.004 12.5 124.547 27.0406 128.001 38.5001C130.501 32.5001 139.501 19.5 142.501 18C139.203 40.9394 134.91 59.691 129.662 75.0261C133.146 73.6174 136.83 72.8223 140.501 72.5C139.901 73.4372 139.242 74.4785 138.527 75.6084L138.526 75.6109L138.525 75.611C130.739 87.9162 116.302 110.729 99.0265 124.181C84.6142 136.123 67.3599 140.931 47.4977 143H35.9976ZM54.0007 75C63.0007 75 67.0007 76 67.0007 86V105H68.0007V86C68.0007 76 71.5007 75 82.0007 75L86.0007 75V74L81.5007 74C69.0007 74 68.0007 70 68.0007 64V42H67.0007V64C67.0007 72 63.0007 74 54.0007 74L47.0007 74V75L54.0007 75Z" fill="black"/>
</svg>
