<svg width="150" height="150" viewBox="0 0 150 150" fill="none" xmlns="http://www.w3.org/2000/svg">
<path fill-rule="evenodd" clip-rule="evenodd" d="M63.5 143L63.4984 142.997L63.498 143C56 127.5 47.5949 114.284 37.0008 106.501C39.3447 105.826 43.2928 106.474 47.4444 108.066C24.8664 56.6844 6.93359 7 6.93359 7H59V8C59 8 43.8124 9.6612 47.9326 43.5552C50.978 37.6112 56.2601 32.7157 63.9166 30.6953L63.8866 30.7525C58.8115 40.4109 50.2035 56.7928 56.9156 80.9648C59.9079 90.1161 63.7155 100.413 68.5 112C83.7786 149 100.5 97 100.5 74C100.5 61 100 40 86.5 40V38.5L137.733 38.5C137.733 50.2314 132.817 62.0952 125.748 73.6067C130.334 72.8557 135.297 73.1569 140.001 74.5011C137.155 77.1888 133.859 79.4765 129.956 82.1862C122.055 87.6708 111.664 94.8842 97.471 110.642C87.0926 123.107 78.2008 134.197 76 143H63.5ZM76 86V105H77V86C77 76 80.5 75 91 75H95V74H90.5C78 74 77 70 77 64L77 42H76V64C76 72 72 74 63 74C56.5 74 59 74 59 74V75L63 75C72 75 76 76 76 86Z" fill="black"/>
</svg>
