<svg width="150" height="150" viewBox="0 0 150 150" fill="none" xmlns="http://www.w3.org/2000/svg">
<path fill-rule="evenodd" clip-rule="evenodd" d="M52.0906 64.3144L52.0907 64.3145L52.0908 64.3146C56.159 68.7045 59.6492 72.4707 62.0951 76.0001H62.9693C57.1513 76.0155 49.6755 80.717 41.7503 88.7122C31.3797 97.5868 23.9173 103.02 13.4978 105.499C18.6437 107.264 22.6655 108.121 25.8938 108.336C19.0135 118.424 12.3885 130.275 6.78906 143H47.4981C47.4981 105.229 47.4981 55 71.4981 92.2624C101.778 139.274 76.7715 140.902 76.7715 140.902V143L137.998 143C133.731 131.456 127.67 121.39 121.205 112.62C125.007 112.76 129.39 112.318 134.5 111C124.436 108.605 119.886 104.832 104.127 91.7645L104.124 91.7619C103.437 91.1926 102.73 90.6057 101.999 90.0005L101.998 90.0275L101.475 89.4627L101.475 89.4626L101.475 89.4625C96.6538 84.2517 92.5336 79.7986 89.9011 76H89.0259C95.004 75.9836 102.366 70.6851 110.1 61.8876C119.555 51.473 127.514 47.7115 137.979 45.2211C132.19 43.236 127.824 42.3999 124.41 42.3327C130.979 31.9083 137.376 19.7773 142.998 7.00002H104.498C104.498 9.48727 104.507 12.0349 104.516 14.6137C104.64 51.195 104.786 94.0436 80.4981 59.7377C48.1865 14.0983 76.7247 9.09837 76.7247 9.09837V7L15.4981 7.00002C20.1463 20.1147 25.8427 30.6813 31.7115 39.4262C27.7002 39.1734 23.0228 39.5742 17.4964 40.9997C27.5597 43.3946 32.1103 47.168 47.8692 60.2355L47.8819 60.2461C48.5023 60.7605 49.1401 61.2894 49.7963 61.8331C50.5785 62.6828 51.3442 63.509 52.0905 64.3143L52.0906 64.3144ZM85.9981 49V57L86.9707 57V49C86.9707 39 89.9707 38 100.471 38L101.998 38V37L100.471 37C87.9707 37 86.9707 33 86.9707 27V16H85.9707V27C85.9707 35 81.9707 37 72.9707 37H70.9981V38H72.9707C81.9707 38 85.9981 39 85.9981 49ZM65.9981 95V103C65.9981 113 70.0255 114 79.0255 114H80.9981V115H79.0255C70.0255 115 66.0255 117 66.0255 125V136H65.0255V125C65.0255 119 64.0255 115 51.5255 115L49.9981 115V114L51.5255 114C62.0255 114 65.0255 113 65.0255 103V95L65.9981 95Z" fill="black"/>
</svg>
