<svg width="150" height="150" viewBox="0 0 150 150" fill="none" xmlns="http://www.w3.org/2000/svg">
<path fill-rule="evenodd" clip-rule="evenodd" d="M101 9.5C91.2195 9.5 83.2758 17.768 74.6969 26.697L74.6969 26.6971L74.6968 26.6971C71.1431 30.3959 67.4803 34.2082 63.5329 37.5932C50.745 50.294 37.1799 52.5 24.4995 52.4999C25.9937 50.8401 27.9885 49.2488 30.1866 47.7127C24.1683 46.3979 17.4944 43.4963 10 38.5L18 7H139L135 29C131.808 42.2225 119.054 47.2334 106.121 50.2886C107.392 51.4525 108.936 52.7098 111 54C104.898 54.5231 100.437 54.4989 96.727 54.4788C89.8492 54.4416 85.5538 54.4183 78.1653 57.9225C76.1637 59.3437 75.0024 61.1315 75.0024 63.5H74.9999L74.9998 65C74.9998 72 78 74.9998 85 74.9998H95V75.9998H85C78 75.9998 75 80 74.9998 86L75 88H74.9997C75.0008 88.3975 75.0024 88.8021 75.0041 89.2129C75.0693 105.665 75.1741 132.072 46.5 112C32.1778 101.974 28.6817 108.017 30.4623 117.071L30.5012 117C32.5 124.5 40 129 47 130C43.6281 132.107 40.5228 132.971 37.684 133.153C40.8155 137.435 44.5161 140.5 48 140.5C57.769 140.5 65.7056 132.317 74.2728 123.483C77.4242 120.234 80.661 116.897 84.1057 113.846C98.6421 98.9516 111.334 98.0002 124.501 98.0003C123.014 99.6521 121.031 101.236 118.846 102.765C124.856 104.102 131.519 107.013 139 112L131 143H10L14 121.5C17.1916 108.277 29.9457 103.267 42.8787 100.211C41.6075 99.0475 40.064 97.7902 37.9996 96.5C44.1024 95.9769 48.5633 96.0011 52.273 96.0212C59.1508 96.0584 63.4462 96.0817 70.8347 92.5775C72.8363 91.1563 73.9976 89.3685 73.9976 87H73.9998L73.9998 86C73.9998 79.0353 71.0302 76.0301 64.1053 76H59V75.9998H55V74.9998H63.9998C71 74.9998 73.9998 72 73.9998 65.0002L74 63H74.0015C74.0005 62.4433 73.9983 61.8715 73.9959 61.2871C73.9307 44.8346 73.8259 18.4281 102.5 38.5C116.732 48.4624 120.274 42.4459 118.571 33.3692L118.499 33.5C116.5 26 109 21.5 102 20.5C105.487 18.3207 108.689 17.4713 111.606 17.3305C108.414 12.7914 104.592 9.5 101 9.5Z" fill="black"/>
</svg>
