<svg width="454" height="240" viewBox="0 0 454 240" fill="none" xmlns="http://www.w3.org/2000/svg">
<rect width="454" height="240" fill="none"/>
<path d="M269.61 48.9234C271.375 62.1944 248.963 71.2322 238.938 60.0779C228.913 48.9236 233.375 33.9352 235.926 30.7498C243.155 19.2727 261.425 18.0002 272.9 32.0252L267.801 39.0373C242.3 25.6502 233.442 24.7227 240.387 41.5874L240.424 41.6778C251.796 32.6877 267.804 35.3547 269.61 48.9234L258.867 50.352C263.944 29.4802 250.578 42.8738 244.285 51.2748C248.018 61.3058 252.516 72.4598 258.867 50.352L269.61 48.9234Z" fill="black"/>
<path d="M180.515 35.7669L194.136 35.7669C209.009 18.7687 233.088 23.0179 196.261 40.0163L196.261 44.2656H196.263L196.263 46.6198C233.796 64.8023 205.468 67.6351 194.136 50.8692H180.516C180.516 67.4589 223.197 69.992 223.175 54.4094C223.175 47.3294 217.507 44.2642 199.094 44.2642L199.094 42.8492C218.215 43.556 223.173 39.3067 223.173 32.2267C223.195 16.6442 180.515 19.1773 180.515 35.7669Z" fill="black"/>
<path d="M302.225 72.8252C285.568 72.825 275.621 87.9163 291.671 95.5513C302.863 100.875 323.934 101.156 321.35 105.338C316.888 112.559 294.575 100.238 288.2 95.7752C272.9 112.988 291.671 123.825 297.762 105.975C291.671 124.463 321.053 115.803 323.617 104.385C325.175 97.4446 316.898 96.0353 304.917 91.7661C296.487 88.7627 283.879 84.1682 287.775 80.4092C291.671 76.6502 317.525 94.5002 320.075 95.7752C332.825 76.0127 318.8 70.2752 310.512 83.0252C316.25 74.1982 307.376 72.8253 302.225 72.8252Z" fill="black"/>
<path d="M274.175 74.0996C274.162 74.1349 274.149 74.1701 274.136 74.2053V85.31C274.14 85.8149 274.144 86.3156 274.149 86.8119C274.283 102.114 274.38 113.212 261.645 115.778C250.215 118.082 236.742 109.998 230.825 104.7L255.05 98.3246C261.917 112.06 278.723 116.842 266.87 86.0503C253.535 100.135 231.988 96.9146 236.547 74.0996H251.951C225.473 93.6246 252.574 98.5059 260.239 74.0996H274.175Z" fill="black"/>
<path fill-rule="evenodd" clip-rule="evenodd" d="M223.175 79.2C222.956 80.5144 222.404 82.5334 221.743 84.9552C219.196 94.2798 215.018 109.577 221.9 113.625V114.9H181.1V113.625L183.22 111.88C171.33 85.9414 192.859 64.9677 213.965 101.65C213.599 90.3732 210.829 77.925 198.95 77.925V75.375H223.175V79.2ZM211.7 112.35C185.47 106.531 179.327 97.0323 183.943 94.1091C188.327 91.3331 201.084 94.4864 211.7 112.35Z" fill="black"/>
<path fill-rule="evenodd" clip-rule="evenodd" d="M144.199 116.175C176.228 116.175 174.725 84.9371 165.162 74.0999C163.881 74.0994 142.866 74.0996 139.662 74.1003C138.193 74.0998 134.79 74.0998 131.966 74.0997C130.742 74.0997 129.627 74.0997 128.825 74.0996L130.737 86.8496C139.065 83.2225 144.199 90.0589 137.793 116.175H144.199ZM141.575 76.6496C149.637 109.488 159.56 110.096 162.041 107.663C165.762 104.015 161.421 93.6767 141.575 76.6496Z" fill="black"/>
<path fill-rule="evenodd" clip-rule="evenodd" d="M261.424 135.538C247.4 109.8 253.138 141.675 263.974 146.775V148.05H258.255C260.005 152.219 260.705 157.282 259.513 160.162C254.764 171.637 242.301 167.175 232.1 159.525L244.852 155.462C258.876 181.2 253.138 149.324 242.301 144.225V142.95H248.02C246.27 138.78 245.57 133.718 246.762 130.838C251.511 119.363 263.974 123.825 274.175 131.475L261.424 135.538Z" fill="black"/>
<path fill-rule="evenodd" clip-rule="evenodd" d="M223.175 145.5C223.175 157.471 213.471 167.175 201.5 167.175C189.529 167.175 179.825 157.471 179.825 145.5C179.825 133.529 189.529 123.825 201.5 123.825C213.471 123.825 223.175 133.529 223.175 145.5ZM219.35 151.238C219.35 157.927 213.927 163.35 207.237 163.35C200.548 163.35 195.125 157.927 195.125 151.238C195.125 144.548 200.548 139.125 207.237 139.125C213.927 139.125 219.35 144.548 219.35 151.238ZM201.5 150.6C204.317 150.6 206.6 148.317 206.6 145.5H207.875C207.875 148.317 210.158 150.6 212.975 150.6V151.875C210.158 151.875 207.875 154.159 207.875 156.975H206.6C206.6 154.159 204.317 151.875 201.5 151.875V150.6Z" fill="black"/>
<path fill-rule="evenodd" clip-rule="evenodd" d="M281.825 199.05C281.825 178.94 310.951 170.618 321.112 176.859C328.792 181.577 329.215 197.193 289.234 198.899C296.82 207.853 322.988 221.634 307.962 201.6H323.262C306.687 226.463 281.825 221.363 281.825 199.05ZM297.125 195.202C297.125 185.689 309.468 174.604 313.7 176.737C320.021 179.925 307.473 195.927 297.125 195.202Z" fill="black"/>
<path fill-rule="evenodd" clip-rule="evenodd" d="M270.35 177.375C253.137 172.912 230.825 174.825 230.825 188.85V191.4C231.382 191.793 231.932 192.178 232.476 192.556C239.326 198.223 238.189 209.688 237.2 215.625V216.9H269.075V213.075C250.786 212.059 242.618 205.78 240.378 197.787C283.895 225.054 275.724 191.706 270.35 177.375ZM239.816 184.694C277.504 179.398 275.884 193.354 267.61 196.39C257.149 200.228 216.057 188.761 239.816 184.694Z" fill="black"/>
<path d="M142.85 174.824C158.787 195.224 146.675 200.324 135.2 184.387C133.964 186.034 132.729 187.948 131.321 190.128C130.55 191.322 129.727 192.596 128.825 193.95H138.739C132.549 208.296 142.958 223.581 168.35 216.083L162.925 205.017C154.552 219.251 148.016 218.487 152.398 205.425H152.412C156.531 193.95 161.681 189.487 165.8 201.6C166.756 200.006 167.553 198.572 168.35 197.137C169.147 195.703 169.944 194.269 170.9 192.675H158.562C163.136 185.558 168.35 175.957 168.35 174.825L142.85 174.824Z" fill="black"/>
<path d="M223.175 176.1C223.162 176.135 223.149 176.17 223.136 176.205V187.31C223.14 187.815 223.144 188.316 223.149 188.812C223.283 204.114 223.38 215.212 210.645 217.778C199.215 220.082 185.742 211.998 179.825 206.7L204.05 200.325C210.917 214.06 227.723 218.842 215.87 188.05C202.535 202.135 180.988 198.915 185.547 176.1H200.951C174.473 195.625 201.574 200.506 209.239 176.1H223.175Z" fill="black"/>
</svg>
